<?xml version="1.0" encoding="UTF-8" standalone="no"?>
<!DOCTYPE svg PUBLIC "-//W3C//DTD SVG 1.1//EN"
"http://www.w3.org/Graphics/SVG/1.1/DTD/svg11.dtd">


<!-- Page 1 -->
<svg x="0" y="0" width="394" height="238" viewBox="0 0 394 238" version="1.1" xmlns="http://www.w3.org/2000/svg" xmlns:xlink="http://www.w3.org/1999/xlink"
style="display: block;margin-left: auto;margin-right: auto;">
<defs>
<clipPath id="c0_1"><path d="M0,238.2V0H394.1V238.2Z" /></clipPath>

<style type="text/css"><![CDATA[

.g0_1{
fill: #231F20;
}
.g1_1{
fill: #0094D9;
}
.g2_1{
fill: none;
stroke: #231F20;
stroke-width: 0.6111111;
stroke-linecap: butt;
stroke-linejoin: miter;
}
.g3_1{
fill: #D6322D;
}
.g4_1{
fill: #FFFFFF;
}
.g5_1{
fill: #194887;
}
.g6_1{
fill: #015AAA;
}
.g7_1{
fill: #2C64B0;
}

]]></style>

</defs>
<path d="M0,0
L0,238
L394,238
L394,0 Z " 
fill="#FFFFFF" stroke="none" />
<path d="M184.1,202.7V191.9H186v4.9c0,.3,-.1,.7,-.1,1h.1l1.7,-3.2h2.1l-2.1,3.3l2,4.8h-2.1l-1.1,-3.3l-.5,.8v2.5Z" class="g0_1" />
<path d="M194.2,198.4c-.5,.4,-1,.7,-1.5,1.1c-.3,.2,-.3,.6,-.3,1c0,.6,.1,1,.8,1c1.1,0,.9,-1.4,1,-2.2Zm.2,4.3c-.1,-.2,-.1,-.5,-.1,-.8c-.4,.7,-1,1,-1.6,1c-1.6,0,-2.2,-.7,-2.2,-2.4c0,-1.9,1.3,-2.3,2.8,-2.9c.8,-.3,1,-.7,.9,-1.4c-.1,-.3,-.4,-.4,-.9,-.4c-.8,0,-1,.5,-1,1.2h-1.8c0,-1.5,.5,-2.6,2.9,-2.6c2.5,0,2.7,1.3,2.7,2.4v4.8c0,.4,0,.8,.1,1.1Z" class="g0_1" />
<path d="M200.8,202.8c-1.1,.1,-2.7,.2,-2.7,-1.3V196h-.7v-1.4h.7v-2.2H200v2.2h.8V196H200v5c.1,.4,.6,.3,.8,.3Z" class="g0_1" />
<path d="M203.9,200.1c0,1,.1,1.4,1,1.4c.9,0,.9,-.4,.9,-1.4v-2.7c0,-.8,0,-1.6,-.9,-1.6c-1,0,-1,.8,-1,1.6ZM202,198.9c0,-2.7,.1,-4.5,2.9,-4.5c2.8,0,2.8,1.8,2.8,4.5c0,2.9,-.4,4.1,-2.8,4c-2.5,.1,-2.9,-1.1,-2.9,-4Z" class="g0_1" />
<path d="M214.6,195.7c-.9,.1,-1.5,1,-1.6,1.9c-.1,.9,.4,1.5,1,1.5c1.1,.2,1.7,-.9,1.8,-1.7c.1,-.9,-.3,-1.7,-1.2,-1.7m4.8,4.9c-1.1,1.5,-2.6,2.4,-4.5,2.4c-3.2,0,-5.8,-2.5,-5.8,-5.7c0,-3.2,2.5,-5.7,5.7,-5.7c1.3,0,2.5,.4,3.5,1.3c1.1,.8,1.7,1.9,1.7,3.3c0,1.2,-.3,2.2,-1.1,3.1c-.6,.6,-1.8,1.2,-2.6,1.2c-.4,0,-.8,-.3,-.6,-.9c-.7,.6,-1.3,.9,-1.8,.9c-1.6,0,-2.5,-1.2,-2.5,-2.7c0,-1.7,1.2,-3.4,3.1,-3.4c.7,0,1.4,.3,1.8,.9l.2,-.8h1.4l-.8,4.5c0,.2,.1,.3,.3,.3c.3,-.1,.7,-.5,1,-1c.2,-.2,.5,-1,.5,-1.7c.1,-2.4,-1.7,-3.9,-4.1,-3.9c-2.7,0,-4.6,1.9,-4.6,4.6c0,2.8,2.1,4.6,4.8,4.6c1.2,0,2.2,-.6,3,-1.3Z" class="g0_1" />
<path d="M224.1,195.8c-.8,0,-.8,.8,-.8,1.6v2.7c0,.8,.2,1.4,.8,1.4c.6,0,.9,-.5,.9,-1.4v-2.5c0,-.6,0,-1.8,-.9,-1.8m-.7,7.8c0,.2,.1,.3,.2,.4c.1,.1,.3,.1,.6,.1c.8,0,.9,-.6,.9,-1.3v-.9c-.4,.8,-.9,1,-1.7,1c-1.6,0,-1.9,-1.4,-2,-2.7v-2.9c.1,-2.3,.7,-2.9,2,-2.9c.8,0,1.3,.3,1.6,1v-.8h1.9v7.9c0,1.6,-.5,3,-3,3c-1.3,0,-2.3,-.5,-2.4,-1.9Z" class="g0_1" />
<path d="M229,191.9h1.9v10.8H229V191.9Z" class="g0_1" />
<path d="M236.5,201.5h-.1c-.3,1,-.8,1.4,-1.7,1.4c-1.5,0,-1.8,-.7,-1.8,-2.1v-6.2h1.8v5.6c0,.3,0,.7,.2,1c.2,.2,.4,.3,.6,.3c.9,0,.9,-1,.9,-1.6v-5.3h1.8v8.1h-1.7Z" class="g0_1" />
<path d="M243.8,197.6v-.7c0,-.8,-.2,-1.1,-1,-1.1c-.9,0,-.9,.7,-.9,1.5v.3Zm-3.7,-.2c-.1,-1.9,.9,-3,2.7,-3c2.6,0,2.9,1.3,2.9,3.6v1h-3.8v1.2c.1,1.1,.5,1.3,1,1.3c.7,0,.9,-.5,.9,-1.5h1.9c0,1.8,-.7,2.9,-2.6,2.9c-2.2,0,-3.1,-1,-3,-3.4Z" class="g0_1" />
<path d="M250.1,195.8c-.9,0,-.8,.8,-.9,1.6v2.7c.1,.8,.3,1.4,.9,1.4c.6,0,.9,-.5,.9,-1.4v-2.5c0,-.6,0,-1.8,-.9,-1.8m-.8,7.8c0,.2,.1,.3,.3,.4c.1,.1,.3,.1,.5,.1c.8,0,1,-.6,1,-1.3v-.9H251c-.3,.8,-.9,1,-1.7,1c-1.6,0,-1.9,-1.4,-1.9,-2.7v-2.9c0,-2.3,.7,-2.9,1.9,-2.9c.9,0,1.4,.3,1.7,1v-.8h1.9v7.9c0,1.6,-.5,3,-3.1,3c-1.2,0,-2.2,-.5,-2.3,-1.9Z" class="g0_1" />
<path d="M258.4,197.6v-.7c0,-.8,-.2,-1.1,-1,-1.1c-.9,0,-.9,.7,-.9,1.5v.3Zm-3.8,-.2c0,-1.9,.9,-3,2.8,-3c2.6,0,2.9,1.3,2.9,3.6v1h-3.8v1.2c0,1.1,.4,1.3,1,1.3c.7,0,.9,-.5,.9,-1.5h1.8c.1,1.8,-.6,2.9,-2.5,2.9c-2.2,0,-3.1,-1,-3.1,-3.4Z" class="g0_1" />
<path d="M263.9,195.4h.1c.4,-.9,1.2,-1,1.7,-1c1,0,1.9,.6,1.8,2v6.3h-1.8v-5.4c0,-.8,-.1,-1.3,-.8,-1.3c-.7,-.1,-1,.6,-1,1.5v5.2h-1.8v-8.1h1.8Z" class="g0_1" />
<path d="M272.1,202.8c-1.1,.1,-2.7,.2,-2.7,-1.3V196h-.7v-1.4h.7v-2.2h1.9v2.2h.8V196h-.8v5c.1,.4,.6,.3,.8,.3Z" class="g0_1" />
<path d="M274,200.8h1.9v1.9H274v-1.9Z" class="g0_1" />
<path d="M281.4,197.4v-.9c-.1,-.4,-.3,-.7,-.7,-.7c-.7,0,-.7,.8,-.7,1.8v2c0,1.5,.2,1.8,.7,1.9c.6,0,.6,-.6,.7,-1.2v-.7h1.9v.7c0,1.7,-.8,2.6,-2.6,2.6c-1.7,0,-2.6,-.8,-2.6,-3v-2.6c0,-2.3,1.2,-2.9,2.6,-2.9c1.9,0,2.6,1.2,2.6,2.4v.6Z" class="g0_1" />
<path d="M286.6,200.1c0,1,.1,1.4,1,1.4c.8,0,.9,-.4,.9,-1.4v-2.7c0,-.8,0,-1.6,-.9,-1.6c-1,0,-1,.8,-1,1.6Zm-1.9,-1.2c0,-2.7,0,-4.5,2.9,-4.5c2.8,0,2.8,1.8,2.8,4.5c0,2.9,-.4,4.1,-2.8,4c-2.5,.1,-2.9,-1.1,-2.9,-4Z" class="g0_1" />
<path d="M294.1,195.4v0c.4,-.9,1.2,-1,1.8,-1c.7,0,1.6,.3,1.7,1c.4,-.7,1,-1,1.9,-1c1.4,0,2,.8,2,1.7v6.6h-1.9v-5.5c0,-.7,0,-1.4,-.9,-1.4c-.8,.1,-.9,.6,-.9,1.6v5.3h-1.9v-5.6c0,-.7,-.1,-1.3,-.9,-1.3c-.9,0,-.9,.7,-.9,1.6v5.3h-1.9v-8.1h1.9Z" class="g0_1" />
<path d="M224.8,225.1c-1.1,.1,-2.6,.2,-2.6,-1.3v-5.5h-.8v-1.4h.8v-2.2H224v2.2h.8v1.4H224v5c.1,.4,.6,.3,.8,.3Z" class="g0_1" />
<path d="M226,225.1V214.2h1.9v4.9c0,.4,-.1,.7,-.1,1h.1l1.7,-3.2h2.1l-2.1,3.3l2,4.9h-2.1l-1.1,-3.4l-.5,.9v2.5Z" class="g0_1" />
<path d="M236.1,220.8c-.5,.3,-1,.6,-1.5,1c-.3,.2,-.3,.6,-.3,1c0,.6,.1,1,.8,1c1.1,0,.9,-1.4,1,-2.2Zm.2,4.3c-.1,-.3,-.1,-.6,-.1,-.9c-.4,.7,-1,1.1,-1.6,1.1c-1.6,0,-2.2,-.8,-2.2,-2.5c0,-1.8,1.3,-2.3,2.8,-2.9c.8,-.3,1,-.7,.9,-1.3c-.1,-.4,-.4,-.5,-.9,-.5c-.8,0,-1,.5,-1,1.2h-1.8c0,-1.5,.5,-2.6,2.9,-2.6c2.5,0,2.7,1.3,2.7,2.4v4.8c0,.4,0,.8,.1,1.2Z" class="g0_1" />
<path d="M242.7,225.1c-1.1,.1,-2.7,.2,-2.7,-1.3v-5.5h-.7v-1.4h.7v-2.2h1.9v2.2h.8v1.4h-.8v5c.1,.4,.6,.3,.8,.3Z" class="g0_1" />
<path d="M245.8,222.4c0,1,.1,1.4,1,1.4c.9,0,.9,-.4,.9,-1.4v-2.7c0,-.8,0,-1.6,-.9,-1.6c-1,0,-1,.8,-1,1.6Zm-1.9,-1.1c0,-2.8,.1,-4.6,2.9,-4.6c2.8,0,2.8,1.8,2.8,4.6c0,2.8,-.4,4,-2.8,4c-2.5,0,-2.9,-1.2,-2.9,-4Z" class="g0_1" />
<path d="M254.4,219.7v-.9c-.1,-.4,-.3,-.7,-.7,-.7c-.7,0,-.7,.9,-.7,1.9v1.9c0,1.6,.2,1.9,.7,1.9c.6,0,.6,-.5,.7,-1.2v-.7h1.8v.7c0,1.7,-.7,2.7,-2.5,2.7c-1.7,0,-2.6,-.9,-2.6,-3.1v-2.6c0,-2.3,1.1,-2.9,2.6,-2.9c1.9,0,2.6,1.2,2.5,2.4v.6Z" class="g0_1" />
<path d="M257.8,225.1V214.2h1.9v3.6c.5,-1,1.3,-1.1,1.7,-1.1c1.1,0,1.9,.6,1.9,2.1v6.3h-1.9v-5.6c0,-.8,-.1,-1.3,-.8,-1.4c-.7,0,-.9,.7,-.9,1.5v5.5Z" class="g0_1" />
<path d="M265.3,216.9h1.9v8.2h-1.9v-8.2Zm0,-2.7h1.9v1.7h-1.9v-1.7Z" class="g0_1" />
<path d="M271.1,217.8v0c.4,-1,1.2,-1.1,1.7,-1.1c1,0,1.9,.6,1.9,2.1v6.3h-1.9v-5.5c0,-.8,-.1,-1.3,-.8,-1.3c-.7,0,-1,.6,-.9,1.5v5.3h-1.9v-8.2h1.9Z" class="g0_1" />
<path d="M295.5,172.7h7.2v.8h-3.2v9.1h-.9v-9.1h-3.1Z" class="g0_1" />
<path d="M308.5,178.9c-.3,.1,-.7,.2,-1,.3c-.4,0,-.7,.1,-1.1,.1c-.6,0,-1.1,.2,-1.5,.4c-.3,.2,-.5,.6,-.5,1.1c0,.2,0,.4,.1,.6c.1,.1,.2,.3,.4,.4c.1,.1,.3,.2,.5,.2c.1,.1,.3,.1,.5,.1c.4,0,.7,-.1,1,-.1c.3,-.1,.6,-.3,.8,-.4c.3,-.2,.5,-.4,.6,-.7c.2,-.2,.2,-.5,.2,-.9Zm-1.4,-.4c.2,0,.4,-.1,.6,-.1c.2,0,.4,-.1,.5,-.2c.2,0,.2,-.1,.3,-.3c0,-.1,0,-.3,0,-.4c0,-.4,-.1,-.8,-.4,-1c-.2,-.3,-.7,-.4,-1.3,-.4c-.3,0,-.6,0,-.8,0c-.3,.1,-.5,.2,-.7,.3c-.1,.1,-.3,.3,-.4,.5c-.1,.2,-.2,.5,-.2,.8h-.9c.1,-.5,.2,-.8,.3,-1.1c.2,-.3,.4,-.6,.7,-.7c.2,-.2,.5,-.4,.9,-.5c.3,0,.7,-.1,1.1,-.1c.3,0,.7,.1,1,.1c.3,.1,.6,.2,.8,.4c.2,.2,.4,.4,.6,.7c.1,.3,.2,.6,.2,1v3.9c0,.3,0,.5,.1,.6c.1,.1,.4,.1,.7,0v.6c0,0,-.1,0,-.3,.1c-.1,0,-.2,0,-.3,0c-.2,0,-.3,0,-.4,0c-.1,0,-.2,-.1,-.3,-.1c-.1,-.1,-.2,-.2,-.2,-.3c-.1,-.1,-.1,-.2,-.1,-.3c0,-.1,-.1,-.2,-.1,-.4c-.3,.4,-.7,.7,-1.2,.9c-.4,.2,-.9,.3,-1.4,.3c-.3,0,-.6,0,-.9,-.1c-.3,-.1,-.6,-.2,-.8,-.4c-.2,-.2,-.4,-.4,-.5,-.6c-.1,-.3,-.2,-.6,-.2,-.9c0,-1.2,.8,-2,2.5,-2.2Z" class="g0_1" />
<path d="M312.4,182.6h-.8v-7.1h.8v1.3c.2,-.5,.5,-.9,.9,-1.2c.4,-.2,.8,-.3,1.4,-.3v.9c-.4,0,-.8,.1,-1.1,.2c-.3,.2,-.6,.4,-.7,.7c-.2,.2,-.4,.5,-.4,.9c-.1,.4,-.1,.7,-.1,1.1Z" class="g0_1" />
<path d="M321.3,179.1c0,-.5,0,-.9,-.1,-1.2c-.1,-.4,-.2,-.7,-.4,-1c-.2,-.2,-.5,-.5,-.8,-.6c-.3,-.2,-.6,-.2,-1.1,-.2c-.4,0,-.8,0,-1.1,.2c-.3,.2,-.5,.4,-.7,.7c-.2,.3,-.4,.6,-.5,.9c-.1,.4,-.1,.8,-.1,1.2c0,.4,.1,.8,.2,1.2c.1,.4,.2,.7,.4,.9c.2,.3,.5,.5,.8,.7c.3,.1,.6,.2,1,.2c.5,0,.8,-.1,1.1,-.3c.3,-.1,.6,-.4,.8,-.7c.2,-.2,.3,-.6,.4,-.9c.1,-.4,.1,-.8,.1,-1.1m-2.4,3.7c-.4,0,-.9,-.1,-1.3,-.2c-.4,-.2,-.7,-.4,-1,-.7c-.3,-.3,-.5,-.7,-.7,-1.2c-.2,-.5,-.3,-1,-.3,-1.6c0,-.6,.1,-1,.2,-1.5c.2,-.5,.4,-.8,.6,-1.2c.3,-.3,.7,-.6,1.1,-.8c.4,-.2,.9,-.3,1.4,-.3c.6,0,1.1,.1,1.5,.3c.4,.2,.7,.5,1,.8c.3,.3,.5,.7,.6,1.2c.2,.5,.2,.9,.2,1.5c0,.5,-.1,1,-.2,1.5c-.2,.5,-.4,.9,-.7,1.2c-.3,.3,-.6,.6,-1,.7c-.4,.2,-.9,.3,-1.4,.3Z" class="g0_1" />
<path d="M327.7,182.6v-9.9h1v5.2l5,-5.2h1.1l-3.9,4l4.6,5.9h-1.2l-4.1,-5.4l-1.5,1.6v3.8Z" class="g0_1" />
<path d="M341.4,178.9c-.4,.1,-.7,.2,-1.1,.3c-.3,0,-.7,.1,-1,.1c-.7,0,-1.2,.2,-1.5,.4c-.4,.2,-.5,.6,-.5,1.1c0,.2,0,.4,.1,.6c.1,.1,.2,.3,.3,.4c.2,.1,.3,.2,.5,.2c.2,.1,.4,.1,.6,.1c.3,0,.6,-.1,1,-.1c.3,-.1,.5,-.3,.8,-.4c.2,-.2,.4,-.4,.6,-.7c.1,-.2,.2,-.5,.2,-.9Zm-1.4,-.4c.2,0,.3,-.1,.6,-.1c.2,0,.3,-.1,.5,-.2c.1,0,.2,-.1,.2,-.3c.1,-.1,.1,-.3,.1,-.4c0,-.4,-.1,-.8,-.4,-1c-.3,-.3,-.7,-.4,-1.4,-.4c-.3,0,-.5,0,-.8,0c-.2,.1,-.4,.2,-.6,.3c-.2,.1,-.3,.3,-.4,.5c-.1,.2,-.2,.5,-.3,.8h-.8c0,-.5,.1,-.8,.3,-1.1c.2,-.3,.4,-.6,.6,-.7c.3,-.2,.6,-.4,.9,-.5c.4,0,.7,-.1,1.1,-.1c.4,0,.7,.1,1,.1c.4,.1,.6,.2,.9,.4c.2,.2,.4,.4,.5,.7c.1,.3,.2,.6,.2,1v3.9c0,.3,.1,.5,.2,.6c.1,.1,.3,.1,.7,0v.6c-.1,0,-.2,0,-.3,.1c-.1,0,-.2,0,-.4,0c-.1,0,-.2,0,-.3,0c-.2,0,-.3,-.1,-.4,-.1c0,-.1,-.1,-.2,-.2,-.3c0,-.1,-.1,-.2,-.1,-.3c0,-.1,0,-.2,0,-.4c-.3,.4,-.7,.7,-1.2,.9c-.4,.2,-.9,.3,-1.5,.3c-.3,0,-.6,0,-.9,-.1c-.2,-.1,-.5,-.2,-.7,-.4c-.2,-.2,-.4,-.4,-.5,-.6c-.2,-.3,-.2,-.6,-.2,-.9c0,-1.2,.8,-2,2.5,-2.2Z" class="g0_1" />
<path d="M346.9,182.7c-.1,0,-.3,0,-.4,0c-.2,.1,-.4,.1,-.6,.1c-.4,0,-.7,-.1,-.9,-.3c-.2,-.2,-.3,-.6,-.3,-1.1v-5.2h-1v-.7h1v-2h.8v2h1.3v.7h-1.3v4.9c0,.1,0,.3,0,.4c0,.2,0,.3,.1,.3c0,.1,.1,.2,.2,.2c.1,.1,.2,.1,.4,.1c.1,0,.2,0,.3,-.1c.2,0,.3,0,.4,0Z" class="g0_1" />
<path d="M353.4,179.1c0,-.5,0,-.9,-.1,-1.2c-.1,-.4,-.2,-.7,-.4,-1c-.2,-.2,-.5,-.5,-.8,-.6c-.3,-.2,-.6,-.2,-1.1,-.2c-.4,0,-.8,0,-1.1,.2c-.3,.2,-.5,.4,-.7,.7c-.2,.3,-.4,.6,-.5,.9c0,.4,-.1,.8,-.1,1.2c0,.4,.1,.8,.2,1.2c.1,.4,.2,.7,.4,.9c.2,.3,.5,.5,.8,.7c.3,.1,.6,.2,1,.2c.5,0,.8,-.1,1.1,-.3c.3,-.1,.6,-.4,.8,-.7c.2,-.2,.3,-.6,.4,-.9c.1,-.4,.1,-.8,.1,-1.1m-2.4,3.7c-.4,0,-.9,-.1,-1.3,-.2c-.4,-.2,-.7,-.4,-1,-.7c-.3,-.3,-.5,-.7,-.7,-1.2c-.2,-.5,-.3,-1,-.3,-1.6c0,-.6,.1,-1,.2,-1.5c.2,-.5,.4,-.8,.7,-1.2c.2,-.3,.6,-.6,1,-.8c.4,-.2,.9,-.3,1.4,-.3c.6,0,1.1,.1,1.5,.3c.4,.2,.7,.5,1,.8c.3,.3,.5,.7,.6,1.2c.2,.5,.2,.9,.2,1.5c0,.5,0,1,-.2,1.5c-.2,.5,-.4,.9,-.7,1.2c-.3,.3,-.6,.6,-1,.7c-.4,.2,-.9,.3,-1.4,.3Z" class="g0_1" />
<path d="M169.4,138.7c-.1,-.6,-.4,-1,-.8,-1.3c-.3,-.3,-.8,-.4,-1.4,-.4c-.5,0,-.8,.1,-1.2,.3c-.3,.1,-.5,.4,-.7,.7c-.2,.3,-.4,.6,-.5,1c-.1,.4,-.1,.8,-.1,1.2c0,.4,0,.8,.1,1.2c.1,.3,.2,.7,.4,1c.2,.3,.5,.5,.8,.7c.3,.2,.7,.3,1.2,.3c.3,0,.6,-.1,.8,-.2c.3,-.1,.5,-.2,.7,-.4c.2,-.1,.4,-.4,.5,-.6c.1,-.2,.2,-.5,.3,-.8h.7c-.1,.4,-.2,.7,-.4,1c-.1,.3,-.3,.6,-.6,.8c-.2,.2,-.5,.4,-.9,.6c-.3,.1,-.7,.2,-1.2,.2c-.6,0,-1,-.1,-1.4,-.3c-.4,-.2,-.7,-.5,-1,-.9c-.2,-.3,-.4,-.7,-.5,-1.2c-.1,-.4,-.2,-.9,-.2,-1.4c0,-.7,.1,-1.3,.3,-1.7c.1,-.5,.4,-.9,.7,-1.2c.3,-.3,.6,-.5,1,-.7c.4,-.1,.9,-.2,1.3,-.2c.4,0,.7,.1,1,.2c.4,.1,.6,.2,.9,.4c.2,.2,.4,.4,.6,.7c.1,.3,.2,.6,.3,1Z" class="g1_1" />
<path d="M171.5,136.6h.6v7.2h-.6v-7.2Z" class="g1_1" />
<path d="M177.4,141.2c0,-.3,0,-.6,-.1,-.9c-.1,-.2,-.2,-.4,-.3,-.6c-.1,-.2,-.3,-.4,-.5,-.5c-.3,-.1,-.5,-.2,-.8,-.2c-.3,0,-.6,.1,-.8,.2c-.3,.1,-.4,.3,-.6,.5c-.1,.2,-.2,.4,-.3,.7c-.1,.3,-.1,.5,-.1,.8c0,.3,.1,.6,.1,.9c.1,.3,.2,.5,.4,.7c.1,.2,.3,.3,.5,.4c.2,.1,.5,.2,.8,.2c.3,0,.5,-.1,.8,-.2c.2,-.1,.4,-.3,.5,-.5c.1,-.2,.2,-.4,.3,-.7c.1,-.3,.1,-.5,.1,-.8m-1.7,2.7c-.4,0,-.7,-.1,-1,-.2c-.3,-.1,-.5,-.2,-.7,-.5c-.2,-.2,-.4,-.5,-.5,-.8c-.2,-.4,-.2,-.7,-.2,-1.2c0,-.4,0,-.7,.1,-1.1c.1,-.3,.3,-.6,.5,-.8c.2,-.3,.4,-.5,.7,-.6c.3,-.1,.7,-.2,1.1,-.2c.4,0,.7,.1,1,.2c.3,.1,.6,.3,.8,.6c.2,.2,.3,.5,.4,.8c.1,.4,.1,.7,.1,1.1c0,.4,0,.8,-.1,1.1c-.1,.3,-.3,.6,-.5,.9c-.2,.2,-.5,.4,-.8,.5c-.3,.1,-.6,.2,-.9,.2Z" class="g1_1" />
<path d="M182.6,138.6h.6v5.2h-.6v-.7q-.1,.1,-.2,.2c-.1,.1,-.3,.2,-.4,.3c-.1,.1,-.3,.2,-.4,.2c-.2,.1,-.4,.1,-.6,.1c-.4,0,-.7,0,-.9,-.1c-.2,-.1,-.4,-.3,-.6,-.4c-.1,-.2,-.2,-.4,-.3,-.6c0,-.3,-.1,-.5,-.1,-.8v-3.4h.6V142c0,.5,.1,.8,.3,1c.2,.3,.6,.4,1.1,.4c.2,0,.4,-.1,.6,-.2c.2,-.1,.4,-.2,.5,-.4c.1,-.1,.2,-.3,.3,-.6c.1,-.2,.1,-.5,.1,-.8Z" class="g1_1" />
<path d="M188.6,141.2c0,-.3,0,-.6,-.1,-.8c-.1,-.3,-.2,-.5,-.3,-.7c-.2,-.2,-.4,-.4,-.6,-.5c-.2,-.1,-.4,-.2,-.7,-.2c-.3,0,-.6,.1,-.8,.2c-.2,.1,-.4,.3,-.6,.5c-.1,.2,-.2,.5,-.3,.8c-.1,.2,-.1,.5,-.1,.9c0,.3,.1,.6,.2,.8c.1,.3,.2,.5,.3,.7c.2,.1,.4,.3,.6,.3c.2,.1,.4,.2,.7,.2c.3,0,.5,-.1,.7,-.2c.3,-.1,.4,-.3,.6,-.5c.1,-.1,.2,-.4,.3,-.6c.1,-.3,.1,-.6,.1,-.9m0,-4.6h.6v7.2h-.6v-.9c-.1,.1,-.2,.3,-.3,.4c-.2,.2,-.3,.3,-.5,.3c-.1,.1,-.3,.2,-.5,.2c-.1,.1,-.3,.1,-.5,.1c-.4,0,-.7,-.1,-1,-.2c-.3,-.1,-.6,-.3,-.8,-.6c-.1,-.2,-.3,-.5,-.4,-.8c-.1,-.4,-.1,-.7,-.1,-1.1c0,-.3,0,-.7,.1,-1c.1,-.4,.3,-.6,.5,-.9c.2,-.2,.4,-.4,.7,-.6c.3,-.1,.6,-.2,1,-.2c.4,0,.7,.1,1,.2c.4,.2,.6,.4,.8,.8Z" class="g1_1" />
<path d="M194.3,143.2h1.6c.3,0,.6,0,.8,-.1c.3,0,.6,-.1,.8,-.2c.3,-.1,.5,-.3,.6,-.5c.2,-.2,.3,-.4,.4,-.7c.1,-.2,.1,-.5,.2,-.7c0,-.3,0,-.6,0,-.8c0,-.3,0,-.5,0,-.8c0,-.3,-.1,-.5,-.2,-.8c-.1,-.2,-.2,-.4,-.4,-.6c-.1,-.2,-.3,-.4,-.6,-.5c-.2,-.1,-.5,-.2,-.7,-.2c-.3,-.1,-.6,-.1,-.9,-.1h-1.6Zm-.7,.6v-7.2H196c.2,0,.4,0,.6,0c.2,0,.4,.1,.6,.1c.2,0,.3,.1,.5,.2c.2,0,.4,.1,.5,.3c.3,.1,.5,.3,.6,.6c.2,.2,.3,.5,.4,.8c.1,.3,.1,.5,.2,.8c0,.3,0,.6,0,.8c0,.2,0,.5,0,.7c-.1,.3,-.1,.5,-.2,.7c0,.3,-.1,.5,-.2,.7c-.1,.2,-.3,.4,-.4,.6c-.2,.2,-.4,.3,-.6,.4c-.2,.2,-.4,.2,-.6,.3c-.2,.1,-.4,.1,-.7,.1c-.2,.1,-.4,.1,-.7,.1Z" class="g1_1" />
<path d="M204.4,140.8c0,-.2,-.1,-.4,-.1,-.7c-.1,-.2,-.2,-.4,-.3,-.5c-.2,-.2,-.3,-.3,-.5,-.4c-.2,-.1,-.5,-.2,-.7,-.2c-.3,0,-.5,.1,-.7,.2c-.2,.1,-.4,.2,-.6,.4c-.1,.1,-.2,.3,-.3,.6c-.1,.2,-.1,.4,-.2,.6Zm-3.4,.5c0,.3,.1,.6,.1,.8c.1,.3,.2,.5,.4,.7c.1,.2,.3,.3,.5,.4c.2,.1,.5,.2,.8,.2c.3,0,.7,-.1,1,-.3c.2,-.2,.4,-.5,.5,-.9h.7c-.1,.2,-.2,.5,-.3,.7c-.1,.2,-.3,.4,-.5,.5c-.1,.2,-.3,.3,-.6,.4c-.2,.1,-.5,.1,-.8,.1c-.5,0,-.8,-.1,-1.1,-.2c-.3,-.1,-.6,-.3,-.7,-.6c-.2,-.2,-.4,-.5,-.5,-.8c-.1,-.3,-.1,-.7,-.1,-1.1c0,-.4,0,-.7,.2,-1c.1,-.4,.2,-.7,.4,-.9c.2,-.3,.5,-.5,.8,-.6c.3,-.1,.6,-.2,1,-.2c.7,0,1.2,.2,1.6,.7c.4,.5,.6,1.2,.6,2.1Z" class="g1_1" />
<path d="M205.6,138.6h.7l1.6,4.4l1.7,-4.4h.7l-2,5.2h-.7Z" class="g1_1" />
<path d="M214.9,140.8c0,-.2,-.1,-.4,-.1,-.7c-.1,-.2,-.2,-.4,-.3,-.5c-.2,-.2,-.4,-.3,-.6,-.4c-.2,-.1,-.4,-.2,-.7,-.2c-.2,0,-.5,.1,-.7,.2c-.2,.1,-.3,.2,-.5,.4c-.1,.1,-.2,.3,-.3,.6c-.1,.2,-.2,.4,-.2,.6Zm-3.4,.5c0,.3,0,.6,.1,.8c.1,.3,.2,.5,.3,.7c.2,.2,.4,.3,.6,.4c.2,.1,.5,.2,.7,.2c.4,0,.8,-.1,1,-.3c.3,-.2,.5,-.5,.6,-.9h.7c-.1,.2,-.2,.5,-.3,.7c-.1,.2,-.3,.4,-.5,.5c-.2,.2,-.4,.3,-.6,.4c-.3,.1,-.5,.1,-.9,.1c-.4,0,-.7,-.1,-1,-.2c-.3,-.1,-.6,-.3,-.8,-.6c-.2,-.2,-.3,-.5,-.4,-.8c-.1,-.3,-.1,-.7,-.1,-1.1c0,-.4,0,-.7,.1,-1c.1,-.4,.3,-.7,.5,-.9c.2,-.3,.5,-.5,.7,-.6c.3,-.1,.7,-.2,1,-.2c.7,0,1.3,.2,1.7,.7c.4,.5,.6,1.2,.6,2.1Z" class="g1_1" />
<path d="M216.8,136.6h.5v7.2h-.5v-7.2Z" class="g1_1" />
<path d="M222.7,141.2c0,-.3,-.1,-.6,-.1,-.9c-.1,-.2,-.2,-.4,-.3,-.6c-.2,-.2,-.4,-.4,-.6,-.5c-.2,-.1,-.5,-.2,-.8,-.2c-.3,0,-.6,.1,-.8,.2c-.2,.1,-.4,.3,-.5,.5c-.2,.2,-.3,.4,-.3,.7c-.1,.3,-.1,.5,-.1,.8c0,.3,0,.6,.1,.9c.1,.3,.2,.5,.3,.7c.2,.2,.3,.3,.6,.4c.2,.1,.4,.2,.7,.2c.3,0,.6,-.1,.8,-.2c.2,-.1,.4,-.3,.6,-.5c.1,-.2,.2,-.4,.3,-.7c0,-.3,.1,-.5,.1,-.8m-1.8,2.7c-.3,0,-.6,-.1,-.9,-.2c-.3,-.1,-.6,-.2,-.8,-.5c-.2,-.2,-.4,-.5,-.5,-.8c-.1,-.4,-.2,-.7,-.2,-1.2c0,-.4,.1,-.7,.2,-1.1c.1,-.3,.2,-.6,.4,-.8c.2,-.3,.5,-.5,.8,-.6c.3,-.1,.6,-.2,1,-.2c.4,0,.8,.1,1.1,.2c.3,.1,.5,.3,.7,.6c.2,.2,.4,.5,.5,.8c0,.4,.1,.7,.1,1.1c0,.4,-.1,.8,-.2,1.1c-.1,.3,-.2,.6,-.5,.9c-.2,.2,-.4,.4,-.7,.5c-.3,.1,-.6,.2,-1,.2Z" class="g1_1" />
<path d="M225.1,141.2c0,.3,0,.6,.1,.9c.1,.2,.2,.4,.3,.6c.2,.2,.3,.4,.6,.5c.2,.1,.4,.2,.7,.2c.3,0,.6,-.1,.8,-.2c.2,-.1,.4,-.3,.6,-.5c.1,-.2,.2,-.5,.3,-.7c0,-.3,.1,-.6,.1,-1c0,-.3,-.1,-.6,-.2,-.8c-.1,-.3,-.2,-.5,-.4,-.6c-.1,-.2,-.3,-.3,-.5,-.4c-.2,-.1,-.5,-.2,-.7,-.2c-.3,0,-.5,.1,-.8,.2c-.2,.1,-.4,.3,-.5,.5c-.1,.2,-.3,.4,-.3,.7c-.1,.2,-.1,.5,-.1,.8m0,4.6h-.6v-7.2h.6v.9c.1,-.1,.2,-.3,.3,-.4c.1,-.1,.3,-.3,.5,-.3c.1,-.1,.3,-.2,.5,-.2c.1,-.1,.3,-.1,.5,-.1c.4,0,.7,.1,1,.2c.3,.1,.6,.3,.7,.6c.2,.2,.4,.5,.5,.8c0,.4,.1,.7,.1,1.1c0,.4,-.1,.7,-.2,1c0,.4,-.2,.6,-.4,.9c-.2,.2,-.4,.4,-.7,.6c-.3,.1,-.6,.2,-1,.2c-.4,0,-.7,-.1,-1.1,-.2c-.3,-.2,-.6,-.4,-.7,-.7Z" class="g1_1" />
<path d="M231,143.8h-.6v-5.2h.6v.8c.1,-.3,.4,-.5,.7,-.7c.2,-.1,.5,-.2,.9,-.2c.2,0,.4,0,.6,.1c.2,0,.3,.1,.4,.2c.1,.1,.2,.2,.3,.3c.1,.1,.1,.2,.2,.4c.2,-.4,.4,-.6,.7,-.8c.3,-.1,.6,-.2,1,-.2c.3,0,.6,.1,.8,.2c.2,.1,.4,.2,.5,.4c.1,.2,.2,.4,.2,.7c.1,.2,.1,.5,.1,.7v3.3h-.6v-3.6c0,-.3,-.1,-.6,-.3,-.9c-.1,-.2,-.4,-.3,-.8,-.3c-.2,0,-.5,.1,-.7,.2c-.2,.1,-.3,.2,-.5,.4c-.1,.1,-.1,.2,-.2,.3c0,.1,0,.3,-.1,.4c0,.1,0,.2,0,.4c0,.1,0,.2,0,.3v2.8h-.6v-3.6c0,-.3,-.1,-.6,-.3,-.9c-.1,-.2,-.4,-.3,-.8,-.3c-.2,0,-.5,.1,-.7,.2c-.2,.1,-.3,.2,-.5,.4c-.1,.1,-.1,.2,-.2,.3c0,.1,0,.3,-.1,.4c0,.1,0,.2,0,.4c0,.1,0,.2,0,.3Z" class="g1_1" />
<path d="M242.5,140.8c0,-.2,-.1,-.4,-.1,-.7c-.1,-.2,-.2,-.4,-.4,-.5c-.1,-.2,-.3,-.3,-.5,-.4c-.2,-.1,-.4,-.2,-.7,-.2c-.2,0,-.5,.1,-.7,.2c-.2,.1,-.3,.2,-.5,.4c-.1,.1,-.2,.3,-.3,.6c-.1,.2,-.2,.4,-.2,.6Zm-3.4,.5c0,.3,0,.6,.1,.8c.1,.3,.2,.5,.3,.7c.2,.2,.4,.3,.6,.4c.2,.1,.4,.2,.7,.2c.4,0,.8,-.1,1,-.3c.3,-.2,.5,-.5,.6,-.9h.7c-.1,.2,-.2,.5,-.3,.7c-.2,.2,-.3,.4,-.5,.5c-.2,.2,-.4,.3,-.6,.4c-.3,.1,-.6,.1,-.9,.1c-.4,0,-.7,-.1,-1,-.2c-.3,-.1,-.6,-.3,-.8,-.6c-.2,-.2,-.3,-.5,-.4,-.8c-.1,-.3,-.1,-.7,-.1,-1.1c0,-.4,0,-.7,.1,-1c.1,-.4,.3,-.7,.5,-.9c.2,-.3,.4,-.5,.7,-.6c.3,-.1,.7,-.2,1,-.2c.7,0,1.3,.2,1.7,.7c.4,.5,.6,1.2,.6,2.1Z" class="g1_1" />
<path d="M244.8,143.8h-.5v-5.2h.5v.7c.3,-.2,.5,-.4,.8,-.6c.2,-.1,.5,-.2,.9,-.2c.3,0,.6,0,.9,.2c.3,.1,.5,.3,.7,.5c.1,.2,.2,.4,.2,.6c0,.2,0,.4,0,.6v3.4h-.6v-3.4c0,-.4,-.1,-.8,-.3,-1c-.2,-.3,-.5,-.4,-1,-.4c-.2,0,-.3,.1,-.5,.1c-.2,.1,-.3,.1,-.4,.2c-.1,.1,-.2,.2,-.3,.4c-.1,.1,-.2,.2,-.2,.3c-.1,.2,-.1,.4,-.1,.5c0,.2,-.1,.3,-.1,.5Z" class="g1_1" />
<path d="M251.6,143.8c-.1,0,-.2,0,-.3,.1c-.1,0,-.3,0,-.4,0c-.3,0,-.5,-.1,-.7,-.2c-.1,-.2,-.2,-.4,-.2,-.8v-3.8h-.7v-.5h.7v-1.4h.6v1.4h.9v.5h-.9v3.6c0,.1,0,.2,0,.3q0,.1,0,.2q.1,.1,.2,.1c.1,.1,.2,.1,.3,.1c.1,0,.2,0,.2,0c.1,-.1,.2,-.1,.3,-.1Z" class="g1_1" />
<path d="M256.1,143.2h1.6c.3,0,.6,0,.8,-.1c.3,0,.6,-.1,.9,-.2c.2,-.1,.4,-.3,.5,-.5c.2,-.2,.3,-.4,.4,-.7c.1,-.2,.2,-.5,.2,-.7c0,-.3,0,-.6,0,-.8c0,-.3,0,-.5,0,-.8c0,-.3,-.1,-.5,-.2,-.8c-.1,-.2,-.2,-.4,-.4,-.6c-.1,-.2,-.3,-.4,-.6,-.5c-.2,-.1,-.4,-.2,-.7,-.2c-.3,-.1,-.6,-.1,-.9,-.1h-1.6Zm-.7,.6v-7.2h2.4c.2,0,.4,0,.6,0c.2,0,.4,.1,.6,.1c.2,0,.3,.1,.5,.2c.2,0,.4,.1,.5,.3c.3,.1,.5,.3,.6,.6c.2,.2,.3,.5,.4,.8c.1,.3,.1,.5,.2,.8c0,.3,0,.6,0,.8c0,.2,0,.5,0,.7c-.1,.3,-.1,.5,-.2,.7c0,.3,-.1,.5,-.2,.7c-.1,.2,-.3,.4,-.4,.6c-.2,.2,-.4,.3,-.6,.4c-.2,.2,-.4,.2,-.6,.3c-.2,.1,-.4,.1,-.7,.1c-.2,.1,-.4,.1,-.7,.1Z" class="g1_1" />
<path d="M266.2,140.8c0,-.2,0,-.4,-.1,-.7c-.1,-.2,-.2,-.4,-.3,-.5c-.2,-.2,-.3,-.3,-.5,-.4c-.2,-.1,-.5,-.2,-.7,-.2c-.3,0,-.5,.1,-.7,.2c-.2,.1,-.4,.2,-.6,.4c-.1,.1,-.2,.3,-.3,.6c-.1,.2,-.1,.4,-.2,.6Zm-3.4,.5c0,.3,.1,.6,.1,.8c.1,.3,.2,.5,.4,.7c.1,.2,.3,.3,.5,.4c.2,.1,.5,.2,.8,.2c.4,0,.7,-.1,1,-.3c.2,-.2,.4,-.5,.5,-.9h.7c-.1,.2,-.2,.5,-.3,.7c-.1,.2,-.3,.4,-.5,.5c-.1,.2,-.3,.3,-.6,.4c-.2,.1,-.5,.1,-.8,.1c-.4,0,-.8,-.1,-1.1,-.2c-.3,-.1,-.5,-.3,-.7,-.6c-.2,-.2,-.4,-.5,-.5,-.8c-.1,-.3,-.1,-.7,-.1,-1.1c0,-.4,.1,-.7,.2,-1c.1,-.4,.2,-.7,.4,-.9c.2,-.3,.5,-.5,.8,-.6c.3,-.1,.6,-.2,1,-.2c.7,0,1.2,.2,1.6,.7c.4,.5,.6,1.2,.6,2.1Z" class="g1_1" />
<path d="M268.7,141.2c0,.3,0,.6,.1,.9c0,.2,.2,.4,.3,.6c.2,.2,.3,.4,.6,.5c.2,.1,.4,.2,.7,.2c.3,0,.6,-.1,.8,-.2c.2,-.1,.4,-.3,.5,-.5c.2,-.2,.3,-.5,.4,-.7c0,-.3,.1,-.6,0,-1c0,-.3,0,-.6,-.1,-.8c-.1,-.3,-.2,-.5,-.4,-.6c-.1,-.2,-.3,-.3,-.5,-.4c-.2,-.1,-.5,-.2,-.7,-.2c-.3,0,-.5,.1,-.8,.2c-.2,.1,-.4,.3,-.5,.5c-.1,.2,-.3,.4,-.3,.7c-.1,.2,-.1,.5,-.1,.8m0,4.6h-.6v-7.2h.6v.9c.1,-.1,.2,-.3,.3,-.4c.1,-.1,.3,-.3,.4,-.3c.2,-.1,.4,-.2,.6,-.2c.1,-.1,.3,-.1,.5,-.1c.4,0,.7,.1,1,.2c.3,.1,.6,.3,.7,.6c.2,.2,.4,.5,.5,.8c0,.4,.1,.7,.1,1.1c0,.4,-.1,.7,-.2,1c-.1,.4,-.2,.6,-.4,.9c-.2,.2,-.4,.4,-.7,.6c-.3,.1,-.6,.2,-1,.2c-.4,0,-.7,-.1,-1.1,-.2c-.3,-.2,-.6,-.4,-.7,-.7Z" class="g1_1" />
<path d="M275.9,143.8c-.1,0,-.2,0,-.3,.1c-.1,0,-.3,0,-.4,0c-.3,0,-.5,-.1,-.7,-.2c-.2,-.2,-.2,-.4,-.2,-.8v-3.8h-.8v-.5h.8v-1.4h.6v1.4h.9v.5h-.9v3.6c0,.1,0,.2,0,.3q0,.1,0,.2q.1,.1,.2,.1q.1,.1,.3,.1q.1,0,.2,0c.1,-.1,.2,-.1,.3,-.1Z" class="g1_1" />
<path d="M277.1,142.9h.7v.9h-.7v-.9Z" class="g1_1" />
<path d="M283.5,141h2.8l-1.4,-3.8Zm-1.7,2.8l2.8,-7.2h.7l2.8,7.2h-.7l-.8,-2.3h-3.3l-.8,2.3Z" class="g1_1" />
<path d="M289.6,143.8H289v-5.2h.6v1c.2,-.4,.4,-.7,.6,-.9c.3,-.1,.7,-.2,1.1,-.2v.6c-.4,0,-.6,.1,-.9,.2c-.2,.1,-.3,.3,-.5,.5c-.1,.1,-.2,.4,-.2,.6c-.1,.3,-.1,.6,-.1,.9Z" class="g1_1" />
<path d="M295.9,140.2c-.1,-.3,-.3,-.6,-.5,-.8c-.3,-.3,-.6,-.4,-1,-.4c-.3,0,-.6,.1,-.8,.2c-.2,.1,-.4,.3,-.5,.5c-.2,.2,-.3,.5,-.3,.7c-.1,.3,-.1,.5,-.1,.8c0,.3,0,.5,0,.8c.1,.3,.2,.5,.4,.7c.1,.2,.3,.4,.5,.5c.2,.1,.5,.2,.8,.2c.4,0,.8,-.1,1,-.4c.3,-.2,.5,-.6,.6,-1h.6c-.1,.3,-.1,.5,-.3,.8c-.1,.2,-.2,.4,-.4,.6c-.2,.2,-.4,.3,-.7,.4c-.2,.1,-.5,.1,-.8,.1c-.4,0,-.8,-.1,-1.1,-.2c-.3,-.1,-.5,-.3,-.7,-.6c-.2,-.2,-.3,-.5,-.4,-.8c-.1,-.4,-.2,-.7,-.2,-1.1c0,-.3,.1,-.7,.2,-1c.1,-.3,.2,-.6,.4,-.9c.2,-.2,.5,-.4,.8,-.6c.3,-.1,.6,-.2,1,-.2c.6,0,1.1,.1,1.4,.4c.4,.3,.6,.7,.7,1.3Z" class="g1_1" />
<path d="M297.8,143.8v-7.2h.6v2.7c.2,-.2,.5,-.4,.7,-.6c.3,-.1,.6,-.2,.9,-.2c.4,0,.7,0,.9,.2c.3,.1,.5,.3,.7,.5c.1,.2,.2,.4,.2,.6c.1,.2,.1,.4,.1,.6v3.4h-.6v-3.4c0,-.4,-.1,-.8,-.3,-1c-.2,-.3,-.6,-.4,-1.1,-.4c-.1,0,-.3,.1,-.5,.1c-.1,.1,-.3,.1,-.4,.2c-.1,.1,-.2,.2,-.3,.4c-.1,.1,-.1,.2,-.2,.3c0,.2,-.1,.4,-.1,.5c0,.2,0,.3,0,.5v2.8Z" class="g1_1" />
<path d="M303.4,138.6h.6v5.2h-.6v-5.2Zm0,-2h.6v.9h-.6v-.9Z" class="g1_1" />
<path d="M307.3,143.8q-.1,0,-.3,.1c-.1,0,-.2,0,-.4,0c-.3,0,-.5,-.1,-.6,-.2c-.2,-.2,-.3,-.4,-.3,-.8v-3.8H305v-.5h.7v-1.4h.6v1.4h1v.5h-1v3.6c0,.1,0,.2,0,.3c0,.1,.1,.1,.1,.2c0,.1,.1,.1,.1,.1c.1,.1,.2,.1,.3,.1c.1,0,.2,0,.3,0q.1,-.1,.2,-.1Z" class="g1_1" />
<path d="M312,140.8c0,-.2,0,-.4,-.1,-.7c-.1,-.2,-.2,-.4,-.3,-.5c-.1,-.2,-.3,-.3,-.5,-.4c-.2,-.1,-.5,-.2,-.7,-.2c-.3,0,-.5,.1,-.7,.2c-.2,.1,-.4,.2,-.5,.4c-.2,.1,-.3,.3,-.4,.6c-.1,.2,-.1,.4,-.2,.6Zm-3.4,.5c0,.3,.1,.6,.2,.8c0,.3,.1,.5,.3,.7c.1,.2,.3,.3,.5,.4c.2,.1,.5,.2,.8,.2c.4,0,.7,-.1,1,-.3c.3,-.2,.4,-.5,.5,-.9h.7c-.1,.2,-.2,.5,-.3,.7c-.1,.2,-.3,.4,-.4,.5c-.2,.2,-.4,.3,-.7,.4c-.2,.1,-.5,.1,-.8,.1c-.4,0,-.8,-.1,-1.1,-.2c-.3,-.1,-.5,-.3,-.7,-.6c-.2,-.2,-.4,-.5,-.5,-.8c0,-.3,-.1,-.7,-.1,-1.1c0,-.4,.1,-.7,.2,-1c.1,-.4,.2,-.7,.4,-.9c.2,-.3,.5,-.5,.8,-.6c.3,-.1,.6,-.2,1,-.2c.7,0,1.2,.2,1.6,.7c.4,.5,.6,1.2,.6,2.1Z" class="g1_1" />
<path d="M317.4,140.2c-.1,-.3,-.2,-.6,-.5,-.8c-.3,-.3,-.6,-.4,-1,-.4c-.3,0,-.6,.1,-.8,.2c-.2,.1,-.4,.3,-.5,.5c-.2,.2,-.3,.5,-.3,.7c-.1,.3,-.1,.5,-.1,.8c0,.3,0,.5,.1,.8c0,.3,.1,.5,.3,.7c.1,.2,.3,.4,.5,.5c.2,.1,.5,.2,.8,.2c.5,0,.8,-.1,1.1,-.4c.2,-.2,.4,-.6,.5,-1h.6c0,.3,-.1,.5,-.2,.8c-.1,.2,-.3,.4,-.5,.6c-.2,.2,-.4,.3,-.6,.4c-.3,.1,-.6,.1,-.9,.1c-.4,0,-.8,-.1,-1.1,-.2c-.3,-.1,-.5,-.3,-.7,-.6c-.2,-.2,-.3,-.5,-.4,-.8c-.1,-.4,-.2,-.7,-.2,-1.1c0,-.3,.1,-.7,.2,-1c.1,-.3,.3,-.6,.5,-.9c.2,-.2,.4,-.4,.7,-.6c.3,-.1,.6,-.2,1,-.2c.6,0,1.1,.1,1.5,.4c.3,.3,.6,.7,.6,1.3Z" class="g1_1" />
<path d="M321.1,143.8c0,0,-.1,0,-.3,.1c-.1,0,-.2,0,-.4,0c-.3,0,-.5,-.1,-.6,-.2c-.2,-.2,-.3,-.4,-.3,-.8v-3.8h-.7v-.5h.7v-1.4h.6v1.4h1v.5h-1v3.6c0,.1,0,.2,0,.3c0,.1,.1,.1,.1,.2c0,.1,.1,.1,.1,.1c.1,.1,.2,.1,.3,.1c.1,0,.2,0,.3,0q.1,-.1,.2,-.1Z" class="g1_1" />
<path d="M186.7,162.1h-3.8v14.4h3.8V162.1ZM182.9,180v2.2h-3.7V158.3h11.1v23.6h-3.6V180ZM167.8,155l4,.2c.3,0,.6,.1,.6,.4c0,.4,-.4,.5,-.8,.7v4.1h6c-.2,12.9,-.3,17,-1.6,19.6c-.8,1.6,-2.3,2.5,-4.8,2.5c-.3,0,-.5,0,-.8,-.1c0,-1.3,-.5,-2.6,-1.1,-3.7c1.1,.2,1.8,.3,2.2,.3c1.1,0,1.6,-.6,1.8,-1.9c.6,-2.7,.8,-6.3,.9,-13.1h-2.6c-.4,5.6,-.5,6.3,-1.1,8.7c-.9,3.4,-2.4,6.7,-4.4,9.4c-1,-.7,-2.9,-1.7,-3.4,-1.9c4.2,-5.2,5,-11.7,5.1,-16.2h-4v-3.6h4Z" class="g0_1" />
<path d="M217.9,173.8c.2,.2,.3,.3,.3,.5c0,.1,-.3,.2,-.4,.2q-.1,0,-.3,0c-1.2,1,-1.3,1.2,-2,1.6c-.5,-.6,-1.5,-1.5,-1.9,-1.9c.7,-.6,1.7,-1.5,2.2,-2.3Zm-4.3,-6c-.2,-.4,-.3,-.8,-.5,-1.2h-1.6c-.3,.6,-.5,.9,-.6,1.2Zm1.3,8.2c1.2,.6,3.5,1.9,4.9,3.3c-.8,.7,-1.3,1.3,-1.8,2.2c-1.3,-1.4,-3.5,-2.8,-4.5,-3.3v2c0,2.1,-1.6,2.4,-4.5,2.4c-.1,-1.1,-.3,-1.7,-.8,-2.9c.3,0,.6,0,1.1,0c1.1,0,1.1,-.3,1.1,-1.1v-7.9l3.1,.3c.4,.1,.7,.1,.7,.4c0,.3,-.4,.5,-.7,.6v5.9Zm-6.7,-3.9c1.4,1.8,1.6,2,1.9,2.5c-.7,.4,-1.4,1.1,-2.2,1.9c-.6,-.9,-.8,-1.1,-1.9,-2.3Zm-4.1,6.1c2,-.6,3.2,-1.1,5.4,-2.3c.1,.8,.2,1.5,.7,2.3c-1,.7,-1.3,.9,-4.1,2.5c0,.2,-.1,.6,-.5,.6c-.3,0,-.4,-.3,-.5,-.6Zm-3.6,-8.5h-2.3v2.2h2.3v-2.2Zm0,-5h-2.3v2.2h2.3v-2.2Zm20.2,3.1v2.5h-1.8c.1,.2,1.1,1.1,2.7,2.1c-.9,.6,-1.7,2,-2,2.3c-2.1,-1.5,-3.9,-3.4,-4.6,-4.4h-5.7c-1.4,1.8,-2.6,2.9,-4.2,4c-.5,-.7,-1.3,-1.7,-1.7,-2.1v7.5c0,1.8,-.6,2.8,-4.1,2.7c-.2,-1.6,-.6,-2.4,-1.1,-3.4c.3,.1,1,.2,1.5,.2c.8,0,.8,-.3,.8,-1v-3.5h-2.4c-.5,4.7,-1.5,6.7,-2.1,7.8c-.9,-.8,-2.5,-1.3,-2.8,-1.4c1.6,-3.3,2.1,-4.9,2.1,-11.7V162h8.1v9.8c1,-.5,1.6,-1,2.2,-1.5h-1.7v-2.5h3.9c.3,-.6,.5,-.9,.7,-1.2h-3.6V164h1.9c-.7,-1,-1.1,-1.4,-1.4,-1.8l2.4,-1.5c.7,.9,1.2,1.5,1.8,2.5c-.6,.2,-1.4,.7,-1.6,.8h1.5c.3,-.9,.6,-1.9,.7,-2.9H210v-1.2h-5.5v1.2h-3.4v-1.2h-7.5v-2.8h7.5V155l3.4,.2c.3,.1,.8,.1,.8,.4c0,.4,-.4,.5,-.8,.6v.9H210v-2l3.3,.2c.2,0,.7,0,.7,.3c0,.4,-.4,.5,-.8,.7v.8h7.7v2.8h-7.7v1.2H211l2.1,.5c.3,.1,.5,.2,.5,.4c0,.3,-.3,.4,-.6,.5c-.1,.4,-.1,.5,-.4,1.5h2.7c-.2,-.2,-.8,-.4,-1.4,-.6c.4,-.6,1.3,-1.9,1.6,-2.7l2.7,1.1c.1,.1,.5,.3,.5,.5c0,.4,-.6,.4,-.9,.4c-.2,.3,-.7,1,-.9,1.3h2.4v2.6h-3.2c.1,.4,.4,.9,.6,1.2Z" class="g0_1" />
<path d="M246.3,175c1.3,1,4,3.5,5.1,5.1c-.4,.3,-2.3,1.9,-2.9,2.5c-1,-1.4,-3.3,-3.9,-4.8,-5Zm14.2,-13.8v3.6H249.2c1,6.2,6.5,11.9,12,14.6c-1.4,1.2,-2.2,2.4,-2.7,3.2c-1.2,-.7,-4.2,-2.5,-7,-5.9C250,175,247.9,171.9,247,169.6c-1.7,5,-6.2,10.2,-11.3,12.9c-1.2,-1.7,-1.8,-2.3,-3,-3c4.8,-2.1,10.5,-7,11.8,-14.7H233.3v-3.6h11.5c.1,-.1,.1,-.6,.1,-.9v-5.1l4.2,.2c.3,.1,.6,.1,.6,.4q0,.3,-.8,.6v3.9c0,.4,0,.6,0,.9Z" class="g0_1" />
<path d="M286,165.4h-4.8v3.5H286v-3.5Zm-4.8,-3H286V159h-4.8v3.4Zm-8.4,2.6H268v1.9h4.8V165ZM268,162.6h4.8v-1.7H268v1.7Zm9.7,-6.7h11.7v23c0,2.3,-.8,3.4,-4.5,3.4c-.5,0,-.9,0,-1.4,0c-.3,-1.8,-.6,-2.6,-1.2,-3.7c.5,0,1.3,.2,2.3,.2c1.2,0,1.4,-.3,1.4,-1.4V172h-5c-.3,3.5,-1.3,7.2,-4.2,10.5c-1.5,-.9,-1.9,-1.2,-3.2,-1.6c.6,-.6,1.4,-1.3,2,-2.5c-.7,.4,-1.5,.8,-2.2,1.3c-.3,-.9,-.5,-1.4,-.8,-2.1c-1.9,.9,-6.7,2.5,-8.3,3c0,.3,-.2,.9,-.5,.9c-.3,0,-.4,-.4,-.4,-.6l-.8,-3.5c1.2,-.3,1.7,-.4,2.2,-.5V158.3h3.8v-3l3.7,.2c.3,0,.6,0,.6,.4c0,.2,-.2,.3,-.8,.6v1.8h4v11.2H268v6.4c1.6,-.6,2.5,-.9,3.3,-1.2c-.7,-1.2,-1.1,-1.8,-1.5,-2.4l3,-1.4c1.3,1.6,3,5.3,3.4,6.2c.8,-1.9,1.5,-4.8,1.5,-9Z" class="g0_1" />
<path d="M171.9,124c-1.1,2.5,-2.5,5.8,-6.7,7.5c-.1,-.2,-.2,-.4,-.7,-.8c2,-.8,4.8,-2.2,6.3,-6.9h-3.9c-1,1.7,-2.4,2.9,-2.9,3.3c-.2,-.2,-.5,-.5,-.7,-.7c1.8,-1.4,3.2,-3.3,3.9,-5.3l1,.4c0,0,.2,0,.2,.1c0,.2,-.2,.2,-.3,.2c-.3,.6,-.4,.8,-.6,1.1h3.4c.4,0,.6,-.1,.8,-.2l.6,.6c-.3,.3,-.3,.5,-.4,.7Z" class="g0_1" />
<path d="M181.2,122.6h-6.6v-.9h6.6v.9Zm-.3,1.8c.4,0,.7,0,1,-.1l.7,.5c-.2,.2,-.7,1.4,-.8,1.6c-1.3,2.5,-2.5,3.8,-5.8,5q-.3,-.4,-.7,-.9c2.8,-.7,4.7,-2,5.8,-5.1h-7.8v-1Z" class="g0_1" />
<path d="M192.4,125.2c-.4,1.5,-1.5,4.8,-5.1,6.2c-.2,-.3,-.4,-.5,-.7,-.7c1.4,-.5,2.7,-1.5,3.5,-2.6c.7,-1,1.2,-2.4,1.5,-4.2H185v3h-1.1V123h3.8v-1.9l1.1,.1c.2,0,.2,.1,.2,.1c0,.2,-.2,.2,-.2,.2V123h2.6c.4,0,.6,0,.9,-.1l.6,.4c-.1,.3,-.4,1.6,-.5,1.9Z" class="g0_1" />
<path d="M201.1,123.2c-.6,-.6,-1.1,-1,-1.3,-1.1l.6,-.5c.2,.2,.8,.7,1.2,1.1c-.2,.2,-.4,.3,-.5,.5m-1,.9c-.4,-.4,-.8,-.8,-1.2,-1.2l.5,-.5c.5,.4,1,.9,1.3,1.2c-.3,.1,-.4,.3,-.6,.5M200,128c-1.1,-1.1,-2.5,-2.1,-4.2,-2.9v6h-1.1v-9.9l1.1,.1c.1,0,.2,0,.2,.1c0,.1,-.2,.2,-.2,.2v3.2l.4,-.6c1,.5,2.8,1.4,4.4,3c-.3,.3,-.5,.7,-.6,.8Z" class="g0_1" />
<path d="M211,123.4h-2.4v.7H211v-.7Zm0,-1.4h-2.4v.7H211V122Zm-1.1,9.4c0,-.4,-.2,-.6,-.4,-1c.2,.1,.4,.1,.8,.1c.5,0,.7,-.1,.7,-.6v-5.1h-3.3v-3.5h4.2v8.5c0,1.4,-.4,1.6,-2,1.6m-2.1,-4.9h-1.3q0,.8,0,1.1h1.3Zm.9,1.9v2.7h-.9v-2.7h-1.4c-.2,1.8,-1.4,2.6,-1.8,2.9c-.2,-.3,-.4,-.4,-.7,-.6c.9,-.5,1.5,-1.2,1.7,-2.3h-1.5v-.8h1.5c.1,-.2,.1,-.3,.1,-1.1h-1.3v-.8h5.5v.8h-1.2v1.1h1.5v.8Zm-3.1,-5.1h-2.3v.8h2.3v-.8Zm0,-1.3h-2.3v.7h2.3V122Zm-2.3,2.8v6.6h-.9V121.3h4.1v3.5Z" class="g0_1" />
<path d="M219.2,125.4h-1.5v.9c0,.3,0,.5,0,.7h1.5Zm4,.8c-.9,-.5,-1.3,-.8,-2,-1.4v.6h-1.1V127h2.6v.9h-2.6v1.8c0,.5,.1,.6,.8,.6h.8c.6,0,1,0,1.2,-1.5c.2,.2,.4,.4,.8,.5c-.4,1.7,-.7,1.8,-2,1.8h-1.1c-1.4,0,-1.4,-.6,-1.4,-1.3v-1.9h-1.6c-.5,2.4,-2.5,3.3,-3.5,3.5c-.2,-.3,-.3,-.5,-.6,-.8c1.6,-.3,2.9,-1.3,3.2,-2.7h-2.3V127h2.4c0,-.2,0,-.4,0,-.6v-1h-.9v-.5c-.8,.6,-1.4,1,-2.2,1.5c-.3,-.4,-.5,-.6,-.7,-.7c.9,-.4,1.8,-1,2.1,-1.3c-.2,-.2,-.9,-.8,-1.3,-1.1l.6,-.6c.5,.4,1,.8,1.3,1.1c.4,-.4,.9,-.9,1.2,-1.4h-3v-.8h3.9l.3,.4c-.4,1,-1.1,1.8,-1.9,2.5h4.7c-1.4,-1.3,-2.1,-2.6,-2.4,-3.1l.7,-.4c.3,.4,.5,.8,.9,1.3c.2,-.1,.7,-.7,1.1,-1.3l.6,.5c.1,.1,.2,.1,.2,.2c0,.1,-.2,.1,-.4,.1q-.3,.4,-1.1,1.1c.4,.5,.6,.6,.8,.8c.3,-.3,.8,-.8,1.2,-1.4l.7,.5c.1,0,.2,.1,.2,.1c0,.2,-.2,.2,-.4,.1c-.4,.5,-.4,.6,-1.1,1.2c1,.8,1.6,1.1,1.9,1.2c-.3,.3,-.4,.4,-.6,.8Z" class="g0_1" />
<path d="M234.9,122c-.3,.7,-.7,1.5,-1.5,3.1c.5,.5,1.6,1.5,1.6,3c0,1.9,-1.5,2.1,-2.4,2.1c-.2,-.6,-.4,-.8,-.6,-1c.2,0,.5,0,.8,0c.5,0,1.2,-.1,1.2,-1.1c0,-1.2,-.9,-2.3,-1.6,-2.9c.5,-.8,1.1,-2.2,1.3,-2.9h-2v9.1h-.9v-9.9h3.6Zm-8.7,7.9h2.4v-2.2h-2.4v2.2Zm-.1,-6.7c.4,.7,.6,1.2,.8,1.8l-.8,.3c-.2,-.7,-.4,-1.1,-.8,-1.8Zm3.5,8.2h-1v-.7h-2.4v.7h-1v-4.5h4.4Zm.5,-9.2v.8h-5.3v-.8h2.1v-1.3h1c.1,.1,.3,.1,.3,.2c0,.1,-.1,.1,-.3,.2v.9Zm.2,3.2v.8h-5.8v-.8h3.2c.2,-.5,.6,-1.4,.8,-2.2l1,.3c0,.1,.1,.1,.1,.2c0,.1,-.1,.1,-.3,.1c-.2,.6,-.6,1.3,-.7,1.6Z" class="g0_1" />
<path d="M245.1,124.6c-.1,1.8,-.2,4.8,-3.6,6.7c-.4,-.3,-.5,-.4,-.9,-.7c2.6,-1.3,3.6,-3.1,3.4,-6.4l1.1,.1c.1,0,.2,0,.2,.1c0,.1,-.1,.2,-.2,.2m4.3,-1.2c-1.3,1.9,-2.6,3,-3.5,3.6c-.2,-.2,-.4,-.5,-.7,-.7c1.9,-1.3,2.5,-2.2,3.1,-3h-8.4v-1h8.6c.2,0,.4,0,.6,-.1l.7,.6c-.1,.2,-.2,.2,-.4,.6Z" class="g0_1" />
<path d="M250.8,125.7h9.8v1h-9.8v-1Z" class="g0_1" />
<path d="M267.3,127.2l.5,3.9l-1,.1l-.5,-3.9l-4.4,.6l-.1,-1l4.3,-.5l-.3,-2.2l-3.2,.5l-.1,-1l3.2,-.4l-.3,-2l1,-.2c.1,0,.2,0,.2,.2c0,0,0,.1,-.1,.2l.2,1.7l3,-.4l.2,.9l-3.1,.4l.3,2.2l4.2,-.6l.1,1Z" class="g0_1" />
<path d="M274.1,121.7h6.5v.9h-6.5v-.9Zm4,4c0,1.3,-.1,4.2,-3.9,5.5c-.2,-.3,-.4,-.5,-.8,-.8c3.3,-.9,3.7,-2.9,3.7,-4.7h-4.6v-.9h9.7v.9Z" class="g0_1" />
<path d="M291.7,124c-1.1,2.5,-2.5,5.8,-6.7,7.5c-.1,-.2,-.2,-.4,-.7,-.8c2,-.8,4.8,-2.2,6.3,-6.9h-3.8c-1.1,1.7,-2.5,2.9,-3,3.3c-.2,-.2,-.5,-.5,-.7,-.7c1.8,-1.4,3.2,-3.3,4,-5.3l.9,.4c.1,0,.2,0,.2,.1c0,.2,-.2,.2,-.3,.2c-.3,.6,-.4,.8,-.6,1.1h3.4c.4,0,.6,-.1,.8,-.2l.6,.6c-.2,.3,-.3,.5,-.4,.7Z" class="g0_1" />
<path d="M298.9,128c-1.1,-1.1,-2.5,-2.1,-4.3,-2.9v6h-1v-9.9l1,.1q.2,0,.2,.1c0,.1,-.1,.2,-.2,.2v3.2l.5,-.6c1,.5,2.7,1.4,4.4,2.9c-.3,.4,-.6,.8,-.6,.9Z" class="g0_1" />
<path d="M97.2,37.7l.4,5.4h-.5c-.4,-1.3,-1,-2.4,-1.7,-3c-1,-1,-2.3,-1.5,-3.9,-1.5c-2.1,0,-3.8,.8,-4.9,2.5c-1,1.5,-1.4,3.2,-1.4,5.2c0,1.6,.3,3.1,.9,4.4c.6,1.4,1.5,2.3,2.5,3c1,.6,2.1,.9,3.1,.9c.7,0,1.3,-.1,1.9,-.2c.5,-.2,1.1,-.4,1.6,-.7V48.8c0,-.8,0,-1.4,-.2,-1.7c-.1,-.3,-.3,-.5,-.6,-.6c-.2,-.2,-.7,-.2,-1.4,-.2v-.5h6.6v.5h-.3c-.7,0,-1.1,.2,-1.4,.6c-.1,.4,-.2,1,-.2,1.9V54c-1,.5,-1.9,.9,-2.9,1.1c-.9,.2,-2,.4,-3.1,.4c-3.3,0,-5.8,-1.1,-7.5,-3.2C82.9,50.7,82.3,48.9,82.3,46.9c0,-1.5,.4,-3,1.1,-4.4c.8,-1.6,2,-2.8,3.5,-3.7c1.3,-.7,2.7,-1.1,4.4,-1.1c.7,0,1.2,.1,1.7,.2c.5,.1,1.3,.3,2.2,.6c.5,.2,.8,.3,.9,.3c.2,0,.3,-.1,.4,-.2c.2,-.2,.2,-.5,.3,-.9Z" class="g0_1" />
<path d="M104.6,37.2V52.5c0,.7,.1,1.2,.2,1.4c.1,.3,.3,.4,.5,.6c.2,.1,.6,.1,1.2,.1v.5h-5.6v-.5c.5,0,.8,0,1,-.1c.2,-.1,.4,-.3,.5,-.6c.1,-.2,.2,-.7,.2,-1.4V42c0,-1.2,-.1,-2,-.1,-2.3c-.1,-.3,-.2,-.5,-.3,-.7c-.1,-.1,-.3,-.1,-.5,-.1c-.2,0,-.5,.1,-.8,.2l-.2,-.5l3.4,-1.4Z" class="g0_1" />
<path d="M117.9,43.6v7c0,1.3,0,2.1,.1,2.4c0,.3,.1,.5,.3,.6c.1,.1,.3,.2,.5,.2c.2,0,.5,-.1,.8,-.2l.2,.4l-3.4,1.4h-.6V53c-1,1.1,-1.7,1.8,-2.3,2c-.5,.3,-1,.4,-1.6,.4c-.6,0,-1.2,-.2,-1.6,-.5c-.5,-.4,-.8,-.9,-1,-1.5c-.2,-.6,-.3,-1.4,-.3,-2.5V45.8c0,-.5,-.1,-.9,-.2,-1.1c-.1,-.2,-.3,-.4,-.5,-.5c-.2,-.1,-.7,-.2,-1.3,-.1v-.5h4.1v7.7c0,1.1,.2,1.8,.5,2.1c.4,.4,.8,.5,1.4,.5c.3,0,.7,-.1,1.2,-.3c.4,-.2,1,-.7,1.6,-1.3V45.8c0,-.7,-.1,-1.1,-.4,-1.4c-.2,-.2,-.7,-.3,-1.4,-.3v-.5Z" class="g0_1" />
<path d="M130.5,47.9c0,-1.4,-.4,-2.5,-1.2,-3.4c-.8,-.8,-1.9,-1.2,-3.2,-1.2c-1.5,0,-2.8,.5,-3.8,1.6c-1,1.1,-1.5,2.6,-1.5,4.6c0,1.8,.5,3.2,1.5,4.3c1,1.1,2.1,1.6,3.5,1.6c1.3,0,2.4,-.4,3.2,-1.4c.8,-.9,1.4,-2,1.5,-3.2l-.3,-.2c-.4,1,-.9,1.7,-1.4,2.1c-.6,.4,-1.2,.6,-2,.6c-1.1,0,-2.1,-.4,-2.9,-1.4c-.9,-1,-1.3,-2.3,-1.3,-4Zm-6.9,-3c.5,-.5,1.2,-.8,1.8,-.8c.5,0,.9,.2,1.3,.4c.5,.3,.8,.7,1,1.1c.1,.3,.2,.9,.2,1.6h-5.3c.1,-1,.4,-1.7,1,-2.3Z" class="g0_1" />
<path d="M139.4,55.4c1.3,0,2.2,.1,2.6,.3c.4,.2,.6,.5,.6,1c0,.6,-.3,1.1,-1,1.6c-.8,.6,-1.9,.8,-3.4,.8c-1.5,0,-2.7,-.2,-3.6,-.7c-.4,-.3,-.7,-.7,-.7,-1.1c0,-.3,.1,-.6,.3,-1c.2,-.4,.5,-.8,.8,-1.2c1.1,.1,2.5,.2,4.4,.3m-5.9,-2.8c-.2,.4,-.3,.7,-.3,1c0,.3,.1,.5,.2,.7c.2,.2,.5,.4,1,.7c-.8,.8,-1.2,1.3,-1.3,1.4c-.4,.5,-.7,.9,-.8,1.2c-.1,.2,-.2,.4,-.2,.6c0,.5,.3,.9,1,1.4c1.1,.7,2.4,1,4,1c2.1,0,3.8,-.6,5.1,-1.8c.9,-.8,1.3,-1.7,1.3,-2.7c0,-.6,-.2,-1.2,-.7,-1.7c-.4,-.5,-1.1,-.7,-1.8,-.9c-.5,0,-1.7,-.1,-3.4,-.1c-.9,-.1,-1.5,-.1,-1.7,-.1c-.4,-.1,-.7,-.2,-.9,-.3c-.1,-.2,-.2,-.3,-.2,-.4c0,-.2,.1,-.4,.2,-.6c.2,-.3,.4,-.5,.8,-.8c.6,.1,1.2,.2,1.7,.2c1.4,0,2.5,-.4,3.3,-1.1c.9,-.8,1.3,-1.7,1.3,-2.8c0,-.9,-.3,-1.7,-.7,-2.3h1.5c.3,0,.5,0,.6,0q.1,-.1,.1,-.1c.1,-.1,.1,-.3,.1,-.5c0,-.2,0,-.3,-.1,-.4q0,-.1,-.1,-.1c-.1,0,-.3,0,-.6,0h-2.5c-.8,-.6,-1.7,-.8,-2.8,-.8c-1.4,0,-2.5,.4,-3.3,1.2c-.9,.8,-1.3,1.8,-1.3,2.9c0,.8,.2,1.5,.6,2.1c.3,.6,.9,1.1,1.6,1.4c-.9,.7,-1.4,1.3,-1.7,1.7M139,44.7c.6,.8,.9,1.8,.9,3.1c0,1.1,-.3,1.8,-.7,2.3c-.4,.4,-.9,.7,-1.5,.7c-.7,0,-1.2,-.3,-1.7,-.8c-.5,-.8,-.8,-1.8,-.8,-3.1c0,-1,.2,-1.8,.6,-2.3c.4,-.5,.9,-.7,1.5,-.7c.7,0,1.3,.3,1.7,.8Z" class="g0_1" />
<path d="M154.8,47.9c0,-1.4,-.4,-2.5,-1.3,-3.4c-.8,-.8,-1.8,-1.2,-3.1,-1.2c-1.6,0,-2.8,.5,-3.8,1.6c-1,1.1,-1.5,2.6,-1.5,4.6c0,1.8,.4,3.2,1.4,4.3c1,1.1,2.2,1.6,3.6,1.6c1.3,0,2.3,-.4,3.2,-1.4c.8,-.9,1.3,-2,1.5,-3.2l-.4,-.2c-.4,1,-.8,1.7,-1.4,2.1c-.5,.4,-1.2,.6,-1.9,.6c-1.2,0,-2.1,-.4,-3,-1.4c-.8,-1,-1.2,-2.3,-1.2,-4Zm-7,-3c.6,-.5,1.2,-.8,1.9,-.8c.5,0,.9,.2,1.3,.4c.4,.3,.7,.7,.9,1.1c.2,.3,.3,.9,.3,1.6h-5.3c.1,-1,.4,-1.7,.9,-2.3Z" class="g0_1" />
<path d="M159.7,45.7c1.4,-1.6,2.6,-2.4,3.9,-2.4c.6,0,1.1,.1,1.6,.4c.4,.3,.8,.9,1.1,1.6c.1,.5,.2,1.3,.2,2.3v4.9c0,.7,.1,1.2,.2,1.5c.1,.2,.2,.3,.4,.5c.2,.1,.6,.1,1.1,.1v.5h-5.6v-.5h.2c.6,0,.9,0,1.1,-.2c.3,-.2,.4,-.4,.5,-.7c0,-.2,0,-.5,0,-1.2V47.8c0,-1.1,-.1,-1.8,-.4,-2.3c-.2,-.5,-.7,-.7,-1.3,-.7c-1,0,-2,.5,-3,1.6v6.1c0,.8,.1,1.3,.2,1.4c.1,.3,.2,.4,.4,.6c.2,.1,.7,.1,1.3,.1v.5h-5.7v-.5h.3c.5,0,.9,-.1,1.1,-.4c.2,-.3,.3,-.9,.3,-1.7V48.2c0,-1.4,0,-2.2,-.1,-2.5c0,-.3,-.1,-.5,-.2,-.6c-.2,-.1,-.4,-.2,-.6,-.2c-.2,0,-.5,.1,-.8,.2l-.2,-.5l3.5,-1.3h.5Z" class="g0_1" />
<path d="M172.6,39.8v3.8h2.7v.9h-2.7v7.4c0,.8,.1,1.3,.3,1.6c.2,.2,.5,.3,.8,.3c.3,0,.5,0,.8,-.2c.2,-.2,.4,-.4,.6,-.8h.5c-.3,.9,-.7,1.5,-1.3,1.9c-.5,.4,-1,.6,-1.6,.6c-.4,0,-.8,-.1,-1.1,-.3c-.4,-.2,-.7,-.5,-.9,-.9c-.1,-.4,-.2,-1,-.2,-1.9V44.5h-1.9v-.4c.5,-.2,1,-.5,1.5,-1c.5,-.4,.9,-1,1.3,-1.6c.2,-.3,.4,-.9,.8,-1.7Z" class="g0_1" />
<g clip-path="url(#c0_1)">
<path d="M58.4,28.6C28.1,56.3,69,49.9,59.4,52C-32.2,71.7,87.9,1.6,58.4,28.6Z" class="g0_1" />
</g>
<path d="M61.2,46.6c17.9,-1.7,-25.4,42.8,.2,15.9C105.7,16,30.7,49.4,61.2,46.6Z" class="g0_1" />
<path d="M172.2,197.7l6.6,-4.6c-.2,-.1,-.6,-.2,-.9,-.2H166.5c-.4,0,-.7,.1,-.9,.2Z" class="g1_1" />
<path d="M172.2,198.9l-7.3,-5.1c-.1,.3,-.2,.5,-.2,.8V201c0,1,.8,1.8,1.8,1.8h11.4c1,0,1.8,-.8,1.8,-1.8v-6.4c0,-.3,-.1,-.5,-.2,-.8Z" class="g1_1" />
<g clip-path="url(#c0_1)">
<path d="M148.8,121.9V251.6" class="g2_1" />
</g>
<path d="M307.4,43.3H290.9V41.2h16.5v2.1Z" class="g3_1" />
<path d="M292.7,42.4h-9.2v-.2h9.2v.2Z" class="g3_1" />
<path d="M314.8,42.4h-8.7v-.2h8.7v.2Z" class="g3_1" />
<path d="M293.6,41.7h.2v1.2h-.2V41.7Z" class="g4_1" />
<path d="M294.6,43c-.2,0,-.4,-.1,-.6,-.3l.2,-.1c.1,.1,.2,.2,.4,.2c.2,0,.3,-.1,.3,-.2c0,-.3,-.8,-.1,-.8,-.6c0,-.2,.2,-.3,.5,-.3c.2,0,.4,.1,.5,.2l-.2,.1c-.1,-.1,-.2,-.1,-.3,-.1c-.2,0,-.3,0,-.3,.1c0,.3,.8,.2,.8,.6c0,.2,-.2,.4,-.5,.4Z" class="g4_1" />
<path d="M295.8,43c-.4,0,-.6,-.3,-.6,-.6v-.2c0,-.3,.2,-.5,.6,-.5c.3,0,.5,.2,.5,.5v.2c0,.3,-.2,.6,-.5,.6m.3,-.8c0,-.2,-.1,-.3,-.3,-.3c-.2,0,-.3,.1,-.3,.3v.2c0,.2,.1,.4,.3,.4c.2,0,.3,-.2,.3,-.4Z" class="g4_1" />
<path d="M296.6,43.1h-.1l.5,-1.5h.1Z" class="g4_1" />
<path d="M297.3,41.7h.2v1.2h-.2V41.7Z" class="g4_1" />
<path d="M297.8,42.9V41.7h.8v.2H298v.3h.5v.2H298v.3h.6v.2Z" class="g4_1" />
<path d="M299.7,42.1c0,-.1,-.1,-.3,-.3,-.3c-.2,0,-.4,.2,-.4,.4v.2c0,.2,.2,.4,.4,.4c.2,0,.3,-.1,.3,-.3l.2,.1c-.1,.2,-.2,.4,-.5,.4c-.4,0,-.6,-.3,-.6,-.6v-.2c0,-.3,.2,-.5,.6,-.5c.3,0,.4,.1,.5,.3Z" class="g4_1" />
<path d="M300.6,42.9V41.8q.1,0,.1,-.1h.1v1.2Z" class="g4_1" />
<path d="M301.5,42.9h-.2c0,-.3,.2,-.7,.5,-1h-.7v-.2h.9v.2c-.3,.3,-.5,.6,-.5,1Z" class="g4_1" />
<path d="M302.7,43c-.4,0,-.5,-.3,-.5,-.5v-.3c0,-.3,.1,-.5,.5,-.5c.3,0,.5,.2,.5,.5v.3c0,.2,-.2,.5,-.5,.5m.3,-.8c0,-.2,-.1,-.4,-.3,-.4c-.2,0,-.3,.2,-.3,.4v.3c0,.1,.1,.3,.3,.3c.2,0,.3,-.2,.3,-.3Z" class="g4_1" />
<path d="M303.4,42.9v-.1c0,-.5,.7,-.5,.7,-.8c0,-.1,-.1,-.2,-.3,-.2c-.1,0,-.2,.1,-.3,.2l-.1,-.1c.1,-.1,.2,-.2,.4,-.2c.3,0,.5,.1,.5,.3c0,.4,-.6,.4,-.7,.7h.7v.2Z" class="g4_1" />
<path d="M304.6,42.9V41.8c0,0,.1,0,.1,-.1h.1v1.2Z" class="g4_1" />
<path d="M287.4,45.7V44.6l-.1,.2l-.4,.9h-.2l-.4,-.9l-.1,-.2v1.1H286V44.3h.3l.4,.9l.1,.2l.1,-.2l.4,-.9h.3v1.4Z" class="g5_1" />
<path d="M288.9,45.7l-.1,-.3h-.6l-.1,.3h-.3l.6,-1.4h.2l.6,1.4Zm-.4,-1.1l-.2,.6h.4Z" class="g5_1" />
<path d="M290.4,45.7l-.6,-.8l-.2,-.2v1h-.2V44.3h.2l.7,.8l.1,.2v-1h.2v1.4Z" class="g5_1" />
<path d="M292,45.7l-.2,-.3h-.6l-.1,.3h-.3l.6,-1.4h.2l.6,1.4Zm-.5,-1.1l-.2,.6h.4Z" class="g5_1" />
<path d="M293.4,45.7v-.1c-.1,.1,-.2,.2,-.4,.2c-.5,0,-.7,-.3,-.7,-.7v-.2c0,-.4,.3,-.7,.7,-.7c.3,0,.5,.2,.6,.4l-.2,.1c-.1,-.1,-.2,-.2,-.4,-.2c-.3,0,-.4,.1,-.4,.4v.3c0,.2,.1,.4,.4,.4c.2,0,.3,-.2,.3,-.4H293V45h.6v.7Z" class="g5_1" />
<path d="M293.9,45.7V44.3h1v.2h-.8v.4h.6v.2h-.6v.4h.8v.2Z" class="g5_1" />
<path d="M296.6,45.7V44.6l-.1,.2l-.4,.9h-.2l-.4,-.9l-.1,-.2v1.1h-.2V44.3h.3l.4,.9l.1,.2l.1,-.2l.4,-.9h.3v1.4Z" class="g5_1" />
<path d="M297.2,45.7V44.3h1v.2h-.8v.4h.6v.2h-.6v.4h.8v.2Z" class="g5_1" />
<path d="M299.5,45.7l-.7,-.8l-.1,-.2v1h-.2V44.3h.2l.6,.8l.2,.2v-1h.2v1.4Z" class="g5_1" />
<path d="M300.7,44.5v1.2h-.3V44.5h-.5v-.2h1.3v.2Z" class="g5_1" />
<path d="M302.5,45.8c-.2,0,-.4,-.1,-.6,-.3l.1,-.2c.2,.2,.4,.3,.6,.3c.2,0,.3,-.1,.3,-.3c0,-.3,-1,-.1,-1,-.6c0,-.3,.3,-.5,.6,-.5c.3,0,.5,.2,.6,.3l-.1,.2c-.2,-.2,-.3,-.2,-.5,-.2c-.2,0,-.3,0,-.3,.2c0,.2,.9,.1,.9,.6c0,.3,-.2,.5,-.6,.5Z" class="g5_1" />
<path d="M304,45.1v.6h-.2v-.6l-.6,-.8h.3l.4,.7l.4,-.7h.3Z" class="g5_1" />
<path d="M305.3,45.8c-.3,0,-.5,-.1,-.7,-.3l.2,-.2c.2,.2,.3,.3,.5,.3c.2,0,.3,-.1,.3,-.3c0,-.3,-.9,-.1,-.9,-.6c0,-.3,.2,-.5,.6,-.5c.3,0,.5,.2,.6,.3l-.2,.2c-.1,-.2,-.2,-.2,-.4,-.2c-.2,0,-.4,0,-.4,.2c0,.2,1,.1,1,.6c0,.3,-.3,.5,-.6,.5Z" class="g5_1" />
<path d="M306.8,44.5v1.2h-.3V44.5H306v-.2h1.3v.2Z" class="g5_1" />
<path d="M307.5,45.7V44.3h1.1v.2h-.8v.4h.6v.2h-.6v.4h.8v.2Z" class="g5_1" />
<path d="M310.2,45.7V44.6l-.1,.2l-.4,.9h-.2l-.4,-.9v-.2v1.1h-.3V44.3h.4l.4,.9v.2l.1,-.2l.4,-.9h.3v1.4Z" class="g5_1" />
<path d="M311.3,45.8c-.2,0,-.4,-.1,-.6,-.3l.1,-.2c.2,.2,.4,.3,.6,.3c.2,0,.3,-.1,.3,-.3c0,-.3,-1,-.1,-1,-.6c0,-.3,.3,-.5,.6,-.5c.3,0,.5,.2,.6,.3l-.1,.2c-.2,-.2,-.3,-.2,-.5,-.2c-.2,0,-.3,0,-.3,.2c0,.2,.9,.1,.9,.6c0,.3,-.2,.5,-.6,.5Z" class="g5_1" />
<path d="M289.2,47c0,-.1,-.2,-.2,-.4,-.2c-.2,0,-.4,.1,-.4,.4v.2c0,.3,.2,.4,.4,.4c.2,0,.4,-.1,.4,-.2l.2,.1c0,.2,-.2,.4,-.6,.4c-.4,0,-.6,-.3,-.6,-.7v-.2c0,-.4,.2,-.7,.6,-.7c.3,0,.6,.2,.6,.4Z" class="g5_1" />
<path d="M289.7,48V46.6h1v.2h-.8v.4h.6v.2h-.6v.4h.8V48Z" class="g5_1" />
<path d="M292.1,48q-.2,0,-.2,-.2v-.2c0,-.1,-.1,-.2,-.3,-.2h-.4V48H291V46.6h.6c.4,0,.5,.1,.5,.4c0,.2,0,.3,-.3,.3c.3,0,.3,.2,.3,.3v.2c0,.1,.1,.1,.1,.1V48Zm-.2,-1c0,-.1,-.1,-.2,-.3,-.2h-.4v.4h.4c.2,0,.3,0,.3,-.2Z" class="g5_1" />
<path d="M293.1,46.8V48h-.3V46.8h-.5v-.2h1.3v.2Z" class="g5_1" />
<path d="M293.8,46.6h.3V48h-.3V46.6Z" class="g5_1" />
<path d="M294.7,46.8v.4h.5v.2h-.5V48h-.3V46.6h1v.2Z" class="g5_1" />
<path d="M295.7,46.6h.2V48h-.2V46.6Z" class="g5_1" />
<path d="M297.3,47c-.1,-.1,-.2,-.2,-.4,-.2c-.3,0,-.4,.1,-.4,.4v.2c0,.3,.1,.4,.4,.4c.2,0,.3,-.1,.4,-.2l.2,.1c-.1,.2,-.3,.4,-.6,.4c-.5,0,-.7,-.3,-.7,-.7v-.2c0,-.4,.3,-.7,.7,-.7c.3,0,.5,.2,.6,.4Z" class="g5_1" />
<path d="M298.7,48l-.1,-.3H298l-.2,.3h-.2l.6,-1.4h.2L299,48Zm-.4,-1.1l-.3,.6h.5Z" class="g5_1" />
<path d="M299.7,46.8V48h-.3V46.8H299v-.2h1.2v.2Z" class="g5_1" />
<path d="M300.4,46.6h.3V48h-.3V46.6Z" class="g5_1" />
<path d="M301.6,48.1c-.4,0,-.6,-.3,-.6,-.6v-.4c0,-.3,.2,-.6,.6,-.6c.4,0,.7,.3,.7,.6v.4c0,.3,-.3,.6,-.7,.6m.4,-1c0,-.2,-.1,-.3,-.4,-.3c-.2,0,-.4,.1,-.4,.3v.4c0,.2,.2,.3,.4,.3c.3,0,.4,-.1,.4,-.3Z" class="g5_1" />
<path d="M303.6,48l-.7,-.8l-.1,-.2v1h-.2V46.6h.2l.6,.8l.1,.2v-1h.3V48Z" class="g5_1" />
<path d="M305.4,48h-.7V46.6h.7c.3,0,.4,.1,.4,.3V47c0,.1,-.1,.3,-.2,.3c.2,0,.2,.2,.2,.3v.1c0,.2,-.1,.3,-.4,.3m.2,-1c0,-.1,-.1,-.2,-.2,-.2h-.5v.4h.4c.2,0,.3,-.1,.3,-.2Zm0,.6c0,-.1,-.1,-.2,-.2,-.2h-.5v.4h.5c.1,0,.2,-.1,.2,-.2Z" class="g5_1" />
<path d="M306.7,48.1c-.4,0,-.6,-.3,-.6,-.6v-.4c0,-.3,.2,-.6,.6,-.6c.4,0,.7,.3,.7,.6v.4c0,.3,-.3,.6,-.7,.6m.4,-1c0,-.2,-.1,-.3,-.4,-.3c-.2,0,-.4,.1,-.4,.3v.4c0,.2,.2,.3,.4,.3c.3,0,.4,-.1,.4,-.3Z" class="g5_1" />
<path d="M308.3,48h-.6V46.6h.6c.4,0,.6,.2,.6,.5v.4c0,.3,-.2,.5,-.6,.5m.4,-.8c0,-.3,-.2,-.4,-.4,-.4h-.4v1h.4c.2,0,.4,-.1,.4,-.4Z" class="g5_1" />
<path d="M309.8,47.4V48h-.3v-.6l-.5,-.8h.3l.4,.6l.4,-.6h.3Z" class="g5_1" />
<path d="M295.7,30c0,-.4,1.1,-.7,2.5,-.7c1.4,0,2.5,.3,2.5,.7c0,.4,-1.1,.8,-2.5,.8c-1.4,0,-2.5,-.4,-2.5,-.8Z" class="g5_1" />
<path d="M299.8,29.8l-.4,7l-1.8,.1l-.8,-7Z" class="g5_1" />
<path d="M285.3,39.6l-.2,-.4h-.9l-.2,.4h-.3l.8,-1.5h.3l.8,1.5Zm-.7,-1.2l-.3,.6h.7Z" class="g5_1" />
<path d="M288.7,38.5c-.1,-.1,-.3,-.3,-.6,-.3c-.4,0,-.7,.3,-.7,.6v.1c0,.3,.3,.5,.7,.5c.3,0,.5,-.1,.6,-.2l.2,.2c-.2,.1,-.5,.3,-.8,.3c-.6,0,-1,-.4,-1,-.8v-.1c0,-.4,.4,-.8,1,-.8c.3,0,.6,.1,.8,.3Z" class="g5_1" />
<path d="M292.1,38.5c-.1,-.1,-.3,-.3,-.6,-.3c-.4,0,-.6,.3,-.6,.6v.1c0,.3,.2,.5,.6,.5c.3,0,.5,-.1,.6,-.2l.2,.2c-.2,.1,-.4,.3,-.8,.3c-.6,0,-.9,-.4,-.9,-.8v-.1c0,-.4,.4,-.8,.9,-.8c.4,0,.7,.1,.8,.3Z" class="g5_1" />
<path d="M295.4,39.6c-.1,0,-.1,-.1,-.1,-.2v-.2c0,-.1,-.1,-.2,-.4,-.2h-.5v.6h-.3V38.1h.8c.5,0,.7,.1,.7,.4c0,.2,-.1,.3,-.4,.4c.3,0,.4,.1,.4,.3v.1q0,.2,.1,.3Zm-.1,-1.1c0,-.1,-.1,-.2,-.3,-.2h-.6v.5h.6c.2,0,.3,-.1,.3,-.3Z" class="g5_1" />
<path d="M297.5,39.6V38.1h1.4v.2h-1.1v.4h.8v.2h-.8v.5h1.1v.2Z" class="g5_1" />
<path d="M301.5,39.6h-.8V38.1h.8c.5,0,.9,.3,.9,.7v.1c0,.4,-.4,.7,-.9,.7m.6,-.8c0,-.3,-.3,-.5,-.6,-.5H301v1.1h.5c.3,0,.6,-.2,.6,-.5Z" class="g5_1" />
<path d="M304.2,38.1h.3v1.5h-.3V38.1Z" class="g5_1" />
<path d="M307.2,38.3v1.3h-.3V38.3h-.7v-.2h1.7v.2Z" class="g5_1" />
<path d="M309.7,39.6V38.1h1.4v.2H310v.4h.8v.2H310v.5h1.1v.2Z" class="g5_1" />
<path d="M313.7,39.6h-.8V38.1h.8c.5,0,.9,.3,.9,.7v.1c0,.4,-.4,.7,-.9,.7m.6,-.8c0,-.3,-.2,-.5,-.6,-.5h-.5v1.1h.5c.4,0,.6,-.2,.6,-.5Z" class="g5_1" />
<path d="M300.5,25.7c0,0,.2,1,-.8,1.4c.4,-1,-.3,-1.4,-.3,-1.5c.7,-.7,1.7,-1.7,.3,-5.2c0,0,.4,2.2,-.6,3.1c-1,1,-3.4,1.5,-3.4,3.4c.1,1.9,1.2,1.9,1.9,2c.4,0,1.1,0,1.4,0c.4,-.1,.6,-.1,.9,-.2c1,-.6,1,-2,.6,-3m-3.3,1.8c-1.2,-2.4,1,-1.9,1.4,-3.2c.3,1.5,-1.5,1.1,-1.4,3.2Z" class="g3_1" />
<path d="M300.5,28.5c0,-.1,-.1,-.1,-.1,-.2c0,0,0,-.2,0,-.2c0,0,0,.1,-.1,.2c0,0,-.1,.1,-.1,.1c-.1,0,-.2,-.1,-.3,-.1c0,0,-.1,-.1,-.1,-.1c0,-.1,0,-.2,0,-.2c0,0,-.1,.1,-.1,.2c0,0,-.1,0,-.1,.1c-.1,-.1,-.2,-.1,-.3,-.1c0,0,-.1,-.1,-.1,-.1c0,-.1,0,-.2,0,-.2c0,0,-.1,.1,-.1,.2q-.1,0,-.1,.1c-.1,0,-.2,0,-.3,0q-.1,-.1,-.1,-.2c0,0,-.1,-.2,-.1,-.2c0,0,0,.1,-.1,.2q0,.1,-.1,.1q-.1,0,-.2,0q-.1,0,-.1,-.1c-.1,-.1,-.1,-.2,-.1,-.2c0,0,0,.1,-.1,.2q0,.1,-.1,.2c-.1,0,-.2,0,-.2,0c-.1,0,-.1,-.1,-.1,-.1c-.1,-.1,-.1,-.2,-.1,-.2c0,0,-.1,.1,-.1,.2c0,0,-.1,.1,-.1,.1c-.1,0,-.2,0,-.3,.1q0,-.1,-.1,-.1c0,-.1,-.1,-.2,-.1,-.2c0,0,0,.1,0,.2c0,0,-.1,.1,-.1,.1c-.1,0,-.2,.1,-.3,.1c0,0,0,-.1,-.1,-.1c0,-.1,-.1,-.2,-.1,-.2c0,0,0,.1,0,.2c0,.1,-.1,.1,-.1,.2q-.1,0,-.2,.1c.1,.3,.2,.6,.3,.9c.7,-.3,1.5,-.4,2.2,-.4c.8,0,1.5,.1,2.3,.4c.1,-.3,.2,-.6,.3,-.9c-.1,-.1,-.2,-.1,-.3,-.1Z" class="g5_1" />
<path d="M313,33.6c.9,-.2,1.4,-.9,1.4,-1.5V32c0,-1.2,-1,-1.9,-2.5,-1.9h-4.5v6.8l-2.6,-6.8h-2.9l-2.5,6.7l.2,-4.3c0,0,-.4,-.6,-1.3,-.6c-.9,0,-1.2,.6,-1.2,.6l.1,1.2l-.3,-.3l-.4,-.6l-2.3,-2.7h-2.3v6.8l-2.6,-6.8h-2.8l-2.7,7h2.3l.4,-1.1h2.3l.4,1.1h5.2V33.8l.4,.6l2.3,2.7h4.5L302,36h2.3l.4,1.1H312c1.5,0,2.5,-.7,2.5,-1.9v-.1c0,-.6,-.5,-1.3,-1.5,-1.5m-25.9,.8l.6,-2l.6,2Zm15.4,0l.7,-2l.6,2Zm9.3,.4c0,.3,-.2,.5,-.7,.5h-1V34.1h1c.5,0,.7,.2,.7,.5Zm0,-2.2c0,.3,-.2,.5,-.7,.5h-1V31.9h1c.5,0,.7,.2,.7,.6Z" class="g5_1" />
<path d="M297.9,36.5c0,.1,0,.2,-.1,.2c0,0,-.1,-.1,-.1,-.1c0,-.1,-.2,-5.9,-.2,-5.9c0,0,.3,3.9,.4,5.8Z" class="g4_1" />
<path d="M298.3,36.5c0,.1,0,.2,-.1,.2c-.1,0,-.1,-.1,-.1,-.2c0,0,0,-6.4,0,-6.4c0,0,.2,4.5,.2,6.4Z" class="g4_1" />
<path d="M298.7,36.5c0,.1,-.1,.2,-.1,.2c-.1,0,-.1,-.1,-.1,-.2c0,-.1,.1,-6.4,.1,-6.4c0,0,.1,4.5,.1,6.4Z" class="g4_1" />
<path d="M299,36.6c0,0,0,.1,-.1,.1c0,0,-.1,-.1,-.1,-.2c0,-.1,.4,-5.8,.4,-5.8c0,0,-.1,3.9,-.2,5.9Z" class="g4_1" />
<path d="M257.3,34.5c.3,.5,6.7,11.2,6.7,11.2c0,0,6.4,-10.7,6.7,-11.2c.1,-.3,.2,-.5,.3,-.6H257.1c0,.2,.1,.3,.2,.6Z" class="g0_1" />
<path d="M267.3,29.1c-1.4,0,-2.5,.6,-3.3,1.7c-.7,-1.1,-1.9,-1.7,-3.2,-1.7c-2.1,0,-3.8,1.6,-3.9,3.6h14.2c0,-2,-1.7,-3.6,-3.8,-3.6Z" class="g0_1" />
<path d="M264,21.6c-7.1,0,-12.8,5.7,-12.8,12.8c0,7.1,5.7,12.8,12.8,12.8c7.1,0,12.8,-5.7,12.8,-12.8c0,-7.1,-5.7,-12.8,-12.8,-12.8m14,12.8c0,7.7,-6.3,14,-14,14c-7.7,0,-14,-6.3,-14,-14c0,-7.7,6.3,-14,14,-14c7.7,0,14,6.3,14,14Z" class="g0_1" />
<path d="M262.2,24.8c-.3,0,-.6,.1,-.9,.3V23.4h-.7V28h.5l.1,-.2c.2,.2,.6,.3,1,.3c.9,0,1.2,-.6,1.2,-1.6c0,-1,-.3,-1.7,-1.2,-1.7m-.2,.6c.6,0,.7,.5,.7,1.1c0,.5,-.1,1,-.7,1c-.3,0,-.5,-.1,-.7,-.2V25.6c.2,-.1,.4,-.2,.7,-.2m2.3,.4c0,-.3,.2,-.4,.6,-.4c.4,0,.7,.1,.9,.2V25c-.2,-.1,-.5,-.2,-.9,-.2c-1,0,-1.3,.5,-1.3,1c0,.6,.2,.9,1.2,.9c.4,.1,.5,.2,.5,.4c0,.3,-.3,.4,-.8,.4c-.3,0,-.7,-.1,-.9,-.2v.6c.2,.1,.6,.2,1,.2c1,0,1.4,-.5,1.4,-1c0,-.6,-.3,-.9,-1.2,-.9c-.4,-.1,-.5,-.2,-.5,-.4m2.8,2.3c0,0,.1,-.1,.1,-.1v-.5c-.2,0,-.3,-.1,-.3,-.3V24.9h-.7v2.4c0,.5,.3,.8,.9,.8m-1,-4.1c0,.3,.2,.5,.5,.5c.2,0,.4,-.2,.4,-.5c0,-.2,-.2,-.4,-.4,-.4c-.3,0,-.5,.2,-.5,.4Z" class="g0_1" />
<path d="M267.4,27.6c0,.3,.2,.5,.5,.5c.2,0,.4,-.2,.4,-.5c0,-.2,-.2,-.4,-.4,-.4c-.3,0,-.5,.2,-.5,.4Z" class="g0_1" />
<path d="M246.7,52.1h72V16.7h-72V52.1Zm72.5,.5H246.3V16.2h72.9V52.6Z" class="g0_1" />
<path d="M253.4,55.5h.5V59h-.5V55.5Z" class="g0_1" />
<path d="M255.8,59c-.5,0,-.9,-.1,-1.2,-.4l.3,-.4c.3,.3,.6,.3,.9,.3c.5,0,.7,-.2,.7,-.5c0,-.2,0,-.3,-.1,-.4c-.1,0,-.2,-.1,-.4,-.1l-.4,-.1c-.3,0,-.5,-.1,-.7,-.3c-.1,-.1,-.2,-.3,-.2,-.6c0,-.6,.4,-1.1,1.1,-1.1c.5,0,.8,.2,1.1,.4l-.3,.4c-.2,-.2,-.5,-.3,-.8,-.3c-.4,0,-.6,.2,-.6,.6c0,.1,0,.2,.1,.3c.1,.1,.2,.1,.4,.1l.4,.1c.3,.1,.5,.1,.7,.3c.2,.1,.3,.4,.3,.7c0,.6,-.6,1,-1.3,1Z" class="g0_1" />
<path d="M259.8,57.3c-.3,0,-.5,.3,-.5,.7c0,.3,.2,.6,.5,.6c.3,0,.6,-.3,.6,-.6c0,-.4,-.2,-.7,-.6,-.7m0,1.7c-.6,0,-1,-.4,-1,-1c0,-.3,.1,-.6,.2,-.9l.8,-1.6h.6l-.8,1.5c.1,-.1,.2,-.1,.3,-.1c.5,0,1,.4,1,1c0,.7,-.5,1.1,-1.1,1.1Z" class="g0_1" />
<path d="M262.5,55.9c-.4,0,-.6,.2,-.6,.5c0,.3,.2,.6,.6,.6c.3,0,.5,-.3,.5,-.6c0,-.3,-.2,-.5,-.5,-.5m0,1.5c-.4,0,-.6,.3,-.6,.6c0,.3,.2,.6,.6,.6c.3,0,.5,-.3,.5,-.6c0,-.3,-.2,-.6,-.5,-.6m0,1.6c-.7,0,-1.1,-.4,-1.1,-1c0,-.4,.2,-.7,.5,-.8c-.3,-.2,-.5,-.4,-.5,-.8c0,-.6,.5,-1,1.1,-1c.5,0,1,.4,1,1c0,.4,-.2,.6,-.4,.8c.2,.1,.4,.4,.4,.8c0,.6,-.4,1,-1,1Z" class="g0_1" />
<path d="M265,59h-.5l1.1,-3.1h-1v.6h-.5v-1h2.1v.4Z" class="g0_1" />
<path d="M267.7,59V56l-.7,.6v-.5l.7,-.6h.5V59Z" class="g0_1" />
<path d="M270.3,59c-.5,0,-1,-.3,-1.1,-1h.6c0,.4,.2,.6,.5,.6c.3,0,.6,-.2,.6,-.6c0,-.4,-.2,-.6,-.6,-.6h-.1V57h.1c.4,0,.5,-.2,.5,-.6c0,-.3,-.2,-.5,-.5,-.5c-.3,0,-.5,.2,-.5,.5h-.5c0,-.6,.5,-1,1,-1c.6,0,1,.4,1,1c0,.4,-.1,.6,-.4,.8c.3,.1,.5,.4,.5,.8c0,.7,-.5,1,-1.1,1Z" class="g0_1" />
<path d="M272.9,59V56l-.7,.6v-.5l.7,-.6h.5V59Z" class="g0_1" />
<path d="M276,59.4h-.5l1.4,-4.3h.5Z" class="g0_1" />
<path d="M279,55.5h.5V59H279V55.5Z" class="g0_1" />
<path d="M281.4,59c-.5,0,-.9,-.1,-1.2,-.4l.3,-.4c.3,.3,.6,.3,.9,.3c.5,0,.7,-.2,.7,-.5c0,-.2,0,-.3,-.1,-.4c-.1,0,-.2,-.1,-.4,-.1l-.4,-.1c-.3,0,-.5,-.1,-.7,-.3c-.1,-.1,-.2,-.3,-.2,-.6c0,-.6,.4,-1.1,1.2,-1.1c.4,0,.7,.2,1,.4l-.3,.4c-.2,-.2,-.5,-.3,-.8,-.3c-.4,0,-.6,.2,-.6,.6c0,.1,0,.2,.1,.3c.1,.1,.2,.1,.4,.1l.4,.1c.3,.1,.5,.1,.7,.3c.2,.1,.3,.4,.3,.7c0,.6,-.6,1,-1.3,1Z" class="g0_1" />
<path d="M285,56.1c-.1,-.1,-.3,-.2,-.5,-.2c-.2,0,-.4,.1,-.5,.2c-.2,.2,-.2,.4,-.2,1.1c0,.7,0,.9,.2,1.1c.1,.2,.3,.2,.5,.2c.2,0,.4,0,.5,-.2c.2,-.2,.3,-.4,.3,-1.1c0,-.7,-.1,-.9,-.3,-1.1m.4,2.6c-.2,.2,-.5,.3,-.9,.3c-.4,0,-.7,-.1,-.9,-.3c-.3,-.4,-.3,-.7,-.3,-1.5c0,-.7,0,-1.1,.3,-1.4c.2,-.2,.5,-.4,.9,-.4c.4,0,.7,.2,.9,.4c.4,.3,.4,.7,.4,1.4c0,.8,0,1.1,-.4,1.5Z" class="g0_1" />
<path d="M287.6,59v-.5L289,56.9c.1,-.2,.2,-.3,.2,-.5c0,-.3,-.2,-.5,-.6,-.5c-.2,0,-.5,.1,-.5,.5h-.5c0,-.6,.4,-1,1,-1c.6,0,1.1,.4,1.1,1c0,.3,-.2,.5,-.4,.8l-1.1,1.3h1.5V59Z" class="g0_1" />
<path d="M291.2,59h-.6l1.2,-3.1h-1.1v.6h-.5v-1h2.1v.4Z" class="g0_1" />
<path d="M294.4,56.5c0,-.4,-.2,-.6,-.5,-.6c-.3,0,-.5,.2,-.5,.6V58c0,.3,.2,.6,.5,.6c.3,0,.5,-.3,.5,-.6Zm-.5,2.5c-.6,0,-1,-.4,-1,-1V56.4c0,-.6,.4,-1,1,-1c.5,0,1,.4,1,1V58c0,.6,-.5,1,-1,1Z" class="g0_1" />
<path d="M297,56.5c0,-.4,-.2,-.6,-.5,-.6c-.3,0,-.5,.2,-.5,.6V58c0,.3,.2,.6,.5,.6c.3,0,.5,-.3,.5,-.6Zm-.5,2.5c-.5,0,-1,-.4,-1,-1V56.4c0,-.6,.5,-1,1,-1c.6,0,1,.4,1,1V58c0,.6,-.4,1,-1,1Z" class="g0_1" />
<path d="M299.1,59V56l-.7,.6v-.5l.7,-.6h.5V59Z" class="g0_1" />
<path d="M301,58.4h.6V59H301v-.6ZM301,57h.6v.6H301V57Z" class="g0_1" />
<path d="M302.3,59v-.5l1.3,-1.6c.2,-.2,.2,-.3,.2,-.5c0,-.3,-.2,-.5,-.5,-.5c-.3,0,-.5,.1,-.5,.5h-.5c0,-.6,.4,-1,1,-1c.6,0,1,.4,1,1c0,.3,-.1,.5,-.3,.8l-1.1,1.3h1.4V59Z" class="g0_1" />
<path d="M306.4,56.5c0,-.4,-.2,-.6,-.5,-.6c-.3,0,-.5,.2,-.5,.6V58c0,.3,.2,.6,.5,.6c.3,0,.5,-.3,.5,-.6Zm-.5,2.5c-.5,0,-1,-.4,-1,-1V56.4c0,-.6,.5,-1,1,-1c.6,0,1,.4,1,1V58c0,.6,-.4,1,-1,1Z" class="g0_1" />
<path d="M308.5,59V56l-.7,.6v-.5l.7,-.6h.5V59Z" class="g0_1" />
<path d="M311.2,59c-.6,0,-1.1,-.3,-1.1,-1h.5c0,.4,.3,.6,.6,.6c.3,0,.5,-.2,.5,-.6c0,-.4,-.2,-.6,-.6,-.6V57c.4,0,.6,-.2,.6,-.6c0,-.3,-.3,-.5,-.5,-.5c-.4,0,-.6,.2,-.6,.5h-.5c0,-.6,.5,-1,1.1,-1c.5,0,1,.4,1,1c0,.4,-.2,.6,-.5,.8c.3,.1,.5,.4,.5,.8c0,.7,-.5,1,-1,1Z" class="g0_1" />
<path d="M381.3,52.1H323.8V16.7h57.5V52.1Zm-58.1,.5h58.7V16.2H323.2V52.6Z" class="g0_1" />
<path d="M334.6,34.5c.3,.4,6.7,11.2,6.7,11.2c0,0,6.4,-10.7,6.7,-11.2c.1,-.3,.2,-.5,.3,-.6H334.4c0,.2,.1,.3,.2,.6Z" class="g0_1" />
<path d="M344.6,29.1c-1.3,0,-2.5,.6,-3.2,1.7c-.8,-1.1,-2,-1.7,-3.3,-1.7c-2.1,0,-3.8,1.6,-3.9,3.6h14.2c0,-2,-1.7,-3.6,-3.8,-3.6Z" class="g0_1" />
<path d="M341.3,21.6c-7,0,-12.8,5.7,-12.8,12.8c0,7.1,5.8,12.8,12.8,12.8c7.1,0,12.8,-5.7,12.8,-12.8c0,-7.1,-5.7,-12.8,-12.8,-12.8m14,12.8c0,7.7,-6.2,14,-14,14c-7.7,0,-14,-6.3,-14,-14c0,-7.7,6.3,-14,14,-14c7.8,0,14,6.3,14,14Z" class="g0_1" />
<path d="M339.5,24.8c-.3,0,-.6,.1,-.9,.3V23.4H338V28h.4l.1,-.2c.2,.2,.6,.3,1,.3c.9,0,1.2,-.6,1.2,-1.6c0,-1,-.3,-1.7,-1.2,-1.7m-.2,.6c.6,0,.7,.5,.7,1.1c0,.5,-.1,1,-.7,1c-.3,0,-.5,-.1,-.7,-.2V25.6c.2,-.1,.4,-.2,.7,-.2m2.3,.4c0,-.3,.2,-.4,.6,-.4c.4,0,.7,.1,.9,.2V25c-.2,-.1,-.5,-.2,-.9,-.2c-.9,0,-1.3,.5,-1.3,1c0,.6,.2,.8,1.2,.9c.4,.1,.5,.2,.5,.4c0,.3,-.3,.4,-.7,.4c-.4,0,-.8,-.1,-1,-.2v.6c.2,.1,.6,.2,1.1,.2c.9,0,1.3,-.5,1.3,-1c0,-.6,-.3,-.9,-1.2,-.9c-.4,-.1,-.5,-.2,-.5,-.4m2.8,2.3c0,0,.1,-.1,.1,-.1v-.5c-.2,0,-.3,-.1,-.3,-.3V24.9h-.6v2.3c0,.6,.2,.9,.8,.9m-1,-4.1c0,.2,.2,.5,.5,.5c.2,0,.4,-.3,.4,-.5c0,-.2,-.2,-.4,-.4,-.4c-.3,0,-.5,.2,-.5,.4Z" class="g0_1" />
<path d="M344.7,27.6c0,.3,.3,.5,.5,.5c.2,0,.5,-.2,.5,-.5c0,-.2,-.3,-.4,-.5,-.4c-.2,0,-.5,.2,-.5,.4Z" class="g0_1" />
<path d="M377.2,21.6H358.9V39.9h18.3V21.6Z" class="g6_1" />
<path d="M366.7,24.4c0,.9,.7,1.6,1.5,1.6c.9,0,1.6,-.7,1.6,-1.6c0,-.8,-.7,-1.5,-1.6,-1.5c-.8,0,-1.5,.7,-1.5,1.5Z" class="g4_1" />
<path d="M367.3,27c-.7,.8,-.9,2.8,-.5,5.8c.2,1.8,.6,3.7,1.4,6q.1,0,.1,0c.8,-2.3,1.2,-4.2,1.4,-6c.4,-3,.2,-5,-.5,-5.8c-.3,-.3,-.6,-.4,-1,-.4c-.3,0,-.6,.1,-.9,.4Z" class="g4_1" />
<path d="M360.7,27.8c-.3,.2,-.5,.6,-.5,.9c0,.4,.2,.8,.7,1.2c.7,.7,3.3,2.2,10.4,1.2q0,-.1,0,-.1c-3.2,.1,-6,-.5,-7,-1.5c-.2,-.3,-.4,-.5,-.4,-.8c0,-1.5,2.6,-2.3,5,-2.3c.1,0,.1,-.1,.1,-.1c0,0,0,-.1,-.1,-.1c-4.1,-.3,-7.2,.6,-8.2,1.6Z" class="g4_1" />
<path d="M368,27.1c0,0,-.1,0,-.1,0c0,.1,.1,.1,.1,.1c2.4,.5,4.6,1.3,4.6,3.4c0,.5,-.2,1,-.7,1.5c-1.5,1.4,-5,2.1,-9.6,2q-.1,0,-.1,0q0,.1,.1,.1c8.3,1.5,11.7,-.5,12.7,-1.4c.8,-.7,1.3,-1.5,1.3,-2.3c0,-.6,-.3,-1.1,-.7,-1.5c-1.5,-1.5,-5,-2,-7.6,-1.9Z" class="g4_1" />
<path d="M370.6,46.2h-.3V44.8h.3v1.4Z" class="g6_1" />
<path d="M371.2,45.8c0,0,0,.1,.1,.1c0,.1,.1,.1,.2,.1q.1,0,.2,0c0,-.1,.1,-.1,.1,-.2c0,0,0,-.1,-.1,-.1c0,0,-.1,0,-.2,-.1h-.1c-.1,0,-.2,-.1,-.3,-.1q-.1,-.1,-.1,-.3c0,-.1,0,-.2,.1,-.3c.1,-.1,.2,-.1,.4,-.1c.1,0,.3,0,.4,.1c.1,.1,.1,.2,.1,.3h-.3c0,0,0,-.1,-.1,-.1c0,-.1,-.1,-.1,-.1,-.1c-.1,0,-.2,0,-.2,.1c0,0,-.1,0,-.1,.1c0,0,.1,.1,.1,.1c0,0,.1,0,.2,.1h.2c.1,0,.2,.1,.2,.1c.1,.1,.2,.2,.2,.3c0,.1,-.1,.2,-.2,.3c-.1,.1,-.2,.1,-.4,.1c-.2,0,-.3,0,-.4,-.1c-.1,-.1,-.2,-.2,-.2,-.3Z" class="g6_1" />
<path d="M372.7,45.1v.3h.3q.1,0,.2,0c0,0,0,-.1,0,-.1c0,-.1,0,-.2,0,-.2q-.1,0,-.2,0Zm.6,-.2c0,0,.1,0,.1,.1c0,0,.1,0,.1,.1c0,0,0,.1,0,.1q0,.1,0,.2q-.1,.1,-.2,.1q.1,.1,.1,.1c.1,.1,.1,.2,.1,.3q0,.1,0,.2v.1h-.3q0,-.1,0,-.1c0,0,0,-.1,0,-.1v-.1c0,-.1,0,-.2,0,-.2q-.1,0,-.2,0h-.3v.5h-.3V44.8h.7c.1,0,.1,.1,.2,.1Z" class="g6_1" />
<path d="M374.2,45.9c0,.1,.1,.1,.1,.1c.1,0,.2,0,.2,-.1c0,-.1,0,-.2,0,-.4c0,-.1,0,-.2,0,-.3c0,-.1,-.1,-.1,-.2,-.1c0,0,-.1,0,-.1,.1c0,.1,-.1,.2,-.1,.3c0,.2,.1,.3,.1,.4m.5,-.9c.1,.1,.1,.3,.1,.5c0,.3,0,.4,-.1,.5c-.1,.2,-.2,.2,-.4,.2c-.1,0,-.2,0,-.3,-.2c-.1,-.1,-.1,-.2,-.1,-.5c0,-.2,0,-.4,.1,-.5c.1,-.1,.2,-.1,.3,-.1c.2,0,.3,0,.4,.1Z" class="g6_1" />
<path d="M375.4,45.9c0,.1,.1,.1,.2,.1c0,0,.1,0,.1,-.1c0,-.1,0,-.2,0,-.4c0,-.1,0,-.2,0,-.3c0,-.1,-.1,-.1,-.1,-.1c-.1,0,-.2,0,-.2,.1c0,.1,0,.2,0,.3c0,.2,0,.3,0,.4m.5,-.9c.1,.1,.1,.3,.1,.5c0,.3,0,.4,-.1,.5c-.1,.2,-.2,.2,-.3,.2c-.2,0,-.3,0,-.4,-.2c-.1,-.1,-.1,-.2,-.1,-.5c0,-.2,0,-.4,.1,-.5c.1,-.1,.2,-.1,.4,-.1c.1,0,.2,0,.3,.1Z" class="g6_1" />
<path d="M376.8,45.7v-.6l-.3,.6Zm.4,.2h-.1v.3h-.3v-.3h-.5v-.2l.5,-.8h.3v.8h.1Z" class="g6_1" />
<path d="M363.4,47.7h.5v.2h-.5v-.2Z" class="g6_1" />
<path d="M364.4,47.3c.1,-.1,.3,-.2,.4,-.2c.3,0,.4,.1,.5,.2c.1,.1,.1,.2,.1,.3h-.3q0,-.1,0,-.2c-.1,0,-.2,0,-.3,0q-.1,0,-.2,.1c0,.1,-.1,.2,-.1,.3c0,.2,.1,.3,.1,.4c.1,0,.2,.1,.2,.1c.1,0,.2,-.1,.3,-.1q0,-.1,0,-.2h.3c0,.2,-.1,.3,-.2,.4c-.1,.1,-.2,.1,-.3,.1c-.2,0,-.4,0,-.5,-.2c-.1,-.1,-.2,-.3,-.2,-.5c0,-.2,.1,-.4,.2,-.5Z" class="g6_1" />
<path d="M365.8,47.1h.3v1.1h.7v.3h-1Z" class="g6_1" />
<path d="M367.3,48.1c.1,0,.1,.1,.1,.1c0,.1,.1,.1,.2,.1c.1,0,.2,0,.2,0q.1,-.1,.1,-.2c0,0,0,-.1,0,-.1q-.1,0,-.2,-.1h-.2c-.1,0,-.2,-.1,-.3,-.1c-.1,0,-.1,-.1,-.1,-.3c0,-.1,0,-.2,.1,-.3c.1,-.1,.3,-.1,.4,-.1c.2,0,.3,0,.4,.1c.1,.1,.1,.2,.1,.3h-.2c0,0,-.1,-.1,-.1,-.1q-.1,-.1,-.2,-.1c-.1,0,-.1,.1,-.2,.1c0,0,0,.1,0,.1q0,.1,0,.1q.1,0,.2,.1h.2c.1,0,.2,.1,.3,.1c0,.1,.1,.2,.1,.3c0,.1,-.1,.2,-.2,.3c0,.1,-.2,.1,-.4,.1c-.1,0,-.3,0,-.4,-.1c-.1,-.1,-.1,-.2,-.1,-.3Z" class="g6_1" />
<path d="M358.9,44.4h.9v2.1h-.9V44.4Z" class="g6_1" />
<path d="M361.6,45c-.1,0,-.1,-.1,-.2,-.1c0,0,-.1,0,-.2,0c-.1,0,-.2,0,-.2,.1c0,.3,1.4,.1,1.4,.9c0,.5,-.5,.7,-1.2,.7c-.6,0,-1,-.3,-1.1,-.7h.8c0,.1,.1,.1,.2,.2c0,0,.1,0,.2,0c.2,0,.3,-.1,.3,-.1c0,-.4,-1.4,-.1,-1.4,-.9c0,-.5,.4,-.7,1.1,-.7c.7,0,1,.3,1,.6Z" class="g6_1" />
<path d="M362.7,46.5V44.4h1l.5,1.3l.4,-1.3h1v2.1h-.8v-.6l.1,-.3v-.4l-.5,1.3h-.5l-.5,-1.3v.3l.1,.3v.7Z" class="g6_1" />
<path d="M367.3,45c0,0,0,-.1,-.1,-.1q-.1,0,-.2,0c-.2,0,-.3,0,-.3,.1c0,.3,1.5,.1,1.5,.9c0,.5,-.5,.7,-1.2,.7c-.7,0,-1.1,-.3,-1.1,-.7h.8q0,.1,.1,.2c.1,0,.2,0,.3,0c.2,0,.3,-.1,.3,-.1c0,-.4,-1.4,-.1,-1.4,-.9c0,-.5,.4,-.7,1,-.7c.7,0,1,.3,1.1,.6Z" class="g6_1" />
<path d="M361.8,41.8h-.5c-.2,0,-.3,0,-.3,-.2c0,-.1,.1,-.2,.3,-.2h1.1v-.5q0,-.1,0,-.1h-1.1c-.5,0,-.9,.4,-.9,.8c0,.5,.4,.8,.9,.8h.5c.2,0,.3,.1,.3,.2c0,.2,-.1,.3,-.3,.3h-.4c-.1,0,-.2,0,-.2,0c-.2,0,-.3,-.1,-.3,-.2v-.1h-.5v.3c0,.3,.2,.5,.8,.5h.6c.5,0,.9,-.3,.9,-.8c0,-.4,-.4,-.8,-.9,-.8Z" class="g6_1" />
<path d="M368.1,41.8h-.6c-.2,0,-.3,0,-.3,-.2c0,-.1,.1,-.2,.3,-.2h1.1c0,0,.1,0,.1,0v-.5c0,-.1,-.1,-.1,-.1,-.1h-1.1c-.5,0,-.9,.4,-.9,.8c0,.5,.4,.8,.9,.8h.6c.1,0,.3,.1,.3,.2c0,.2,-.2,.3,-.3,.3h-.5c0,0,-.2,0,-.2,0c-.2,0,-.2,-.1,-.2,-.2v-.1h-.6v.3c0,.3,.2,.5,.9,.5h.6c.5,0,.8,-.3,.8,-.8c0,-.4,-.3,-.8,-.8,-.8Z" class="g6_1" />
<path d="M375.5,41.4h1.7v-.5q0,-.1,0,-.1h-1.7c-.5,0,-.9,.4,-.9,.8v1c0,.5,.4,.8,.9,.8h1.7v-.5q0,-.1,0,-.1h-1.7c-.1,0,-.3,-.1,-.3,-.2v-.9c0,-.1,.2,-.3,.3,-.3Z" class="g6_1" />
<path d="M371,41.8h-1.6v.5q0,.1,0,.1H371v-.6Z" class="g6_1" />
<path d="M365.4,40.8h-.2c-.2,0,-.4,.1,-.5,.2c-.2,-.1,-.3,-.2,-.5,-.2h-.3c-.4,0,-.8,.4,-.8,.9v1.7c0,0,.1,.1,.1,.1h.6c0,0,.1,-.1,.1,-.1V41.7c0,-.1,.1,-.3,.2,-.3h.1c.1,0,.2,.2,.2,.3v1.7c0,0,0,.1,0,.1h.5c0,0,.1,-.1,.1,-.1V41.7c0,-.1,.1,-.3,.2,-.3h.1c.1,0,.2,.2,.2,.3v1.7c0,0,0,.1,0,.1h.7c0,0,0,-.1,0,-.1V41.7c0,-.5,-.3,-.9,-.8,-.9Z" class="g6_1" />
<path d="M373.4,42h-1.2v-.3c0,-.2,.1,-.3,.2,-.3h.8c.1,0,.2,.2,.2,.3Zm-.1,-1.2h-1c-.5,0,-.8,.4,-.8,.9v1.7c0,0,0,.1,.1,.1h.5c0,0,.1,-.1,.1,-.1v-.8h1.2v.8c0,0,0,.1,0,.1h.6c0,0,0,-.1,0,-.1V41.7c0,-.5,-.3,-.9,-.7,-.9Z" class="g6_1" />
<path d="M359.8,41.7H359c0,0,-.1,0,-.1,.1v1.6c0,0,.1,.1,.1,.1h.8c0,0,0,-.1,0,-.1V41.8q0,-.1,0,-.1Z" class="g6_1" />
<path d="M359.8,40.8H359c0,0,-.1,0,-.1,0v.1c0,0,.1,0,.1,0h.8v-.1Z" class="g6_1" />
<path d="M359.8,41H359c0,0,-.1,0,-.1,.1c0,.1,.1,.1,.1,.1h.8v-.1q0,-.1,0,-.1Z" class="g6_1" />
<path d="M359.8,41.3H359c0,0,-.1,0,-.1,0v.1c0,0,.1,0,.1,0h.8v-.1Z" class="g6_1" />
<path d="M359.8,41.5H359c0,0,-.1,0,-.1,0v.1c0,0,.1,.1,.1,.1h.8c0,0,0,-.1,0,-.1v-.1Z" class="g6_1" />
<path d="M324.5,59.1c-.4,0,-.7,-.1,-.9,-.3c-.4,-.4,-.4,-.7,-.4,-1.4c0,-.8,0,-1.1,.4,-1.5c.2,-.2,.5,-.3,.9,-.3c.6,0,1.1,.4,1.2,1h-.5c-.1,-.3,-.3,-.6,-.7,-.6c-.2,0,-.4,.1,-.5,.3c-.2,.1,-.2,.4,-.2,1.1c0,.7,0,.9,.2,1.1c.1,.1,.3,.2,.5,.2c.4,0,.6,-.3,.7,-.6h.5c-.1,.7,-.6,1,-1.2,1Z" class="g0_1" />
<path d="M326.5,59.1V55.6h.5v3h1.7v.5Z" class="g0_1" />
<path d="M330.9,56.3c-.1,-.2,-.3,-.3,-.5,-.3c-.2,0,-.4,.1,-.5,.3c-.2,.1,-.2,.4,-.2,1.1c0,.7,0,.9,.2,1c.1,.2,.3,.3,.5,.3c.2,0,.4,-.1,.5,-.3c.2,-.1,.3,-.3,.3,-1c0,-.7,-.1,-1,-.3,-1.1m.4,2.5c-.2,.2,-.5,.3,-.9,.3c-.4,0,-.7,-.1,-.9,-.3c-.3,-.4,-.3,-.7,-.3,-1.4c0,-.8,0,-1.1,.3,-1.5c.2,-.2,.5,-.3,.9,-.3c.4,0,.7,.1,.9,.3c.4,.4,.4,.7,.4,1.5c0,.7,0,1,-.4,1.4Z" class="g0_1" />
<path d="M333.7,59.1c-.7,0,-1.3,-.4,-1.3,-1.2V55.6h.6v2.3c0,.5,.2,.8,.7,.8c.4,0,.7,-.3,.7,-.8V55.6h.6v2.3c0,.8,-.6,1.2,-1.3,1.2Z" class="g0_1" />
<path d="M337.6,56.3c-.2,-.2,-.4,-.2,-.6,-.2h-.7v2.5h.7c.2,0,.4,0,.6,-.2c.2,-.2,.2,-.5,.2,-1c0,-.6,0,-.9,-.2,-1.1m.5,2.4c-.3,.3,-.6,.4,-1,.4h-1.3V55.6h1.3c.4,0,.7,.1,1,.4c.2,.4,.2,.8,.2,1.4c0,.5,0,1,-.2,1.3Z" class="g0_1" />
<path d="M341.1,57.5c-.3,0,-.5,.2,-.5,.6c0,.4,.2,.6,.5,.6c.4,0,.6,-.2,.6,-.6c0,-.4,-.2,-.6,-.6,-.6m.1,1.6c-.7,0,-1.1,-.4,-1.1,-1c0,-.3,.1,-.6,.3,-.9l.8,-1.6h.5l-.7,1.5c0,0,.2,0,.3,0c.5,0,.9,.4,.9,1c0,.6,-.4,1,-1,1Z" class="g0_1" />
<path d="M343.8,56c-.3,0,-.5,.2,-.5,.6c0,.3,.2,.5,.5,.5c.3,0,.5,-.2,.5,-.5c0,-.4,-.2,-.6,-.5,-.6m0,1.5c-.3,0,-.6,.3,-.6,.6c0,.3,.3,.6,.6,.6c.3,0,.6,-.3,.6,-.6c0,-.3,-.3,-.6,-.6,-.6m0,1.6c-.6,0,-1.1,-.3,-1.1,-1c0,-.4,.2,-.7,.5,-.8c-.2,-.1,-.4,-.4,-.4,-.8c0,-.5,.4,-.9,1,-.9c.6,0,1,.4,1,.9c0,.4,-.2,.7,-.4,.8c.2,.1,.5,.4,.5,.8c0,.7,-.5,1,-1.1,1Z" class="g0_1" />
<path d="M346.3,59.1h-.5L347,56h-1.1v.6h-.5v-1h2.1V56Z" class="g0_1" />
<path d="M349,59.1v-3l-.7,.6v-.5l.7,-.6h.5v3.5Z" class="g0_1" />
<path d="M351.7,59.1c-.6,0,-1.1,-.3,-1.1,-.9h.5c0,.3,.3,.5,.6,.5c.3,0,.5,-.2,.5,-.6c0,-.3,-.2,-.6,-.6,-.6v-.4c.4,0,.6,-.2,.6,-.5c0,-.4,-.3,-.6,-.5,-.6c-.4,0,-.6,.2,-.6,.5h-.5c0,-.6,.5,-.9,1.1,-.9c.5,0,1,.4,1,.9c0,.4,-.2,.7,-.5,.8c.3,.1,.5,.4,.5,.8c0,.7,-.5,1,-1,1Z" class="g0_1" />
<path d="M353.3,59.1v-.4L354.7,57c.1,-.1,.2,-.3,.2,-.4c0,-.4,-.2,-.6,-.6,-.6c-.2,0,-.5,.2,-.5,.6h-.5c0,-.6,.4,-1,1,-1c.6,0,1.1,.3,1.1,1c0,.3,-.2,.4,-.4,.7l-1.1,1.4h1.5v.4Z" class="g0_1" />
<path d="M357.3,59.5h-.5l1.4,-4.3h.5Z" class="g0_1" />
<path d="M360.3,55.6h.6v3.5h-.6V55.6Z" class="g0_1" />
<path d="M362.7,59.1c-.5,0,-.9,-.1,-1.2,-.4l.3,-.4c.3,.3,.6,.4,.9,.4c.5,0,.8,-.2,.8,-.6c0,-.1,-.1,-.3,-.2,-.3c-.1,-.1,-.2,-.2,-.4,-.2h-.4c-.3,-.1,-.5,-.2,-.6,-.3c-.2,-.2,-.3,-.4,-.3,-.7c0,-.6,.4,-1,1.2,-1c.4,0,.8,.1,1.1,.4l-.4,.3c-.2,-.2,-.4,-.3,-.7,-.3c-.5,0,-.7,.3,-.7,.6c0,.1,.1,.2,.2,.3c0,.1,.1,.1,.3,.2h.5c.3,.1,.5,.2,.6,.3c.2,.2,.3,.4,.3,.7c0,.7,-.5,1,-1.3,1Z" class="g0_1" />
<path d="M366.4,56.3c-.2,-.2,-.3,-.3,-.6,-.3c-.2,0,-.3,.1,-.5,.3c-.2,.1,-.2,.4,-.2,1.1c0,.7,0,.9,.2,1c.2,.2,.3,.3,.5,.3c.3,0,.4,-.1,.6,-.3c.1,-.1,.2,-.3,.2,-1c0,-.7,-.1,-1,-.2,-1.1m.4,2.5c-.3,.2,-.6,.3,-1,.3c-.3,0,-.6,-.1,-.9,-.3c-.3,-.4,-.3,-.7,-.3,-1.4c0,-.8,0,-1.1,.3,-1.5c.3,-.2,.6,-.3,.9,-.3c.4,0,.7,.1,1,.3c.3,.4,.3,.7,.3,1.5c0,.7,0,1,-.3,1.4Z" class="g0_1" />
<path d="M368.9,59.1v-.4L370.3,57c.1,-.1,.2,-.3,.2,-.4c0,-.4,-.2,-.6,-.5,-.6c-.3,0,-.6,.2,-.6,.6h-.5c0,-.6,.5,-1,1.1,-1c.6,0,1,.3,1,1c0,.3,-.1,.4,-.3,.7l-1.1,1.4H371v.4Z" class="g0_1" />
<path d="M372.5,59.1h-.6L373.1,56h-1v.6h-.5v-1h2.1V56Z" class="g0_1" />
<path d="M375.7,56.6c0,-.3,-.2,-.6,-.5,-.6c-.3,0,-.5,.3,-.5,.6v1.5c0,.4,.2,.6,.5,.6c.3,0,.5,-.2,.5,-.6Zm-.5,2.5c-.5,0,-1,-.3,-1,-1V56.6c0,-.7,.5,-1,1,-1c.6,0,1,.3,1,1v1.5c0,.7,-.4,1,-1,1Z" class="g0_1" />
<path d="M377.8,59.1v-3l-.7,.6v-.5l.7,-.6h.5v3.5Z" class="g0_1" />
<path d="M380.4,59.1h-.6L381,56h-1v.6h-.5v-1h2.1V56Z" class="g0_1" />
<path d="M325.2,62.1c-.2,0,-.3,0,-.4,0v-.2c.1,0,.2,0,.4,0h.6v-.5c0,-.2,0,-.3,0,-.4h.3c0,.1,-.1,.2,-.1,.4v.5h.2c.1,0,.2,0,.3,0v.2c-.1,0,-.2,0,-.3,0H326v2.1q0,.2,-.4,.2c-.1,0,-.3,0,-.4,0q0,-.1,-.1,-.2c.2,0,.4,0,.6,0q.1,0,.1,-.1v-2Zm-.3,.3c.3,.3,.4,.5,.6,.9l-.2,.1c-.2,-.4,-.3,-.5,-.5,-.9Zm-1.1,-1c0,-.3,0,-.4,0,-.5h.2c0,.2,0,.3,0,.5v.2h.4c.2,0,.3,0,.4,0v.2c-.1,0,-.2,0,-.4,0c0,.5,-.1,.9,-.3,1.3c.3,.3,.4,.5,.6,.8l-.2,.2c-.1,-.3,-.3,-.6,-.5,-.8c-.2,.4,-.5,.8,-.9,1.1c0,-.1,-.1,-.1,-.2,-.2c.4,-.2,.6,-.4,.8,-.7c.1,-.1,.1,-.2,.2,-.4c-.3,-.3,-.4,-.5,-.7,-.8l.1,-.1c.3,.2,.4,.4,.7,.7c.1,-.3,.2,-.6,.2,-1.1h-.9c-.1,0,-.2,0,-.3,0v-.2c.1,0,.2,0,.3,0h.5Z" class="g0_1" />
<path d="M330,61.9h-1.1v.5H330v-.5Zm-1.3,0h-1v.5h1v-.5Zm.1,-.2c.1,-.1,.2,-.2,.4,-.4h-1.1c-.2,.2,-.3,.3,-.5,.4Zm.4,.9c0,.2,.1,.4,.2,.6c.3,-.2,.6,-.4,.7,-.5l.2,.1c-.1,0,-.1,.1,-.3,.2c-.1,.1,-.3,.2,-.5,.3c.1,.2,.3,.3,.4,.5c.2,.1,.4,.2,.7,.3q-.1,.1,-.2,.2c-.4,-.2,-.6,-.3,-.8,-.6c-.3,-.3,-.5,-.7,-.6,-1.1h-.1c-.1,0,-.2,.1,-.3,.1c.3,.4,.5,.8,.5,1.2c0,.3,-.1,.5,-.2,.6c-.1,0,-.2,0,-.4,0c-.1,0,-.2,0,-.3,0q0,-.1,-.1,-.2c.2,0,.3,0,.4,0q.2,0,.3,0c0,-.1,.1,-.2,.1,-.4q0,-.1,0,-.2c-.5,.3,-1.1,.5,-1.7,.7q-.1,-.1,-.1,-.2c.6,-.1,1.2,-.4,1.7,-.7c0,-.1,0,-.2,-.1,-.3c-.5,.3,-.8,.4,-1.5,.6q0,-.1,-.1,-.2c.6,-.1,1.1,-.3,1.5,-.6c0,-.1,-.1,-.1,-.2,-.2c-.4,.2,-.7,.3,-1.2,.4c0,-.1,-.1,-.1,-.1,-.2c.6,-.1,1.1,-.2,1.5,-.4h-.7c-.2,0,-.3,0,-.5,0c0,-.1,.1,-.2,.1,-.4v-.3q-.2,.1,-.4,.2Q327,62,327,61.9c.4,-.2,.6,-.4,.9,-.7c.2,-.1,.2,-.2,.3,-.4l.2,.1q0,.1,0,.1q-.1,.1,-.2,.2h.8c.2,0,.3,0,.3,-.1l.2,.2l-.2,.2c-.1,.1,-.2,.2,-.3,.2h.8c.2,0,.3,0,.4,0c0,.1,0,.2,0,.3v.2c0,.2,0,.3,0,.4c-.1,0,-.2,0,-.4,0Z" class="g0_1" />
<path d="M333.3,61.9v-.4q0,-.3,0,-.4h.3q0,.1,0,.4q0,.1,0,.4h.4c.2,0,.3,0,.4,0v.2c-.1,0,-.3,0,-.4,0h-.4q0,.6,-.1,.8c0,.5,-.2,.8,-.5,1.1c-.2,.1,-.4,.2,-.7,.3q-.1,-.1,-.2,-.2c.4,-.1,.6,-.2,.8,-.4c.3,-.2,.4,-.5,.4,-1c0,-.1,0,-.3,0,-.6h-1.2v.7q0,.2,0,.3h-.3q0,-.1,0,-.3v-.7h-.3c-.2,0,-.3,0,-.5,0v-.2c.2,0,.3,0,.5,0h.3v-.5c0,-.1,0,-.2,0,-.3h.3q0,.1,0,.3v.5Z" class="g0_1" />
<path d="M335.1,62.6q.1,0,.4,0h2.4q.3,0,.4,0v.2q-.1,0,-.4,0h-2.4q-.3,0,-.4,0Z" class="g0_1" />
<path d="M342.1,60.9c.2,.2,.3,.3,.4,.5l-.2,.1c-.1,-.2,-.2,-.3,-.4,-.5Zm-.4,.1c.2,.2,.3,.4,.4,.6l-.2,.1c-.1,-.2,-.2,-.4,-.3,-.6Zm-1.9,1.5c.4,-.1,.8,-.2,1.3,-.4c.3,-.2,.5,-.3,.6,-.4l.2,.2q-.1,.1,-.2,.1c-.6,.4,-1.2,.6,-1.9,.7v.7c0,.3,0,.4,.1,.4c0,.1,.1,.1,.3,.2c.1,0,.3,0,.5,0c.2,0,.5,0,.9,-.1c.1,0,.2,0,.3,-.1l.1,.3q-.1,0,-.3,0c-.4,.1,-.8,.1,-1.1,.1c-.5,0,-.8,-.1,-.9,-.2c-.1,0,-.1,-.2,-.2,-.3c0,-.1,0,-.2,0,-.3V61.5c0,-.1,0,-.2,0,-.3h.3c0,.1,0,.2,0,.3Z" class="g0_1" />
<path d="M346.1,64.2c-.4,-.4,-.8,-.8,-1.3,-1.2c-.3,.3,-.5,.5,-.8,.7c-.3,.2,-.5,.3,-.8,.5c0,-.1,-.1,-.1,-.1,-.2c.3,-.1,.5,-.3,.8,-.5c.6,-.5,1.1,-1.1,1.4,-1.8c0,0,0,-.1,0,-.1h-1.4c-.2,0,-.3,0,-.4,.1v-.3q.1,0,.3,0h1.5c.1,0,.2,0,.2,0l.2,.1c-.1,0,-.1,.1,-.1,.2c-.2,.5,-.4,.7,-.7,1.1c.6,.4,.9,.8,1.3,1.2Z" class="g0_1" />
<path d="M348,63.8h.3v.4H348v-.4Zm.3,-1.4H348v-.3h.3v.3Z" class="g0_1" />
<path d="M324.9,66.9c-.2,0,-.3,0,-.4,0v-.2c.2,0,.3,0,.5,0c.2,0,.3,0,.5,0c-.1,.1,-.1,.2,-.1,.4v.4c0,.1,0,.2,.1,.4c-.3,.1,-.4,.2,-.6,.2c-.1,.1,-.4,.1,-.6,.1c-.3,0,-.6,-.1,-.8,-.2c-.3,-.3,-.5,-.8,-.5,-1.3c0,-1,.5,-1.6,1.3,-1.6c.4,0,.7,.1,.9,.3c.1,.1,.2,.2,.3,.4l-.3,.1c-.1,-.4,-.4,-.6,-.9,-.6c-.3,0,-.5,.1,-.7,.3c-.2,.3,-.4,.6,-.4,1.1c0,.5,.2,.9,.6,1.1c.1,.1,.3,.2,.6,.2c.3,0,.5,-.1,.8,-.2v-.9Z" class="g0_1" />
<path d="M326.3,65.2c0,.1,0,.2,0,.4v2.1c0,.2,0,.3,0,.5H326c0,-.2,0,-.3,0,-.5V65.6c0,-.2,0,-.3,0,-.4Z" class="g0_1" />
<path d="M328.4,67.9c0,-.1,.1,-.1,.1,-.2c-.2,.3,-.5,.5,-.8,.5c-.5,0,-.8,-.3,-.8,-.7v-1c0,-.2,0,-.3,0,-.4h.3c0,.1,0,.2,0,.4v.9c0,.4,.2,.6,.5,.6c.2,0,.4,-.1,.6,-.3c.1,-.2,.1,-.3,.1,-.5v-.7c0,-.2,0,-.3,0,-.4h.3c0,.1,0,.2,0,.4v1.2c0,.2,0,.3,0,.5h-.3Z" class="g0_1" />
<path d="M330.8,66.9c0,-.2,0,-.3,-.1,-.4c-.1,-.2,-.3,-.3,-.5,-.3c-.4,0,-.7,.3,-.7,.7Zm-1.3,.2c0,.3,0,.5,.1,.6c.1,.2,.4,.3,.6,.3c.2,0,.4,-.1,.5,-.2c.1,-.1,.1,-.2,.2,-.3l.2,.1c-.1,.2,-.1,.3,-.2,.3c-.2,.2,-.4,.3,-.7,.3c-.6,0,-1,-.4,-1,-1.1c0,-.7,.4,-1.1,1,-1.1c.4,0,.8,.3,.9,.8c0,0,0,.2,0,.3Z" class="g0_1" />
<path d="M332.5,68c.4,0,.7,-.4,.7,-.9c0,-.5,-.3,-.9,-.7,-.9c-.5,0,-.8,.4,-.8,.9c0,.5,.3,.9,.8,.9m1,-1.9c0,.1,0,.2,0,.4v1.4c0,.4,-.1,.7,-.2,.8c-.2,.2,-.5,.3,-.8,.3c-.4,0,-.6,-.1,-.9,-.4l.2,-.1q.1,.1,.1,.1c.2,.2,.4,.2,.6,.2c.3,0,.6,-.1,.7,-.4q0,-.2,.1,-.7c-.1,.1,-.1,.2,-.2,.3c-.2,.1,-.4,.2,-.6,.2c-.6,0,-1,-.4,-1,-1.1c0,-.7,.4,-1.1,1,-1.1c.3,0,.6,.2,.8,.5q0,-.1,0,-.2v-.2Z" class="g0_1" />
<path d="M335.6,66.9c0,-.2,0,-.3,-.1,-.4c-.1,-.2,-.3,-.3,-.5,-.3c-.4,0,-.7,.3,-.7,.7Zm-1.4,.2c.1,.3,.1,.5,.2,.6c.1,.2,.3,.3,.6,.3c.2,0,.4,-.1,.5,-.2c.1,-.1,.1,-.2,.2,-.3l.2,.1c-.1,.2,-.1,.3,-.2,.3c-.2,.2,-.4,.3,-.7,.3c-.6,0,-1,-.4,-1,-1.1c0,-.7,.4,-1.1,.9,-1.1c.5,0,.9,.3,1,.8c0,0,0,.2,0,.3Z" class="g0_1" />
<path d="M336.4,68.2c0,-.2,0,-.3,0,-.5V66.5c0,-.2,0,-.3,0,-.5h.3v.4c0,0,0,.1,-.1,.1c.1,-.1,.2,-.2,.2,-.3c.2,-.1,.4,-.2,.7,-.2c.4,0,.7,.3,.7,.7v1c0,.2,0,.3,0,.5h-.3c0,-.2,0,-.3,0,-.5v-.9c0,-.4,-.1,-.6,-.5,-.6c-.2,0,-.4,.1,-.6,.4c-.1,.1,-.1,.2,-.1,.4v.7c0,.2,0,.3,0,.5Z" class="g0_1" />
<path d="M339.3,65.5c0,.1,0,.2,0,.4V66h.2c.2,0,.3,0,.4,0v.3c-.1,0,-.2,0,-.4,0h-.2v1.4c0,.1,0,.2,.1,.2c0,.1,.1,.1,.2,.1q.1,0,.3,-.1l.1,.2c-.2,.1,-.3,.1,-.5,.1c-.1,0,-.3,0,-.3,-.1c-.1,-.1,-.1,-.2,-.1,-.4V66.3h-.2c-.1,0,-.2,0,-.4,0V66q.2,0,.4,0h.2v-.1c0,-.2,0,-.3,-.1,-.4Z" class="g0_1" />
<path d="M343.5,66.9c-.2,0,-.3,0,-.4,0v-.2c.1,0,.2,0,.4,0h.1c.2,0,.3,0,.4,0c0,.1,0,.2,0,.4v.4c0,.1,0,.2,0,.4c-.2,.1,-.3,.2,-.5,.2c-.1,.1,-.4,.1,-.6,.1c-.3,0,-.6,-.1,-.8,-.2c-.4,-.3,-.5,-.8,-.5,-1.3c0,-1,.5,-1.6,1.3,-1.6c.4,0,.7,.1,.9,.3c.1,.1,.2,.2,.2,.4l-.2,.1c-.1,-.4,-.4,-.6,-.9,-.6c-.3,0,-.5,.1,-.7,.3c-.2,.3,-.4,.6,-.4,1.1c0,.5,.2,.9,.6,1.1c.1,.1,.3,.2,.5,.2c.4,0,.6,-.1,.9,-.2v-.9Z" class="g0_1" />
<path d="M346,67.1c-.5,0,-.7,0,-.9,.1c-.2,.1,-.3,.2,-.3,.4c0,.2,.2,.4,.5,.4c.2,0,.5,-.1,.6,-.3c.1,-.1,.1,-.2,.1,-.4Zm0,.8c-.1,.1,-.2,.2,-.4,.2c-.1,.1,-.2,.1,-.4,.1c-.4,0,-.6,-.2,-.6,-.6c0,-.3,.2,-.5,.6,-.6c.2,-.1,.4,-.1,.8,-.1v-.3c0,-.3,-.2,-.4,-.5,-.4c-.2,0,-.4,.1,-.5,.2c-.1,0,-.1,.1,-.1,.2h-.3c.1,-.2,.1,-.3,.2,-.4c.2,-.1,.4,-.2,.7,-.2c.5,0,.8,.2,.8,.6v1.1c0,.2,0,.3,0,.5H346Z" class="g0_1" />
<path d="M347.4,65.5c0,.1,0,.2,0,.4V66h.2q.2,0,.4,0v.3c-.1,0,-.2,0,-.4,0h-.2v1.4c0,.1,0,.2,0,.2q.1,.1,.2,.1c.1,0,.2,0,.3,-.1l.1,.2c-.1,.1,-.3,.1,-.4,.1c-.2,0,-.3,0,-.4,-.1c0,-.1,-.1,-.2,-.1,-.4V66.3H347c-.2,0,-.3,0,-.4,0V66c.1,0,.2,0,.4,0h.1v-.1c0,-.2,0,-.3,0,-.4Z" class="g0_1" />
<path d="M349.9,66.9c0,-.2,0,-.3,-.1,-.4c-.2,-.2,-.4,-.3,-.6,-.3c-.4,0,-.6,.3,-.7,.7Zm-1.4,.2c0,.3,.1,.5,.2,.6c.1,.2,.3,.3,.6,.3c.2,0,.4,-.1,.5,-.2c.1,-.1,.1,-.2,.1,-.3l.3,.1c-.1,.2,-.2,.3,-.2,.3c-.2,.2,-.5,.3,-.7,.3c-.6,0,-1,-.4,-1,-1.1c0,-.7,.3,-1.1,.9,-1.1c.5,0,.9,.3,1,.8c0,0,0,.2,0,.3Z" class="g0_1" />
<path d="M353.5,65.2L352,68.8h-.2l1.4,-3.6Z" class="g0_1" />
<path d="M357.1,66.9q-.3,0,-.5,0v-.2c.2,0,.3,0,.5,0h.1c.1,0,.2,0,.4,0c-.1,.1,-.1,.2,-.1,.4v.4c0,.1,0,.2,.1,.4c-.3,.1,-.4,.2,-.5,.2c-.2,.1,-.4,.1,-.6,.1c-.4,0,-.7,-.1,-.9,-.2c-.3,-.3,-.5,-.8,-.5,-1.3c0,-1,.5,-1.6,1.4,-1.6c.3,0,.6,.1,.8,.3c.1,.1,.2,.2,.3,.4l-.3,.1c-.1,-.4,-.4,-.6,-.9,-.6c-.3,0,-.5,.1,-.7,.3c-.2,.3,-.4,.6,-.4,1.1c0,.5,.2,.9,.6,1.1c.1,.1,.3,.2,.6,.2c.3,0,.5,-.1,.8,-.2v-.9Z" class="g0_1" />
<path d="M358.4,65.2c0,.1,0,.2,0,.4v2.1c0,.2,0,.3,0,.5h-.3c0,-.2,.1,-.3,.1,-.5V65.6c0,-.2,-.1,-.3,-.1,-.4Z" class="g0_1" />
<path d="M360.6,67.9q0,-.1,0,-.2c-.2,.3,-.5,.5,-.8,.5c-.5,0,-.8,-.3,-.8,-.7v-1c0,-.2,0,-.3,0,-.4h.3c0,.1,0,.2,0,.4v.9c0,.4,.2,.6,.5,.6c.2,0,.4,-.1,.6,-.3c.1,-.2,.1,-.3,.2,-.5v-.7c0,-.2,0,-.3,-.1,-.4h.3c0,.1,0,.2,0,.4v1.2c0,.2,0,.3,0,.5h-.2Z" class="g0_1" />
<path d="M363,66.9c-.1,-.2,-.1,-.3,-.2,-.4c-.1,-.2,-.3,-.3,-.5,-.3c-.4,0,-.7,.3,-.7,.7Zm-1.4,.2c0,.3,0,.5,.1,.6c.2,.2,.4,.3,.6,.3c.2,0,.4,-.1,.5,-.2c.1,-.1,.1,-.2,.2,-.3l.2,.1c-.1,.2,-.1,.3,-.2,.3c-.2,.2,-.4,.3,-.7,.3c-.6,0,-1,-.4,-1,-1.1c0,-.7,.4,-1.1,1,-1.1c.5,0,.8,.3,.9,.8c0,0,0,.2,0,.3Z" class="g0_1" />
<path d="M363.8,66.3c-.1,0,-.2,0,-.3,0V66c.1,0,.2,.1,.3,.1h.2v-.3c0,-.2,0,-.4,.1,-.5c.1,-.1,.2,-.2,.5,-.2c.1,0,.2,.1,.4,.1l-.1,.2c-.1,0,-.2,-.1,-.3,-.1c-.2,0,-.3,.1,-.3,.2c0,0,-.1,.1,-.1,.3v.3h.2c.2,0,.3,-.1,.5,-.1v.3c-.2,0,-.3,0,-.5,0h-.2v1.4c0,.2,0,.3,.1,.5H364c0,-.2,0,-.3,0,-.5V66.3Z" class="g0_1" />
<path d="M366.9,66.9c-.1,-.2,-.1,-.3,-.2,-.4c-.1,-.2,-.3,-.3,-.5,-.3c-.4,0,-.7,.3,-.7,.7Zm-1.4,.2c0,.3,0,.5,.1,.6c.2,.2,.4,.3,.6,.3c.2,0,.4,-.1,.5,-.2c.1,-.1,.1,-.2,.2,-.3l.2,.1c-.1,.2,-.1,.3,-.2,.3c-.2,.2,-.4,.3,-.7,.3c-.6,0,-1,-.4,-1,-1.1c0,-.7,.4,-1.1,1,-1.1c.5,0,.8,.3,.9,.8c0,0,0,.2,0,.3Z" class="g0_1" />
<path d="M367.6,68.2c0,-.2,0,-.3,0,-.5V66.5c0,-.2,0,-.3,0,-.5h.3v.4c0,0,0,.1,0,.1c0,-.1,.1,-.2,.2,-.3c.1,-.1,.3,-.2,.6,-.2c.4,0,.7,.3,.7,.7v1c0,.2,0,.3,0,.5h-.3c0,-.2,.1,-.3,.1,-.5v-.9c0,-.4,-.2,-.6,-.6,-.6c-.2,0,-.4,.1,-.6,.4c-.1,.1,-.1,.2,-.1,.4v.7c0,.2,0,.3,0,.5Z" class="g0_1" />
<path d="M370.6,65.5c-.1,.1,-.1,.2,-.1,.4V66h.2c.2,0,.3,0,.4,0v.3c-.1,0,-.2,0,-.4,0h-.2v1.4c0,.1,0,.2,.1,.2c0,.1,.1,.1,.2,.1c.1,0,.2,0,.3,-.1l.1,.2c-.2,.1,-.3,.1,-.5,.1c-.1,0,-.2,0,-.3,-.1c-.1,-.1,-.1,-.2,-.1,-.4V66.3h-.2c-.1,0,-.2,0,-.3,0V66c.1,0,.2,0,.3,0h.2v-.1c0,-.2,0,-.3,0,-.4Z" class="g0_1" />
<path d="M373.2,67.7c0,.2,0,.3,0,.5h-.3c0,-.2,0,-.3,0,-.5V65.6c0,-.2,0,-.3,0,-.4c.1,0,.2,0,.4,0h1c.2,0,.3,0,.5,-.1v.3c-.2,0,-.3,0,-.5,0h-1.1v1.1h.9c.2,0,.3,0,.5,0v.2c-.2,0,-.3,0,-.5,0h-.9Z" class="g0_1" />
<path d="M375.5,65.2c0,.1,0,.2,0,.4v2.1c0,.2,0,.3,0,.5h-.3c0,-.2,0,-.3,0,-.5V65.6c0,-.2,0,-.3,0,-.4Z" class="g0_1" />
<path d="M376.2,67.1c0,.6,.3,.9,.8,.9c.5,0,.8,-.3,.8,-.9c0,-.5,-.3,-.9,-.8,-.9c-.5,0,-.8,.4,-.8,.9m-.2,0c0,-.7,.4,-1.1,1,-1.1c.7,0,1.1,.4,1.1,1.1c0,.7,-.4,1.1,-1.1,1.1c-.6,0,-1,-.4,-1,-1.1Z" class="g0_1" />
<path d="M380.3,68.2c0,-.1,0,-.2,-.1,-.3l-.4,-1.2q0,-.1,0,-.3q-.1,.2,-.1,.3l-.4,1.2c-.1,.1,-.1,.2,-.1,.3H379q-.1,-.1,-.1,-.3l-.4,-1.4c-.1,-.1,-.2,-.3,-.2,-.5h.3c0,.2,0,.3,.1,.5l.3,1q0,.1,.1,.3c0,-.1,0,-.2,.1,-.3l.4,-1.2c0,-.1,0,-.2,0,-.3h.3c0,.1,0,.2,0,.3l.4,1.2c0,.1,.1,.1,.1,.3c0,-.1,.1,-.2,.1,-.3l.3,-1c0,-.2,.1,-.3,.1,-.5h.3c0,.1,-.1,.2,-.2,.5l-.4,1.4c0,.1,-.1,.2,-.1,.3Z" class="g0_1" />
<path d="M207.3,225.4c5.4,0,8.4,-4.5,8.4,-8.4c0,-.1,0,-.2,0,-.3c.5,-.5,1,-1,1.4,-1.6c-.5,.3,-1.1,.4,-1.7,.5c.7,-.4,1.1,-.9,1.3,-1.6c-.5,.3,-1.2,.6,-1.8,.7c-.6,-.6,-1.3,-.9,-2.2,-.9c-1.6,0,-2.9,1.3,-2.9,2.9c0,.2,0,.5,.1,.7c-2.5,-.2,-4.7,-1.3,-6.1,-3.1c-.3,.4,-.4,.9,-.4,1.5c0,1,.5,1.9,1.3,2.4c-.5,0,-.9,-.1,-1.3,-.3c0,1.4,1,2.6,2.3,2.9c-.2,0,-.5,.1,-.7,.1c-.2,0,-.4,0,-.6,-.1c.4,1.2,1.5,2,2.8,2.1c-1.1,.8,-2.3,1.2,-3.7,1.2c-.2,0,-.5,0,-.7,0c1.3,.8,2.8,1.3,4.5,1.3Z" class="g1_1" />
<path fill-rule="evenodd" d="M171.6,212.7c-3.8,0,-6.8,3,-6.8,6.8c0,2.9,1.9,5.5,4.6,6.4c.4,0,.5,-.2,.5,-.4c0,-.1,0,-.5,0,-1.1c-1.9,.4,-2.3,-.9,-2.3,-.9c-.3,-.8,-.7,-1,-.7,-1c-.7,-.4,0,-.4,0,-.4c.7,0,1,.7,1,.7c.6,1,1.6,.7,2,.5c.1,-.4,.2,-.7,.4,-.9c-1.5,-.1,-3,-.7,-3,-3.3c0,-.7,.2,-1.3,.7,-1.8c-.1,-.2,-.4,-.8,0,-1.8c0,0,.6,-.2,1.9,.7c.5,-.1,1.1,-.2,1.7,-.2c.5,0,1.1,.1,1.6,.2c1.3,-.9,1.9,-.7,1.9,-.7c.4,1,.1,1.6,.1,1.8c.4,.5,.7,1.1,.7,1.8c0,2.6,-1.6,3.2,-3.1,3.3c.2,.2,.4,.7,.4,1.3c0,.9,0,1.6,0,1.8c0,.2,.1,.4,.5,.4c2.7,-.9,4.6,-3.5,4.6,-6.4c0,-3.8,-3,-6.8,-6.7,-6.8Z" class="g0_1" />
<path d="M196.7,213H185.1c-.4,0,-.7,.3,-.7,.7v11.6c0,.4,.3,.7,.7,.7h6.3v-5h-1.7v-2h1.7v-1.4c0,-1.7,1,-2.6,2.5,-2.6c.7,0,1.3,0,1.5,.1v1.7h-1c-.8,0,-1,.4,-1,1V219h1.9l-.2,2h-1.7v5h3.3c.4,0,.7,-.3,.7,-.7V213.7c0,-.4,-.3,-.7,-.7,-.7Z" class="g7_1" />

</svg>
