<?xml version="1.0" encoding="UTF-8" standalone="no"?>
<!DOCTYPE svg PUBLIC "-//W3C//DTD SVG 1.1//EN"
"http://www.w3.org/Graphics/SVG/1.1/DTD/svg11.dtd">


<!-- Page 2 -->
<svg x="0" y="0" width="394" height="238" viewBox="0 0 394 238" version="1.1" xmlns="http://www.w3.org/2000/svg" xmlns:xlink="http://www.w3.org/1999/xlink"
style="display: block;margin-left: auto;margin-right: auto;">
<defs>
<clipPath id="c0_2"><path d="M0,238.2V0H394.1V238.2Z" /></clipPath>

<style type="text/css"><![CDATA[

.g0_2{
fill: #0094D9;
}
.g1_2{
fill: #FFFFFF;
fill-opacity: 0.30000302;
}
.g2_2{
fill: #FFFFFF;
}
.g3_2{
fill: none;
stroke: #FFFFFF;
stroke-width: 0.9166667;
stroke-linecap: butt;
stroke-linejoin: miter;
stroke-opacity: 0.5;
}

]]></style>

</defs>
<path d="M0,0
L0,238
L394,238
L394,0 Z " 
fill="#FFFFFF" stroke="none" />
<path d="M0,238.2H394.1V0H0V238.2Z" class="g0_2" />
<path d="M11.5,209.2l4.8,17.9h.1V209.2h7.1v29H15.2l-5,-17.9h-.1v17.9H3v-29Z" class="g1_2" />
<g clip-path="url(#c0_2)">
<path d="M33.9,230.6c0,.9,.1,1.6,.3,2.1c.1,.5,.4,.9,.6,1.1c.3,.2,.6,.3,1,.3c.4,0,.8,-.1,1,-.3c.3,-.2,.5,-.6,.6,-1.1c.2,-.5,.3,-1.2,.4,-2.1c0,-.9,0,-2,0,-3.4c0,-1.3,0,-2.5,0,-3.4c-.1,-.9,-.2,-1.6,-.4,-2.1c-.1,-.5,-.3,-.8,-.6,-1c-.2,-.2,-.6,-.3,-1,-.3c-.4,0,-.7,.1,-1,.3c-.2,.2,-.5,.5,-.6,1c-.2,.5,-.3,1.2,-.3,2.1c-.1,.9,-.1,2.1,-.1,3.4c0,1.4,0,2.5,.1,3.4m10.9,.9c-.2,1.3,-.6,2.6,-1.2,3.6c-.7,1.1,-1.6,1.9,-2.9,2.6c-1.2,.6,-2.8,.9,-4.9,.9c-2.1,0,-3.8,-.3,-5.1,-.8c-1.2,-.6,-2.1,-1.4,-2.8,-2.5c-.6,-1,-1,-2.2,-1.2,-3.6c-.1,-1.4,-.2,-2.9,-.2,-4.5c0,-1.4,.1,-2.8,.3,-4.2c.2,-1.4,.6,-2.6,1.3,-3.7c.6,-1.1,1.5,-2,2.8,-2.6c1.2,-.7,2.9,-1,4.9,-1c2.1,0,3.8,.3,5.1,.9c1.2,.6,2.2,1.4,2.8,2.5c.6,1,1,2.3,1.2,3.7c.1,1.3,.2,2.8,.2,4.4c0,1.5,-.1,2.9,-.3,4.3Z" class="g1_2" />
<path d="M70.2,214.7c-.4,-.6,-.9,-.9,-1.6,-.9c-.6,0,-1,.1,-1.4,.4c-.3,.3,-.6,.8,-.8,1.6c-.1,.8,-.2,1.8,-.3,3.1c-.1,1.2,-.1,2.9,-.1,4.8c0,2,0,3.6,.1,4.9c.1,1.2,.2,2.3,.3,3c.2,.8,.5,1.3,.8,1.6c.4,.3,.8,.4,1.4,.4c.4,0,.8,-.1,1.1,-.3c.3,-.2,.5,-.6,.7,-1.2c.2,-.5,.3,-1.2,.3,-2.1c.1,-.9,.1,-2.1,.1,-3.5h7.3v2.2c0,2,-.2,3.7,-.8,5c-.5,1.3,-1.2,2.3,-2.1,3c-.9,.8,-1.9,1.3,-3.1,1.5c-1.1,.3,-2.3,.4,-3.5,.4c-2.1,0,-3.9,-.2,-5.2,-.7C62,237.4,61,236.5,60.2,235.3c-.7,-1.2,-1.3,-2.8,-1.5,-4.7c-.3,-1.9,-.5,-4.2,-.5,-6.9c0,-2.7,.2,-5.1,.5,-7c.4,-1.9,1,-3.5,1.8,-4.7c.8,-1.2,1.8,-2,3.2,-2.5c1.3,-.6,2.9,-.8,4.9,-.8c1.7,0,3.1,.2,4.3,.6c1.2,.4,2.2,1.1,2.9,1.9c.8,.8,1.3,1.7,1.6,2.8c.4,1.2,.5,2.4,.5,3.8v1.9H70.6V218c0,-1.6,-.1,-2.7,-.4,-3.3Z" class="g1_2" />
</g>
<path d="M88.4,238.2H81.1v-29h7.3v29Z" class="g1_2" />
<g clip-path="url(#c0_2)">
<path d="M98.5,230.6c.1,.9,.2,1.6,.4,2.1c.1,.5,.3,.9,.6,1.1c.3,.2,.6,.3,1,.3c.4,0,.7,-.1,1,-.3c.3,-.2,.5,-.6,.6,-1.1c.2,-.5,.3,-1.2,.3,-2.1c.1,-.9,.1,-2,.1,-3.4c0,-1.3,0,-2.5,-.1,-3.4c0,-.9,-.1,-1.6,-.3,-2.1c-.1,-.5,-.3,-.8,-.6,-1c-.3,-.2,-.6,-.3,-1,-.3c-.4,0,-.7,.1,-1,.3c-.3,.2,-.5,.5,-.6,1c-.2,.5,-.3,1.2,-.4,2.1c0,.9,0,2.1,0,3.4c0,1.4,0,2.5,0,3.4m11,.9c-.2,1.3,-.6,2.6,-1.3,3.6c-.6,1.1,-1.6,1.9,-2.8,2.6c-1.2,.6,-2.9,.9,-4.9,.9c-2.1,0,-3.8,-.3,-5.1,-.8c-1.2,-.6,-2.2,-1.4,-2.8,-2.5c-.6,-1,-1,-2.2,-1.2,-3.6c-.2,-1.4,-.2,-2.9,-.2,-4.5c0,-1.4,.1,-2.8,.3,-4.2c.2,-1.4,.6,-2.6,1.2,-3.7c.7,-1.1,1.6,-2,2.9,-2.6c1.2,-.7,2.8,-1,4.9,-1c2.1,0,3.8,.3,5.1,.9c1.2,.6,2.1,1.4,2.8,2.5c.6,1,1,2.3,1.2,3.7c.1,1.3,.2,2.8,.2,4.4c0,1.5,-.1,2.9,-.3,4.3Z" class="g1_2" />
<path d="M119.8,216.2v14.5c0,.9,.1,1.6,.4,2c.3,.4,.7,.6,1.4,.6c.6,0,1.1,-.2,1.4,-.6c.2,-.4,.4,-1.1,.4,-2V216.2h7.3v22h-7.1v-2.7h-.1c-.9,2.1,-2.7,3.1,-5.3,3.1c-.8,0,-1.6,0,-2.2,-.2c-.7,-.1,-1.3,-.4,-1.8,-.9c-.6,-.4,-1,-1,-1.3,-1.8c-.3,-.8,-.4,-1.7,-.4,-2.9V216.2Z" class="g1_2" />
<path d="M140.7,230.2c.1,.7,.2,1.4,.3,1.8c.2,.5,.4,.8,.6,1c.3,.2,.7,.3,1.1,.3c.4,0,.7,-.1,1,-.3c.3,-.2,.5,-.5,.6,-1c.2,-.4,.3,-1.1,.3,-1.8c.1,-.8,.1,-1.8,.1,-3c0,-1.2,0,-2.1,-.1,-2.9c0,-.8,-.1,-1.4,-.3,-1.9c-.1,-.5,-.3,-.8,-.6,-1c-.3,-.2,-.6,-.3,-1,-.3c-.4,0,-.8,.1,-1.1,.3c-.2,.2,-.4,.5,-.6,1c-.1,.5,-.2,1.1,-.3,1.9c0,.8,-.1,1.7,-.1,2.9c0,1.2,.1,2.2,.1,3m11.3,-21v29h-7v-3h-.1c-.5,1.2,-1.1,2.1,-1.9,2.6c-.8,.6,-1.8,.8,-3.1,.8c-2.4,0,-4.1,-.9,-5.1,-2.8c-1,-2,-1.5,-5,-1.5,-9c0,-2.1,.2,-3.9,.5,-5.3c.3,-1.4,.8,-2.5,1.4,-3.4c.6,-.9,1.3,-1.5,2.1,-1.9c.8,-.3,1.8,-.5,2.8,-.5c1,0,1.9,.2,2.7,.6c.9,.5,1.5,1.3,1.8,2.4h.1v-9.5Z" class="g1_2" />
<path d="M162.7,226.8v7.3c0,2.5,-.5,4.5,-1.6,5.7c-1,1.3,-2.8,2,-5.2,2v-3.5c1,-.1,1.6,-.4,2,-.9c.4,-.6,.6,-1.4,.6,-2.5v-.3h-2.6v-7.8Z" class="g1_2" />
</g>
<path d="M184.6,209.2l4.9,17.9h.1V209.2h7v29h-8.2l-5.1,-17.9v17.9h-7.1v-29Z" class="g1_2" />
<g clip-path="url(#c0_2)">
<path d="M207,230.6c.1,.9,.2,1.6,.3,2.1c.2,.5,.4,.9,.7,1.1c.2,.2,.6,.3,1,.3c.4,0,.7,-.1,1,-.3c.3,-.2,.5,-.6,.6,-1.1c.2,-.5,.3,-1.2,.3,-2.1c.1,-.9,.1,-2,.1,-3.4c0,-1.3,0,-2.5,-.1,-3.4c0,-.9,-.1,-1.6,-.3,-2.1c-.1,-.5,-.3,-.8,-.6,-1c-.3,-.2,-.6,-.3,-1,-.3c-.4,0,-.8,.1,-1,.3c-.3,.2,-.5,.5,-.7,1c-.1,.5,-.2,1.2,-.3,2.1c0,.9,-.1,2.1,-.1,3.4c0,1.4,.1,2.5,.1,3.4m11,.9c-.2,1.3,-.6,2.6,-1.3,3.6c-.6,1.1,-1.6,1.9,-2.8,2.6c-1.2,.6,-2.9,.9,-4.9,.9c-2.2,0,-3.9,-.3,-5.1,-.8c-1.2,-.6,-2.2,-1.4,-2.8,-2.5c-.6,-1,-1,-2.2,-1.2,-3.6c-.2,-1.4,-.3,-2.9,-.3,-4.5c0,-1.4,.1,-2.8,.3,-4.2c.2,-1.4,.7,-2.6,1.3,-3.7c.7,-1.1,1.6,-2,2.8,-2.6c1.3,-.7,2.9,-1,5,-1c2.1,0,3.8,.3,5,.9c1.3,.6,2.2,1.4,2.8,2.5c.7,1,1.1,2.3,1.2,3.7c.2,1.3,.3,2.8,.3,4.4c0,1.5,-.1,2.9,-.3,4.3Z" class="g1_2" />
</g>
<path d="M242.1,232.8c.7,0,1.4,-.3,1.9,-.9c.5,-.6,.8,-1.5,.8,-2.7c0,-1.2,-.3,-2,-.8,-2.6c-.5,-.6,-1.2,-.9,-1.9,-.9H240v7.1Zm-.2,-12.2c.7,0,1.3,-.3,1.7,-.9c.4,-.6,.6,-1.2,.6,-2c0,-.8,-.2,-1.5,-.6,-2.1c-.4,-.6,-1,-.9,-1.7,-.9H240v5.9Zm2,-11.4c2.7,0,4.7,.7,6,2c1.2,1.3,1.9,3.1,1.9,5.3c0,.7,-.1,1.4,-.3,2.2c-.2,.7,-.4,1.3,-.8,1.9c-.3,.6,-.8,1.1,-1.4,1.5c-.6,.4,-1.2,.7,-2.1,.8v.1c1,.1,1.8,.4,2.5,.8c.7,.4,1.2,.9,1.6,1.5c.5,.7,.8,1.3,1,2.1c.2,.7,.3,1.5,.3,2.2c0,1.3,-.2,2.4,-.5,3.5c-.3,1,-.8,1.9,-1.5,2.7c-.7,.8,-1.6,1.3,-2.7,1.8c-1.1,.4,-2.4,.6,-4,.6H232.5v-29Z" class="g1_2" />
<g clip-path="url(#c0_2)">
<path d="M262.9,216.2v14.5c0,.9,.1,1.6,.4,2c.3,.4,.7,.6,1.4,.6c.6,0,1.1,-.2,1.4,-.6c.2,-.4,.4,-1.1,.4,-2V216.2h7.3v22h-7.1v-2.7h-.1c-.9,2.1,-2.7,3.1,-5.3,3.1c-.8,0,-1.5,0,-2.2,-.2c-.7,-.1,-1.3,-.4,-1.8,-.9c-.5,-.4,-1,-1,-1.3,-1.8c-.3,-.8,-.4,-1.7,-.4,-2.9V216.2Z" class="g1_2" />
<path d="M282.9,232.6c0,.4,.2,.7,.4,.9c.3,.5,.8,.8,1.5,.8c.6,0,1.1,-.2,1.5,-.5c.4,-.3,.6,-.8,.6,-1.4c0,-.6,-.3,-1.1,-.8,-1.5c-.5,-.3,-1.2,-.6,-1.9,-.9c-.8,-.3,-1.7,-.6,-2.6,-.9c-.9,-.3,-1.7,-.7,-2.5,-1.2c-.8,-.5,-1.5,-1.2,-2,-2c-.5,-.9,-.8,-2,-.8,-3.4c0,-.9,.2,-1.8,.5,-2.7c.4,-.8,.9,-1.5,1.7,-2.1c.7,-.7,1.6,-1.1,2.7,-1.5c1.1,-.3,2.4,-.5,3.8,-.5c5.5,0,8.3,2.3,8.3,6.9h-6.4c0,-1,-.1,-1.6,-.5,-2c-.3,-.3,-.8,-.5,-1.4,-.5c-.5,0,-1,.2,-1.3,.5c-.4,.3,-.6,.7,-.6,1.2c0,.7,.3,1.1,.8,1.4c.6,.4,1.2,.6,2,.9c.8,.2,1.6,.5,2.5,.7c.9,.3,1.8,.7,2.6,1.2c.7,.5,1.4,1.2,1.9,2c.6,.9,.8,2,.8,3.4c0,1.1,-.2,2.1,-.6,3c-.4,.9,-1,1.6,-1.7,2.3c-.8,.6,-1.7,1.1,-2.8,1.4c-1.1,.4,-2.3,.5,-3.7,.5c-3,0,-5.2,-.6,-6.6,-1.8c-1.3,-1.2,-2,-3,-2,-5.4h6.4c0,.4,.1,.8,.2,1.2Z" class="g1_2" />
</g>
<path d="M303.7,238.2h-7.3v-22h7.3v22Zm0,-23.5h-7.3v-5.5h7.3v5.5Z" class="g1_2" />
<path d="M314.2,216.2v2.7h.1c.9,-2.1,2.7,-3.2,5.3,-3.2c.8,0,1.6,.1,2.2,.2c.7,.2,1.3,.5,1.8,1c.6,.5,1,1.1,1.3,1.8c.3,.8,.4,1.8,.4,2.9v16.6H318V223.7c0,-.9,-.1,-1.6,-.4,-2c-.3,-.4,-.7,-.6,-1.4,-.6c-.6,0,-1.1,.2,-1.4,.6c-.2,.4,-.4,1.1,-.4,2v14.5h-7.3v-22Z" class="g1_2" />
<g clip-path="url(#c0_2)">
<path d="M338.9,221c-.3,-.6,-.8,-.9,-1.6,-.9c-.8,0,-1.3,.3,-1.6,.9c-.3,.5,-.4,1.3,-.4,2.5v1h4v-1c0,-1.2,-.1,-2,-.4,-2.5m-3.6,10.3c0,1.2,.2,2,.6,2.4c.4,.4,.9,.6,1.4,.6c.6,0,1.1,-.3,1.5,-.8c.4,-.5,.5,-1.5,.5,-3h6.6c0,2.7,-.7,4.7,-2.1,6.1c-1.3,1.4,-3.5,2,-6.5,2c-1.7,0,-3.2,-.2,-4.4,-.6c-1.2,-.3,-2.2,-1,-2.9,-1.9c-.7,-.9,-1.2,-2.1,-1.5,-3.5c-.4,-1.5,-.5,-3.3,-.5,-5.4c0,-2.1,.2,-3.9,.5,-5.3c.4,-1.5,.9,-2.7,1.7,-3.6c.7,-.9,1.7,-1.6,2.9,-2c1.2,-.4,2.6,-.6,4.2,-.6c1.5,0,2.8,.2,3.8,.5c1.1,.4,2.1,.9,2.8,1.8c.7,.8,1.3,1.9,1.7,3.2c.3,1.4,.5,3,.5,5v2.3H335.3Z" class="g1_2" />
<path d="M354.3,232.6c.1,.4,.2,.7,.4,.9c.4,.5,.9,.8,1.6,.8c.5,0,1,-.2,1.4,-.5c.5,-.3,.7,-.8,.7,-1.4c0,-.6,-.3,-1.1,-.8,-1.5c-.6,-.3,-1.2,-.6,-2,-.9c-.8,-.3,-1.6,-.6,-2.5,-.9c-.9,-.3,-1.8,-.7,-2.6,-1.2c-.7,-.5,-1.4,-1.2,-1.9,-2c-.6,-.9,-.8,-2,-.8,-3.4c0,-.9,.2,-1.8,.5,-2.7c.4,-.8,.9,-1.5,1.6,-2.1c.7,-.7,1.6,-1.1,2.7,-1.5c1.1,-.3,2.4,-.5,3.9,-.5c5.5,0,8.2,2.3,8.2,6.9h-6.3c0,-1,-.2,-1.6,-.5,-2c-.3,-.3,-.8,-.5,-1.4,-.5c-.6,0,-1,.2,-1.4,.5c-.3,.3,-.5,.7,-.5,1.2c0,.7,.3,1.1,.8,1.4c.5,.4,1.2,.6,1.9,.9c.8,.2,1.7,.5,2.6,.7c.9,.3,1.7,.7,2.5,1.2c.8,.5,1.5,1.2,2,2c.5,.9,.8,2,.8,3.4c0,1.1,-.2,2.1,-.6,3c-.4,.9,-1,1.6,-1.8,2.3c-.7,.6,-1.6,1.1,-2.7,1.4c-1.1,.4,-2.3,.5,-3.7,.5c-3.1,0,-5.3,-.6,-6.6,-1.8c-1.4,-1.2,-2,-3,-2,-5.4h6.4c0,.4,0,.8,.1,1.2Z" class="g1_2" />
<path d="M373.5,232.6c.1,.4,.2,.7,.4,.9c.3,.5,.9,.8,1.5,.8c.6,0,1.1,-.2,1.5,-.5c.4,-.3,.6,-.8,.6,-1.4c0,-.6,-.2,-1.1,-.7,-1.5c-.6,-.3,-1.2,-.6,-2,-.9c-.8,-.3,-1.6,-.6,-2.6,-.9c-.9,-.3,-1.7,-.7,-2.5,-1.2c-.8,-.5,-1.4,-1.2,-2,-2c-.5,-.9,-.7,-2,-.7,-3.4c0,-.9,.1,-1.8,.5,-2.7c.3,-.8,.9,-1.5,1.6,-2.1c.7,-.7,1.6,-1.1,2.7,-1.5c1.1,-.3,2.4,-.5,3.9,-.5c5.5,0,8.2,2.3,8.2,6.9h-6.3c0,-1,-.2,-1.6,-.5,-2c-.4,-.3,-.8,-.5,-1.5,-.5c-.5,0,-1,.2,-1.3,.5c-.4,.3,-.5,.7,-.5,1.2c0,.7,.2,1.1,.8,1.4c.5,.4,1.1,.6,1.9,.9c.8,.2,1.7,.5,2.6,.7c.9,.3,1.7,.7,2.5,1.2c.8,.5,1.4,1.2,2,2c.5,.9,.8,2,.8,3.4c0,1.1,-.2,2.1,-.7,3c-.4,.9,-.9,1.6,-1.7,2.3c-.7,.6,-1.6,1.1,-2.7,1.4c-1.1,.4,-2.4,.5,-3.7,.5c-3.1,0,-5.3,-.6,-6.6,-1.8c-1.4,-1.2,-2,-3,-2,-5.4h6.4c0,.4,0,.8,.1,1.2Z" class="g1_2" />
<path d="M394.1,238.2h-6.8v-8h6.8v8Z" class="g1_2" />
</g>
<path d="M309.8,185.8c.1,-7.5,5.2,-12.6,10.8,-13.4c5,-.7,11,.6,13.4,4.8c1.9,-6.8,8.3,-11.6,15.3,-11.6c8.7,0,15.8,7.1,15.8,15.8c0,1.9,-.4,5.2,-1.6,8.2c9.6,-2.7,16.6,5.9,15.7,13.3c-.6,4.9,-3.2,9.1,-7.6,10.9c7.6,-.9,13.5,-7.1,13.5,-14.8c0,-8.2,-6.8,-14.8,-15.2,-14.8h-.1c.8,-2.1,1.2,-4.4,1.2,-6.7c0,-10.5,-8.4,-18.9,-18.9,-18.9c-8.7,0,-16,5.8,-18.2,13.9c-2.4,-3.9,-6.6,-6.5,-11.5,-6.5c-7.4,0,-13.9,5.4,-14,14.8c-10.9,-.9,-17.4,7.5,-17.5,16.7c0,1.2,.1,2.4,.4,3.5c.2,-7,6.8,-16.9,18.5,-15.2Z" class="g1_2" />
<path d="M99.1,139.3H97.7v-3.7c-1,1.8,-2.1,2.7,-2.3,2.9c-.4,-.4,-.7,-.6,-1.2,-.9c2.3,-1.8,3,-3.5,3.1,-3.7H95.2v-1.3h2.5v-1.3H96.3q-.4,.8,-.6,1.1c-.5,-.4,-1.1,-.5,-1.3,-.5c.2,-.2,.2,-.3,.3,-.4H93.5v.3c.5,1.2,1.3,2,1.7,2.3c-.3,.3,-.5,.7,-.8,1.1c-.4,-.3,-.6,-.7,-.9,-1.1v5.2H92.1v-4.6c-.3,.9,-.6,1.5,-1.1,2.3c-.4,-.9,-.8,-1.2,-1,-1.4c1.2,-1.3,1.9,-3.4,2.1,-4.1H90.4v-1.3h1.7v-2.3l1.3,.1c.2,0,.3,0,.3,.1c0,.1,0,.2,-.2,.3v1.8h1.2v1.2c.8,-1.2,1.1,-2.2,1.2,-2.9l1.2,.4c.1,0,.2,0,.2,.1c0,.1,-.1,.2,-.2,.2c-.1,.2,-.1,.3,-.3,.8h.9v-2.1h1.5c.1,.1,.2,.1,.2,.2q0,.1,-.3,.2V130h2.4v1.3H99.1v1.3h2.7v1.3H99.5c.5,.9,1.3,2.2,2.8,3.2c-.4,.3,-.7,.6,-1,1.3c-.6,-.6,-1.5,-1.5,-2.2,-2.8Z" class="g2_2" />
<path d="M111.4,127.9c.4,.2,1.2,.7,1.9,1.3c-.2,.2,-.5,.7,-.8,1h1.6v1.5h-4.2c.1,.7,.5,3,2,5.1c.1,.1,.4,.6,.6,.6c.2,0,.3,-.4,.4,-.7c.1,-.1,.2,-.7,.3,-.9c.2,.3,.7,.8,1.2,1c-.3,1.5,-.8,2.4,-1.7,2.4c-1.5,0,-3.5,-3,-4.2,-7.5h-5.7v-1.5h5.5c-.1,-.2,-.2,-1.4,-.2,-2.3l1.7,.1c0,0,.2,.1,.2,.2c0,.1,-.2,.2,-.3,.3c0,.3,0,.8,0,1.7h2.5c-.4,-.3,-.9,-.7,-1.7,-1.3Zm-4.8,9.3c.9,-.1,1.8,-.3,2.4,-.5c-.1,.4,-.1,1,-.1,1.4c-1.9,.5,-3.5,.7,-5.4,1c-.1,.1,-.2,.3,-.3,.3c-.1,0,-.2,-.2,-.2,-.2l-.3,-1.5c1.2,-.1,1.8,-.2,2.3,-.3v-2.8h-2v-1.4h5.5v1.4h-1.9Z" class="g2_2" />
<path d="M122.7,135.3h-2q.1,0,.1,.1c0,.1,-.3,.1,-.4,.1c-.2,.5,-.7,1.4,-.9,1.7c1.5,-.1,1.7,-.1,3.3,-.3c-.3,-.2,-.5,-.4,-1,-.9Zm1,-3.5c-1.3,-.8,-1.9,-1.4,-2.9,-2.4c-1,1,-1.5,1.6,-2.7,2.4Zm-7.9,5.7c.4,0,1.7,-.1,1.9,-.1c.6,-1.1,.9,-1.9,1,-2.1h-2.9v-1.4H126v1.4h-2.9c1.5,1.3,2.2,2.1,2.8,3.1c-.5,.4,-.9,.8,-1.2,1c-.5,-.8,-.6,-.9,-.9,-1.3c-.7,.2,-2.5,.4,-3.3,.5c-.6,0,-3.4,.3,-4,.4c0,.2,-.1,.3,-.2,.3c-.1,0,-.2,-.1,-.2,-.3Zm8.2,-4.3h-6.3v-1.1c-.7,.4,-1.3,.7,-1.6,.9c-.1,-.2,-.6,-.8,-1.2,-1.3c1.8,-.6,4.3,-2.4,5.2,-4l1.8,.3c.1,0,.2,.1,.2,.2c0,.1,-.2,.1,-.3,.1c.7,1.1,3.2,2.7,5,3.2c-.5,.4,-1,1.3,-1,1.3c-.8,-.3,-1.5,-.7,-1.8,-.9Z" class="g2_2" />
<path d="M132.6,133.1v-1.5h2.2v-3.7l1.7,.1c.1,0,.2,.1,.2,.2c0,.1,-.1,.1,-.3,.2v3.2h2.2v1.5h-2.2v4.3h2.5v1.5h-7.1v-1.5h3v-4.3Zm-1.7,6.2h-1.6v-3.6c-.5,.4,-.9,.8,-1.2,1c-.3,-.7,-.8,-1.1,-1,-1.3c1.4,-.8,3,-2.4,3.6,-3.6h-3.1v-1.4h1.7V128h1.6c.1,0,.2,.1,.2,.2c0,.1,-.1,.1,-.2,.2v2h1.3l.6,.6c-.7,1.4,-.8,1.7,-1.3,2.4c.6,.7,1.5,1.3,1.9,1.5c-.3,.3,-.8,.8,-1,1.2c-.7,-.5,-1.1,-.9,-1.5,-1.4Z" class="g2_2" />
<path d="M149.5,127.5c.4,.4,.9,1,1.2,1.3c-.1,0,-.6,.4,-.9,.6c-.1,-.2,-.6,-.8,-1.1,-1.3Zm-1.9,.1c.1,.2,.8,.7,1.1,1.2c-.1,.1,-.5,.3,-.9,.6c-.5,-.6,-.8,-.8,-1.1,-1.1Zm.4,2.3c.4,0,.7,-.1,.9,-.2l.9,.8c-.2,.4,-.9,1.8,-1.3,2.7c-1.9,4.4,-5,5.8,-5.9,6.2c-.3,-.2,-.5,-.5,-1.4,-1.2c4.5,-1.8,5.6,-5.1,6.2,-6.8H144c-.9,1.3,-1.7,2.2,-2.9,3.3c-.6,-.5,-.8,-.7,-1.3,-1.1c1.3,-1.1,3.2,-3,4.1,-5.6l1.6,.7c0,.1,.1,.1,.1,.2c0,.1,-.2,.2,-.3,.2c-.1,.3,-.2,.5,-.4,.8Z" class="g2_2" />
<path d="M158.6,128.8c.1,0,.2,0,.2,.1c0,.1,-.1,.2,-.2,.2v6.6c1.5,-1,2.7,-2.3,3.5,-3.5c.3,.7,.5,1,.9,1.5c-.9,1.2,-2.4,2.7,-3.6,3.5c-1,.8,-1.1,.9,-1.5,1.1l-1.1,-.7c0,-.4,.1,-.7,.1,-1v-7.9Zm-3.1,.1c.1,0,.3,0,.3,.1c0,.2,-.1,.2,-.2,.3v3c0,3.2,-1.4,4.6,-3.1,5.9c-.2,-.2,-.5,-.5,-1.4,-1.1c2.3,-1.5,2.7,-2.9,2.7,-4.7v-3.6Z" class="g2_2" />
<path d="M174.6,134.5H163.9v-1.7h10.7v1.7Z" class="g2_2" />
<path d="M184.9,127.6c.4,.3,1.1,.9,1.4,1.2c-.1,.1,-.3,.2,-.8,.7c-.4,-.5,-.8,-.8,-1.3,-1.2Zm-1.1,1c.4,.2,1,.8,1.4,1.2c-.2,.2,-.6,.5,-.8,.8c-.2,-.2,-.8,-.8,-1.4,-1.3Zm-5.7,-.7c1.4,.5,2.2,1,3.2,1.6c-.2,.2,-.8,1,-1,1.3c-.9,-.6,-2,-1.2,-3.1,-1.6Zm-1.5,9.6c4,-1.4,7.2,-4.1,8.9,-6.8c.2,.3,.4,.8,1.1,1.5c-1.9,2.8,-5.6,5.6,-8.7,6.7c0,.1,0,.3,-.2,.3c-.1,0,-.1,-.1,-.2,-.2Zm.3,-6.8c.9,.4,2.5,1.3,3,1.7c-.5,.5,-.9,1.2,-1.1,1.4c-1.1,-1,-2.5,-1.5,-2.9,-1.7Z" class="g2_2" />
<path d="M192.5,136.8H196v1.4h-8.4v-1.4H191v-4.3h-2.6V131h6.7v1.5h-2.6Z" class="g2_2" />
<path d="M197.4,137.1c3,-.6,6.8,-2.6,9.4,-6.7c.4,.7,.6,.9,1,1.4c-.8,1.3,-3.1,4.8,-9,6.9c0,.1,0,.3,-.2,.3c-.1,0,-.1,-.1,-.2,-.2Zm.9,-8.7c1.8,.9,2.7,1.6,3.3,2.1c-.3,.3,-.5,.6,-1.1,1.5c-1.4,-1.3,-2.6,-1.9,-3.2,-2.1Z" class="g2_2" />
<path d="M211.9,131.4c1.7,.9,3.4,2,4.5,3c-.5,.5,-.7,.7,-1.2,1.4c-1.5,-1.5,-3.1,-2.4,-3.9,-2.8v6h-1.8V128.1l1.8,.1c.1,.1,.2,.1,.2,.2c0,.1,-.2,.2,-.2,.2v3.7Z" class="g2_2" />
<path d="M94.1,154.6v5H93v-5H89.8v-1.1h7.5v1.1Zm-4.3,-3.7h7.5v1H89.8v-1Z" class="g2_2" />
<path d="M101.7,159.5h-1.1v-6.3H98.8v-.8c1,0,1.8,-.3,2,-1.6h.9Z" class="g2_2" />
<path d="M105.5,155.1c0,1.5,.3,3.7,2.2,3.7c1.9,0,2.2,-2.2,2.2,-3.7c0,-1.4,-.3,-3.6,-2.2,-3.6c-1.9,0,-2.2,2.1,-2.2,3.6m5.5,0c0,1.8,-.4,4.6,-3.3,4.6c-2.8,0,-3.3,-2.9,-3.3,-4.6c0,-1.6,.4,-4.6,3.3,-4.6c2.9,0,3.3,3,3.3,4.6Z" class="g2_2" />
<path d="M113.7,155.2c-.4,.3,-.7,.9,-.7,1.5c0,1.3,1.1,2.1,2.3,2.1c.9,0,2,-.6,2,-2.1c0,-1.7,-1.5,-1.9,-1.9,-1.9c-1,0,-1.4,.2,-1.7,.4m3.4,-2.2c-.1,-1.1,-.9,-1.5,-1.7,-1.5c-2.2,0,-2.4,2.3,-2.5,3.5c.3,-.3,.9,-1.1,2.5,-1.1c1.9,0,3,1.3,3,2.9c0,1.6,-1.2,2.9,-3.2,2.9c-3.1,0,-3.4,-3.2,-3.4,-4.4c0,-2.8,1.2,-4.8,3.5,-4.8c.3,0,2.6,0,3,2.5Z" class="g2_2" />
<path d="M123,156.8h-2.7v-1H123v1Z" class="g2_2" />
<path d="M126,155.1c0,1.5,.3,3.7,2.2,3.7c1.9,0,2.2,-2.2,2.2,-3.7c0,-1.4,-.4,-3.6,-2.2,-3.6c-1.9,0,-2.2,2.1,-2.2,3.6m5.5,0c0,1.8,-.5,4.6,-3.3,4.6c-2.9,0,-3.3,-2.9,-3.3,-4.6c0,-1.6,.4,-4.6,3.3,-4.6c2.9,0,3.3,3,3.3,4.6Z" class="g2_2" />
<path d="M133.3,155.1c0,1.5,.3,3.7,2.2,3.7c1.9,0,2.2,-2.2,2.2,-3.7c0,-1.4,-.3,-3.6,-2.2,-3.6c-1.9,0,-2.2,2.1,-2.2,3.6m5.5,0c0,1.8,-.4,4.6,-3.3,4.6c-2.8,0,-3.3,-2.9,-3.3,-4.6c0,-1.6,.4,-4.6,3.3,-4.6c2.9,0,3.3,3,3.3,4.6Z" class="g2_2" />
<path d="M143.8,156.5v-4.3l-3.2,4.3Zm1.1,0h1.3v.9h-1.3v2.1h-1.1v-2.1h-4.2v-1l4.1,-5.6h1.2Z" class="g2_2" />
<path d="M153.4,150.8v.9c-1.2,1,-3.3,3.7,-3.4,7.8h-1.1c0,-3.1,1.5,-6.1,3.3,-7.8h-5.1v-.9Z" class="g2_2" />
<path d="M162,156.2h2.4v-1H162v1Zm0,-1.6h2.4v-.9H162v.9Zm-.9,.6h-2.4v1h2.4v-1Zm0,-1.5h-2.4v.9h2.4v-.9Zm.9,6.6h-.9v-3.1c-1,1.1,-2.2,2.2,-3.9,3c-.3,-.5,-.5,-.6,-.8,-.8c1.7,-.5,3,-1.3,4.1,-2.5h-2.7V153h3.3v-.8h-4.6v-.8h4.6v-1.2h.9c.2,0,.3,.1,.3,.2c0,.1,-.2,.2,-.3,.2v.8h4.6v.8H162v.8h3.3v3.9h-2.8c1.2,1.1,2.6,1.9,4.2,2.5c-.5,.4,-.6,.6,-.7,.7c-1.5,-.7,-2.9,-1.7,-4,-3Z" class="g2_2" />
<path d="M176.2,159.9c-.5,-.9,-1.5,-2,-2.2,-2.7l.8,-.5c.6,.6,1.6,1.7,2.2,2.6c-.4,.2,-.5,.3,-.8,.6m-1.1,-6.1h-5.3v1.7h5.3v-1.7Zm-2.2,2.5v2.8c0,.8,-.2,1.3,-2,1.2c0,-.5,-.2,-.8,-.3,-1c.2,.1,.5,.1,.8,.1c.5,0,.6,-.2,.6,-.5v-2.6h-3.1v-3.2H176v3.2Zm-2.3,1.1c-.4,.8,-1.2,1.7,-2.2,2.5c-.3,-.3,-.5,-.4,-.8,-.5c.9,-.8,1.7,-1.6,2.4,-2.8l.8,.5c.1,0,.2,.1,.2,.2c0,.1,-.2,.1,-.4,.1m-3.3,-5.2v-.8H172v-1.2l.9,.1c.1,0,.3,0,.3,.1c0,.1,-.2,.2,-.3,.2v.8h4.5v.8Z" class="g2_2" />
<path d="M186,159.1c-.1,-.5,-.2,-.7,-.4,-1c.1,0,.3,0,.7,0c.7,0,1.2,-.1,1.2,-.9c0,-1.2,-.7,-2.2,-1.7,-3c.7,-1,1.1,-1.8,1.4,-2.7h-2v8.8h-.9v-9.6h3.6l.5,.5c-.3,.6,-1.1,2.2,-1.5,2.9c.8,.8,1.5,1.8,1.5,3c0,1.5,-.8,1.9,-2.4,2m-3.5,-1.3h-2.1v1h2.1v-1Zm0,-1.7h-2.1v1h2.1v-1Zm1.4,-4.8c-.3,.7,-.6,1.4,-1.2,2.3h1.1v.8H182c-.4,.4,-.5,.6,-1,1h2.3v4.7h-.8v-.6h-2.1v.8h-.9v-3.8c-.4,.2,-.6,.3,-.9,.5c-.1,-.4,-.2,-.5,-.5,-.7c.5,-.3,1.7,-.9,2.9,-1.9h-2.7v-.8h2.1v-1.3h-1.5v-.8h1.5v-1.3l.9,.1c.1,0,.2,0,.2,.1c0,.1,-.1,.2,-.3,.2v.9h1.3v.8h-1.3v1.3h.5c.8,-1.1,1.2,-2,1.5,-2.9l.8,.3q.1,.1,.1,.2c0,.1,-.1,.1,-.2,.1Z" class="g2_2" />
<path d="M196.2,152.4h-1.6v1.3h1.6v-1.3Zm-.1,2.1h-1.3c-.3,.5,-.6,1,-.7,1.1h2.8c-.2,-.2,-.4,-.5,-.8,-1.1m2.7,2.8c-.5,-.3,-1,-.8,-1.5,-1.3v2.3h-.9V158h-2.3v.8c0,.3,0,.6,.5,.6h2.5c.3,0,.7,0,.8,-1.3c.3,.2,.5,.3,.9,.4c-.4,1.6,-1.1,1.6,-1.6,1.6h-2.6c-.9,0,-1.3,-.2,-1.3,-1.2v-1.7h3.1v-.9h-2.9c0,0,-.7,.7,-1.3,1.1c-.3,-.3,-.5,-.5,-.7,-.6c1.3,-.8,2,-1.7,2.4,-2.3h-2.1v-.8h1.9v-1.3h-1.4v-.8h1.4v-1.4l1,.1c.1,0,.2,0,.2,.1c0,.1,-.2,.1,-.3,.2v1h1.6v-1.4l1,.1c.1,0,.2,0,.2,.1c0,.1,-.1,.1,-.3,.2v1h1.6v.8h-1.6v1.3h2.1v.8h-2.1c.6,1,1.5,1.7,2.4,2.2c-.3,.2,-.5,.3,-.7,.6m-7.2,-5.1c-.8,-.7,-1.4,-1,-1.7,-1.2l.6,-.7c.7,.4,1.1,.7,1.6,1.1c-.2,.4,-.4,.6,-.5,.8m-1.5,7.6c.1,.1,.2,.2,.2,.2c0,.1,-.1,.2,-.2,.2c0,0,-.1,0,-.2,-.1l-.8,-.4c.7,-1.1,1.2,-2,1.5,-3.3c.3,.2,.5,.4,.8,.5c-.4,1.3,-.6,1.7,-1.3,2.9m.8,-4.9c-.6,-.4,-1.1,-.7,-1.8,-1.1l.4,-.7c.8,.3,1.4,.7,1.9,1c-.3,.4,-.4,.5,-.5,.8Z" class="g2_2" />
<path d="M207.9,158.1c-.3,-.5,-1,-1.4,-2.1,-2.3c-.9,1,-1.9,1.6,-3.2,2.4c-.3,-.4,-.5,-.5,-.7,-.7c.4,-.2,1.9,-1,3.2,-2.3c-1.1,-1,-2.3,-1.8,-2.8,-2l.6,-.7c1.2,.7,1.9,1.2,2.8,2c.7,-.7,1.2,-1.5,1.5,-2.4l.9,.4c.1,.1,.2,.1,.2,.2c0,.2,-.2,.1,-.4,.1c-.4,.8,-.8,1.5,-1.5,2.3c.8,.7,1.6,1.5,2.3,2.3c-.3,.2,-.5,.4,-.8,.7m-6.5,1.5v.7h-.9v-9.5h9.2v.8h-8.3v7.2H210v.8Z" class="g2_2" />
<path d="M214.6,154c.5,.7,.6,1.1,.7,1.3c-.3,.1,-.4,.1,-.7,.2h1.7c.3,-.4,.5,-.8,.7,-1.5Zm1.7,-1.9v1.1h3.9v5.7c0,1.1,-.3,1.5,-2.1,1.4c0,-.2,0,-.5,-.2,-1c.3,.1,.6,.1,.7,.1c.7,0,.7,-.2,.7,-.7V154h-1.9l.5,.2c0,0,.2,.1,.2,.2c0,.1,-.2,.1,-.3,.1c-.2,.5,-.5,.8,-.6,1h1.4v.8h-2.3v.9h2.5v.8h-2.5v2.1h-.9V158h-2.5v-.8h2.5v-.9h-2.3v-.8h1.3c-.2,-.5,-.4,-.9,-.6,-1.2l.7,-.3h-2.1v6.3h-1v-7.1h4v-1.1h-4.6v-.8h4.6v-1.1l.9,.1c.1,0,.3,0,.3,.1c0,.1,-.2,.1,-.3,.2v.7h4.6v.8Z" class="g2_2" />
<path d="M227.5,154.9v-.8h1.2v-1.5l.9,.1c.1,0,.2,0,.2,.1c0,.1,-.1,.1,-.3,.2v1.1h2.2v.8h-2.1c.4,1.1,1.3,2.5,2.5,3.6c-.4,.3,-.6,.5,-.7,.7c-.4,-.5,-1.2,-1.5,-1.9,-3v4.1h-.8v-4c-.2,.6,-.6,1.7,-1.6,2.9c-.2,-.3,-.5,-.4,-.7,-.5c.7,-.7,1.7,-2,2.2,-3.8Zm-1.6,5.4h-.8v-3.9c-.3,.9,-.9,1.9,-1.4,2.6c-.3,-.3,-.5,-.4,-.7,-.5c.6,-.8,1.5,-2,2.1,-3.6h-1.4v-.8h1.4v-1.5h.9c.1,0,.2,.1,.2,.2c0,.1,-.2,.2,-.3,.2v1.1h1.3v.8h-1.3c.3,.5,.9,1.1,1.5,1.7c-.3,.2,-.3,.4,-.5,.7c-.5,-.6,-.6,-.7,-1,-1.3Zm5.9,-9v.8h-8.4v2.2c0,1.3,-.1,3.8,-1.1,6c-.3,-.3,-.5,-.3,-.9,-.4c1,-1.7,1.1,-3.3,1.1,-5.5v-3.1h3.9v-1.1h.9c.1,0,.3,0,.3,.1c0,.2,-.2,.2,-.3,.3v.7Z" class="g2_2" />
<path d="M237.6,152.9l.9,.1c.2,0,.4,.1,.4,.2c0,.2,-.3,.2,-.4,.3v1.2h3.2v3.4c0,1,-.4,1.3,-2.1,1.3c0,-.2,-.1,-.6,-.3,-1.1c.5,.1,.8,.1,.9,.1c.5,0,.5,-.1,.5,-.5v-2.4h-2.2v4.9h-.9v-4.9h-2.1v3.9h-1v-3.7c-.6,.7,-1,1,-1.4,1.2c-.1,-.3,-.3,-.5,-.7,-.6c1.1,-.8,2.3,-1.7,3.3,-3.6h-3v-.8h3.5c0,-.1,.3,-.7,.6,-1.8l1,.3c.1,0,.2,0,.2,.1c0,.1,-.2,.2,-.4,.2c0,.2,-.2,.6,-.5,1.2h5.7v.8h-6.1c-.5,1,-.9,1.5,-1.2,2h2.1Z" class="g2_2" />
<path d="M250.1,158.5v1h-6.5c0,-1.8,1,-2.6,2.7,-3.7c2.1,-1.4,2.6,-1.7,2.6,-2.8c0,-1.1,-1,-1.5,-1.9,-1.5c-2.1,0,-2.2,1.8,-2.2,2.4h-1.1c0,-2.2,1.3,-3.4,3.3,-3.4c1.7,0,3,.9,3,2.6c0,1.1,-.5,1.8,-2.3,3c-2,1.3,-2.4,1.7,-2.7,2.4Z" class="g2_2" />
<path d="M254.7,156.8H252v-1h2.7v1Z" class="g2_2" />
<path d="M259.4,159.5h-1.1v-6.3h-1.8v-.8c.9,0,1.7,-.3,2,-1.6h.9Z" class="g2_2" />
<path d="M267.5,158.5v1H261c.1,-1.8,1.1,-2.6,2.7,-3.7c2.2,-1.4,2.7,-1.7,2.7,-2.8c0,-1.1,-1,-1.5,-2,-1.5c-2,0,-2.1,1.8,-2.1,2.4h-1.2c.1,-2.2,1.3,-3.4,3.4,-3.4c1.7,0,3,.9,3,2.6c0,1.1,-.5,1.8,-2.3,3c-2.1,1.3,-2.4,1.7,-2.7,2.4Z" class="g2_2" />
<path d="M272.1,156.8h-2.7v-1h2.7v1Z" class="g2_2" />
<path d="M275.2,156.6c0,.7,.2,2.2,2.1,2.2c1.6,0,2.1,-.9,2.1,-1.8c0,-1.5,-1.2,-1.7,-1.9,-1.7h-.8v-.9h.7c1.2,0,1.9,-.6,1.9,-1.5c0,-.9,-.8,-1.4,-1.9,-1.4c-1.8,0,-1.9,1.3,-2,1.9h-1.1c0,-.6,.3,-2.9,3.2,-2.9c1.7,0,2.9,.9,2.9,2.3c0,1.5,-1.2,1.9,-1.6,2c1.2,.2,1.7,1.1,1.7,2.1c0,1.2,-.6,2.8,-3.1,2.8c-1.1,0,-3.2,-.1,-3.3,-3.1Z" class="g2_2" />
<path d="M292.4,153.7v.3c0,1.7,0,4.6,-3.9,6.1c-.2,-.4,-.5,-.6,-.7,-.7c3.6,-1.3,3.6,-3.6,3.6,-5.7h-3v3h-1v-3h-2.2v-.9h2.2v-2.3h.9c.2,.1,.3,.1,.3,.2c0,.1,-.1,.1,-.2,.2v1.9h3v-2.4l1,.1c.1,0,.2,0,.2,.1c0,.1,-.1,.1,-.2,.2v2h2.2v.9Z" class="g2_2" />
<path d="M304.2,151.1c-.1,0,-.2,0,-.3,0c-1.1,1.4,-2.5,2.4,-2.8,2.6v6.4h-1v-5.7c-.6,.4,-2.2,1.3,-4,2c-.1,-.1,-.3,-.6,-.7,-.9c3.1,-.9,6,-2.7,7.9,-5.3l.9,.7q.1,0,.1,.1q0,.1,-.1,.1Z" class="g2_2" />
<path d="M311.4,153.7v5c0,.7,0,1.6,-2.6,1.4c-.1,-.5,-.1,-.6,-.3,-1c.3,0,.8,.1,1.2,.1c.7,0,.7,-.2,.7,-1.2v-3.4c-1.9,2.8,-4.2,3.9,-4.9,4.2c-.2,-.4,-.3,-.5,-.6,-.8c2.2,-.8,4.1,-2.7,5,-4.3h-4.7v-.9h5.2v-2.4l1,.1q.2,0,.2,.1c0,.1,-.1,.1,-.2,.2v2h2.7v.9Z" class="g2_2" />
<path d="M323.7,159.7c-.9,-1.4,-2.1,-2.6,-3.4,-3.6c-.9,1.2,-2.6,2.8,-4.8,3.7c-.2,-.4,-.3,-.6,-.6,-.8c1,-.4,4.7,-1.9,6.4,-6.9h-5.4v-.9h5.5c.2,0,.6,0,.8,-.1l.5,.5c-.2,.3,-.4,.7,-.4,.7c-.4,1.1,-.9,2.1,-1.5,3.1c1,.7,2.6,2,3.7,3.5c-.4,.3,-.4,.4,-.8,.8Z" class="g2_2" />
<path d="M333.8,151.5c-.5,-.6,-.8,-.9,-1.1,-1.2l.5,-.4c.3,.3,.8,.8,1.1,1.2c-.3,.1,-.4,.2,-.5,.4m-.9,.7c-.2,-.1,-.6,-.7,-1.2,-1.1l.6,-.4c.3,.2,.8,.7,1.1,1.1c-.2,.1,-.4,.3,-.5,.4m.3,7.4c-.7,0,-3.5,0,-4.1,0c-2.4,0,-3.5,0,-3.5,-2.1v-7h1c.1,.1,.2,.1,.2,.2c0,.1,-.1,.1,-.2,.2v3.6c1.8,-.3,4.3,-1.3,5.5,-2.2l.8,.6c0,.1,.1,.1,.1,.2c0,.1,-.2,.1,-.3,.1c0,0,-.1,0,-.2,0c-1.1,.8,-3.6,1.8,-5.9,2.2v1.9c0,1.3,.2,1.4,2.4,1.4c1.3,0,3.1,0,4.3,-.1c0,.3,0,.4,-.1,1Z" class="g2_2" />
<path d="M341,159c-.4,.2,-.4,.3,-.6,.5l-.7,-.5c0,-.3,.1,-.6,.1,-.9V151h.9c.2,0,.3,0,.3,.1c0,.1,-.1,.2,-.3,.2v6.6c1.5,-.8,2.9,-2,3.8,-3.4c.2,.5,.3,.6,.5,.8c-.8,1.2,-2.1,2.4,-4,3.7m-2.8,-7.5v2.7c0,1.8,-.3,3.6,-2.8,5.2c-.1,-.2,-.3,-.4,-.8,-.7c2.5,-1.4,2.6,-3,2.6,-4.4v-3.2h.9c.1,0,.3,0,.3,.2c0,.1,-.1,.1,-.2,.2Z" class="g2_2" />
<path d="M353.4,156.5v-4.3l-3.1,4.3Zm1.1,0h1.4v.9h-1.4v2.1h-1.1v-2.1h-4.2v-1l4.2,-5.6h1.1Z" class="g2_2" />
<path d="M362.5,150.8v.9h-4.4v3h3.8v.9h-3.8v3.9H357v-8.7Z" class="g2_2" />
<path d="M102.2,168.9c0,1.5,.3,3.7,2.2,3.7c1.9,0,2.2,-2.2,2.2,-3.7c0,-1.4,-.3,-3.6,-2.2,-3.6c-1.9,0,-2.2,2.2,-2.2,3.6m5.5,0c0,1.8,-.5,4.6,-3.3,4.6c-2.9,0,-3.3,-2.9,-3.3,-4.6c0,-1.6,.4,-4.6,3.3,-4.6c2.9,0,3.3,3,3.3,4.6Z" class="g2_2" />
<path d="M109.6,170.4c.1,.7,.2,2.2,2.1,2.2c1.6,0,2.2,-.9,2.2,-1.8c0,-1.5,-1.3,-1.7,-1.9,-1.7h-.9v-.9h.8c1.2,0,1.8,-.6,1.8,-1.5c0,-.9,-.8,-1.4,-1.8,-1.4c-1.8,0,-2,1.3,-2,1.9h-1.2c.1,-.6,.3,-2.9,3.2,-2.9c1.7,0,2.9,.9,2.9,2.3c0,1.5,-1.2,1.9,-1.5,2c1.1,.2,1.7,1.1,1.7,2.1c0,1.2,-.7,2.8,-3.2,2.8c-1,0,-3.1,-.1,-3.3,-3.1Z" class="g2_2" />
<path d="M119.6,170.6h-2.7v-1h2.7v1Z" class="g2_2" />
<path d="M124.5,169c-.4,.3,-.7,.9,-.7,1.5c0,1.3,1.1,2.1,2.2,2.1c1,0,2.1,-.6,2.1,-2.1c0,-1.7,-1.5,-1.9,-1.9,-1.9c-1,0,-1.5,.2,-1.7,.4m3.4,-2.2c-.1,-1.1,-.9,-1.5,-1.8,-1.5c-2.1,0,-2.3,2.3,-2.4,3.5c.3,-.3,.9,-1.1,2.5,-1.1c1.9,0,3,1.3,3,2.9c0,1.6,-1.2,2.9,-3.2,2.9c-3.1,0,-3.4,-3.2,-3.4,-4.4c0,-2.8,1.2,-4.8,3.5,-4.8c.2,0,2.6,0,3,2.5Z" class="g2_2" />
<path d="M134.1,170.3V166l-3.1,4.3Zm1.1,0h1.4v.9h-1.4v2.1h-1.1v-2.1h-4.2v-1l4.2,-5.6h1.1Z" class="g2_2" />
<path d="M138.4,168.9c0,1.5,.3,3.7,2.2,3.7c1.9,0,2.2,-2.2,2.2,-3.7c0,-1.4,-.3,-3.6,-2.2,-3.6c-1.9,0,-2.2,2.2,-2.2,3.6m5.5,0c0,1.8,-.4,4.6,-3.3,4.6c-2.8,0,-3.3,-2.9,-3.3,-4.6c0,-1.6,.4,-4.6,3.3,-4.6c2.9,0,3.3,3,3.3,4.6Z" class="g2_2" />
<path d="M147.5,173.3h-1.1V167h-1.8v-.8c1,0,1.7,-.3,2,-1.6h.9Z" class="g2_2" />
<path d="M152.9,170.6h-2.7v-1h2.7v1Z" class="g2_2" />
<path d="M162,165.5h-4l-.5,2.8c.5,-.5,1.2,-.7,2,-.7c1.5,0,2.9,1,2.9,2.9c0,1.5,-1,3,-3.1,3c-1.2,0,-2.1,-.4,-2.6,-.9c-.6,-.5,-.7,-1.2,-.7,-1.7h1.1c.2,1.1,1,1.7,2.1,1.7c1,0,2.1,-.6,2.1,-2.1c0,-1.2,-.7,-2.1,-2,-2.1c-1.1,0,-1.6,.6,-1.9,.9h-1.2l.9,-4.7H162Z" class="g2_2" />
<path d="M169.8,172.3v1h-6.5c.1,-1.8,1.1,-2.6,2.7,-3.6c2.2,-1.5,2.6,-1.8,2.6,-2.9c0,-1.1,-1,-1.5,-1.9,-1.5c-2,0,-2.1,1.8,-2.2,2.4h-1.1c.1,-2.2,1.3,-3.4,3.3,-3.4c1.8,0,3.1,1,3.1,2.6c0,1.1,-.5,1.8,-2.3,3c-2.1,1.3,-2.5,1.7,-2.7,2.4Z" class="g2_2" />
<path d="M174.5,173.3h-1.1V167h-1.8v-.8c1,0,1.7,-.3,2,-1.6h.9Z" class="g2_2" />
<path d="M181.1,173.3h-1V167h-1.8v-.8c.9,0,1.7,-.3,2,-1.6h.8Z" class="g2_2" />
<path d="M203.7,168.9c0,1.5,.3,3.7,2.2,3.7c1.9,0,2.2,-2.2,2.2,-3.7c0,-1.4,-.3,-3.6,-2.2,-3.6c-1.9,0,-2.2,2.2,-2.2,3.6m5.5,0c0,1.8,-.4,4.6,-3.3,4.6c-2.9,0,-3.3,-2.9,-3.3,-4.6c0,-1.6,.4,-4.6,3.3,-4.6c2.9,0,3.3,3,3.3,4.6Z" class="g2_2" />
<path d="M211.2,170.4c0,.7,.2,2.2,2,2.2c1.6,0,2.2,-.9,2.2,-1.8c0,-1.5,-1.2,-1.7,-1.9,-1.7h-.9v-.9h.8c1.2,0,1.9,-.6,1.9,-1.5c0,-.9,-.8,-1.4,-1.9,-1.4c-1.8,0,-2,1.3,-2,1.9h-1.1c0,-.6,.2,-2.9,3.2,-2.9c1.6,0,2.8,.9,2.8,2.3c0,1.5,-1.2,1.9,-1.5,2c1.1,.2,1.7,1.1,1.7,2.1c0,1.2,-.6,2.8,-3.2,2.8c-1,0,-3.1,-.1,-3.3,-3.1Z" class="g2_2" />
<path d="M221.1,170.6h-2.7v-1h2.7v1Z" class="g2_2" />
<path d="M226.1,169c-.5,.3,-.7,.9,-.7,1.5c0,1.3,1,2.1,2.2,2.1c.9,0,2,-.6,2,-2.1c0,-1.7,-1.5,-1.9,-1.9,-1.9c-1,0,-1.4,.2,-1.6,.4m3.3,-2.2c-.1,-1.1,-.9,-1.5,-1.7,-1.5c-2.2,0,-2.4,2.3,-2.4,3.5c.2,-.3,.8,-1.1,2.4,-1.1c1.9,0,3,1.3,3,2.9c0,1.6,-1.2,2.9,-3.2,2.9c-3.1,0,-3.4,-3.2,-3.4,-4.4c0,-2.8,1.2,-4.8,3.6,-4.8c.2,0,2.5,0,2.9,2.5Z" class="g2_2" />
<path d="M235.7,170.3V166l-3.2,4.3Zm1,0h1.4v.9h-1.4v2.1h-1v-2.1h-4.2v-1l4.1,-5.6h1.1Z" class="g2_2" />
<path d="M240,168.9c0,1.5,.3,3.7,2.1,3.7c2,0,2.2,-2.2,2.2,-3.7c0,-1.4,-.3,-3.6,-2.1,-3.6c-1.9,0,-2.2,2.2,-2.2,3.6m5.5,0c0,1.8,-.5,4.6,-3.3,4.6c-2.9,0,-3.3,-2.9,-3.3,-4.6c0,-1.6,.4,-4.6,3.3,-4.6c2.9,0,3.3,3,3.3,4.6Z" class="g2_2" />
<path d="M249,173.3h-1.1V167h-1.7v-.8c.9,0,1.7,-.3,2,-1.6h.8Z" class="g2_2" />
<path d="M255.5,170.6h-2.6v-1h2.6v1Z" class="g2_2" />
<path d="M264.6,165.5h-3.9l-.6,2.8c.5,-.5,1.3,-.7,2,-.7c1.5,0,3,1,3,2.9c0,1.5,-1,3,-3.2,3c-1.2,0,-2,-.4,-2.5,-.9c-.6,-.5,-.8,-1.2,-.8,-1.7h1.2c.1,1.1,.9,1.7,2,1.7c1,0,2.2,-.6,2.2,-2.1c0,-1.2,-.8,-2.1,-2.1,-2.1c-1.1,0,-1.6,.6,-1.8,.9h-1.2l.8,-4.7h4.9Z" class="g2_2" />
<path d="M272.4,172.3v1h-6.5c.1,-1.8,1.1,-2.6,2.7,-3.6c2.2,-1.5,2.7,-1.8,2.7,-2.9c0,-1.1,-1,-1.5,-2,-1.5c-2,0,-2.1,1.8,-2.1,2.4h-1.1c0,-2.2,1.2,-3.4,3.3,-3.4c1.7,0,3,1,3,2.6c0,1.1,-.5,1.8,-2.3,3c-2,1.3,-2.4,1.7,-2.7,2.4Z" class="g2_2" />
<path d="M277.1,173.3h-1V167h-1.8v-.8c.9,0,1.7,-.3,2,-1.6h.8Z" class="g2_2" />
<path d="M286.4,172.3v1h-6.5c.1,-1.8,1.1,-2.6,2.7,-3.6c2.2,-1.5,2.6,-1.8,2.6,-2.9c0,-1.1,-1,-1.5,-1.9,-1.5c-2,0,-2.1,1.8,-2.2,2.4H280c.1,-2.2,1.3,-3.4,3.3,-3.4c1.8,0,3.1,1,3.1,2.6c0,1.1,-.5,1.8,-2.3,3c-2.1,1.3,-2.5,1.7,-2.7,2.4Z" class="g2_2" />
<g clip-path="url(#c0_2)">
<path d="M90.3,143.5H408.1M90.3,179.4H408.1M90.3,201.5H408.1" class="g3_2" />
</g>
<path d="M90.8,165.6c-.3,.5,-1.1,2.5,2.1,5.7c3.4,3.5,5.6,2.8,6,2.4l-2.3,-2.3c-.3,.3,-.7,.1,-1.5,-.6c-.5,-.4,-1.1,-1,-1.6,-1.6c-.4,-.5,-.7,-.9,-.4,-1.3Z" class="g2_2" />
<path d="M99.9,172.7c.1,-.2,.1,-.4,0,-.5c0,0,-1.8,-1.8,-1.8,-1.8c-.1,-.1,-.3,-.1,-.5,0L97,171l2.3,2.3l.6,-.6Z" class="g2_2" />
<path d="M94.2,166.9c.1,-.1,.1,-.3,0,-.5l-1.9,-1.8c-.1,-.1,-.3,-.1,-.5,0l-.6,.7l2.3,2.3l.7,-.7Z" class="g2_2" />
<path d="M199,165.4v1.2h-6v-2.4h4.2Z" class="g2_2" />
<path d="M198.7,172.6h-1.1v-1.1h1.1v1.1Zm-1.8,0h-1.1v-1.1h1.1v1.1Zm-1.8,0H194v-1.1h1.1v1.1Zm3.6,-1.7h-1.1v-1h1.1v1Zm-1.8,0h-1.1v-1h1.1v1Zm-1.8,0H194v-1h1.1v1Zm3.6,-1.6h-1.1v-1.1h1.1v1.1Zm-1.8,0h-1.1v-1.1h1.1v1.1Zm-1.8,0H194v-1.1h1.1v1.1Zm4,-2.3h-6.6v6.4h6.6c.7,0,1.2,-.5,1.2,-1.1v-4.1c0,-.6,-.5,-1.2,-1.2,-1.2Z" class="g2_2" />
<path d="M189.5,172.9c0,.3,.2,.6,.5,.6h1.3c.3,0,.6,-.3,.6,-.6v-5.3c0,-.4,-.3,-.6,-.6,-.6H190c-.3,0,-.5,.2,-.5,.6Z" class="g2_2" />
<path d="M109,195.9V185.6h1.8v3.3c.5,-.9,1.3,-1,1.6,-1c1.1,0,1.9,.6,1.8,2v6h-1.8v-5.3c0,-.8,0,-1.3,-.7,-1.3c-.7,0,-.9,.6,-.9,1.4v5.2Z" class="g2_2" />
<path d="M118.6,195.9c-1.1,.2,-2.5,.3,-2.5,-1.2v-5.3h-.8v-1.3h.7V186h1.9v2.1h.7v1.3h-.7v4.9c0,.3,.5,.3,.7,.2Z" class="g2_2" />
<path d="M122.5,195.9c-1,.2,-2.5,.3,-2.5,-1.2v-5.3h-.8v-1.3h.8V186h1.8v2.1h.7v1.3h-.7v4.9c0,.3,.5,.3,.7,.2Z" class="g2_2" />
<path d="M125.5,193.4c0,.9,.3,1.3,.9,1.3c.6,0,.8,-.6,.8,-1.3v-2.6c-.1,-.8,0,-1.5,-.8,-1.5c-.9,0,-.9,1.1,-.9,1.7Zm0,-4.5h.1c.3,-.7,.8,-1,1.5,-1c1.2,.1,1.8,.7,1.9,2.8v2.8c-.1,1.3,-.4,2.6,-1.9,2.6c-.7,0,-1.2,-.2,-1.6,-1v3.4h-1.8V188.1h1.8Z" class="g2_2" />
<path d="M130.9,194.1h1.8v1.8h-1.8v-1.8Zm0,-5.9h1.8v1.9h-1.8v-1.9Z" class="g2_2" />
<path d="M136.9,185.6h1.2l-3.2,11.6h-1.2Z" class="g2_2" />
<path d="M140.8,185.6H142l-3.2,11.6h-1.2Z" class="g2_2" />
<path d="M147.8,192.9c.1,.6,.1,1.1,.1,1.7h.1c0,-.4,.1,-1.5,.1,-1.7l.6,-4.8h1.8l-1.5,7.8h-2l-.6,-3.1c-.1,-.7,-.2,-1.3,-.2,-2h-.1c0,.6,-.1,1.2,-.2,1.9l-.5,3.2h-2l-1.6,-7.8h1.9l.6,4.8c.1,.2,.2,1.4,.2,1.7c0,-.6,.1,-1.1,.2,-1.7l.7,-4.8h1.5Z" class="g2_2" />
<path d="M157,192.9c.1,.6,.2,1.1,.2,1.7h.1c0,-.4,.1,-1.5,.1,-1.7l.6,-4.8h1.8l-1.6,7.8h-1.9l-.6,-3.1c-.1,-.7,-.2,-1.3,-.2,-2h-.1c0,.6,-.1,1.2,-.2,1.9l-.5,3.2h-2l-1.6,-7.8H153l.6,4.8c0,.2,.1,1.4,.1,1.7h.1c0,-.6,.1,-1.1,.1,-1.7l.8,-4.8h1.5Z" class="g2_2" />
<path d="M166.3,192.9c.1,.6,.2,1.1,.2,1.7c0,-.4,.1,-1.5,.2,-1.7l.6,-4.8h1.8l-1.6,7.8h-1.9l-.6,-3.1c-.2,-.7,-.2,-1.3,-.3,-2c-.1,.6,-.1,1.2,-.2,1.9l-.6,3.2h-2l-1.6,-7.8h1.9l.7,4.8c0,.2,.1,1.4,.1,1.7c.1,-.6,.1,-1.1,.2,-1.7l.8,-4.8h1.4Z" class="g2_2" />
<path d="M170.4,194.1h1.8v1.8h-1.8v-1.8Z" class="g2_2" />
<path d="M177,189.3c-.9,0,-.8,.7,-.9,1.5v2.6c.1,.7,.3,1.3,.8,1.3c.6,0,.9,-.4,.9,-1.3V191c0,-.6,0,-1.7,-.8,-1.7m-.8,7.5c0,.1,.1,.3,.2,.3c.2,.1,.4,.1,.6,.1c.7,0,.9,-.6,.9,-1.2v-.9c-.4,.7,-.9,1,-1.7,1c-1.5,0,-1.8,-1.3,-1.8,-2.6v-2.8c0,-2.1,.7,-2.7,1.8,-2.8c.8,0,1.3,.3,1.6,1v-.8h1.8v7.6c0,1.6,-.4,2.8,-2.9,2.8c-1.2,0,-2.2,-.4,-2.3,-1.7Z" class="g2_2" />
<path d="M181.6,185.6h1.8v10.3h-1.8V185.6Z" class="g2_2" />
<path d="M188.7,194.8v0c-.3,.9,-.8,1.3,-1.7,1.3c-1.4,0,-1.7,-.7,-1.7,-2v-6h1.8v5.4c0,.3,0,.7,.2,1c.1,.2,.3,.2,.5,.2c.9,0,.9,-.9,.9,-1.5v-5.1h1.7v7.8h-1.7Z" class="g2_2" />
<path d="M195.8,191v-.7c0,-.7,-.2,-1,-1,-1c-.9,0,-.8,.7,-.8,1.4v.3Zm-3.6,-.2c-.1,-1.8,.8,-2.9,2.6,-2.9c2.5,0,2.8,1.3,2.8,3.4v1.1H194v1.1c0,1,.4,1.2,.9,1.2c.7,0,.9,-.4,.8,-1.4h1.8c.1,1.7,-.6,2.8,-2.4,2.8c-2.1,0,-3,-1,-2.9,-3.2Z" class="g2_2" />
<path d="M201.8,189.3c-.9,0,-.8,.7,-.8,1.5v2.6c0,.7,.2,1.3,.8,1.3c.5,0,.8,-.4,.8,-1.3V191c0,-.6,0,-1.7,-.8,-1.7m-.8,7.5c0,.1,.1,.3,.3,.3c.1,.1,.3,.1,.5,.1c.8,0,.9,-.6,.9,-1.2v-.9c-.4,.7,-.9,1,-1.7,1c-1.5,0,-1.8,-1.3,-1.8,-2.6v-2.8c0,-2.1,.7,-2.7,1.8,-2.8c.8,0,1.3,.3,1.6,1v-.8h1.8v7.6c0,1.6,-.4,2.8,-2.9,2.8c-1.2,0,-2.1,-.4,-2.2,-1.7Z" class="g2_2" />
<path d="M209.7,191v-.7c0,-.7,-.2,-1,-.9,-1c-.9,0,-.9,.7,-.9,1.4v.3Zm-3.6,-.2c-.1,-1.8,.9,-2.9,2.6,-2.9c2.5,0,2.8,1.3,2.8,3.4v1.1h-3.6v1.1c0,1,.4,1.2,1,1.2c.6,0,.8,-.4,.8,-1.4h1.8c.1,1.7,-.7,2.8,-2.5,2.8c-2.1,0,-2.9,-1,-2.9,-3.2Z" class="g2_2" />
<path d="M215,188.9v0c.4,-.9,1.2,-1,1.7,-1c1,0,1.8,.6,1.8,2v6h-1.8v-5.2c0,-.7,-.1,-1.2,-.8,-1.3c-.7,0,-.9,.6,-.9,1.5v5h-1.8v-7.8H215Z" class="g2_2" />
<path d="M222.8,195.9c-1,.2,-2.5,.3,-2.5,-1.2v-5.3h-.8v-1.3h.8V186h1.8v2.1h.7v1.3h-.7v4.9c0,.3,.5,.3,.7,.2Z" class="g2_2" />
<path d="M224.7,194.1h1.8v1.8h-1.8v-1.8Z" class="g2_2" />
<path d="M231.7,190.8V190c0,-.5,-.3,-.7,-.6,-.7c-.7,0,-.7,.8,-.7,1.7v1.9c-.1,1.5,.1,1.8,.7,1.8c.5,0,.5,-.5,.6,-1.1v-.7h1.8v.7c0,1.6,-.7,2.5,-2.5,2.5c-1.6,0,-2.5,-.8,-2.4,-2.9v-2.5c0,-2.2,1,-2.8,2.4,-2.8c1.8,0,2.5,1.2,2.5,2.3v.6Z" class="g2_2" />
<path d="M236.6,193.4c0,.9,.1,1.3,1,1.3c.8,0,.9,-.4,.9,-1.3v-2.6c0,-.8,0,-1.5,-.9,-1.5c-1,0,-1,.7,-1,1.5Zm-1.7,-1.1c0,-2.7,0,-4.4,2.7,-4.4c2.7,0,2.7,1.7,2.7,4.4c0,2.7,-.4,3.9,-2.7,3.8c-2.4,.1,-2.8,-1.1,-2.7,-3.8Z" class="g2_2" />
<path d="M243.8,188.9v0c.4,-.8,1.2,-.9,1.7,-1c.7,0,1.6,.3,1.7,1c.4,-.6,.9,-1,1.8,-1c1.3,0,1.9,.9,1.9,1.7v6.3h-1.8v-5.2c0,-.7,0,-1.4,-.8,-1.4c-.8,0,-.9,.6,-.9,1.5v5.1h-1.8v-5.3c0,-.7,-.1,-1.3,-.9,-1.3c-.9,0,-.9,.6,-.9,1.5v5.1H242v-7.8h1.8Z" class="g2_2" />
<path d="M99,193.9H95.9v.7H99v-.7Zm0,-1.5H95.9v.7H99v-.7Zm0,-1.5H95.9v.7H99v-.7Zm0,-1.5H95.9v.8H99v-.8Zm0,-1.5H95.9v.8H99v-.8Zm3.7,3.9h-1v1.1h1v-1.1Zm-1.7,0h-1v1.1h1v-1.1Zm1.7,-1.7h-1v1.1h1v-1.1Zm-1.7,0h-1v1.1h1v-1.1Zm1.7,-1.7h-1v1.1h1v-1.1Zm-1.7,0h-1v1.1h1v-1.1ZM94.6,193H93.5v1h1.1v-1Zm-1.8,0h-1v1h1v-1Zm1.8,-1.9H93.5v.9h1.1v-.9Zm-1.8,0h-1v.9h1v-.9Zm1.8,-2H93.5v.9h1.1v-.9Zm-1.8,0h-1v.9h1v-.9Zm1.8,-2H93.5v.9h1.1v-.9Zm-1.8,0h-1v.9h1v-.9Zm1.8,-2H93.5v1h1.1v-1Zm-1.8,0h-1v1h1v-1Zm-2.1,-.8h4.7v2.4h4v1.1h4v9H90.7Z" class="g2_2" />

</svg>
